<?xml version="1.0" encoding="utf-8"?>
<!-- Generator: Adobe Illustrator 22.0.0, SVG Export Plug-In . SVG Version: 6.00 Build 0)  -->
<svg version="1.1" id="图层_1" xmlns="http://www.w3.org/2000/svg" xmlns:xlink="http://www.w3.org/1999/xlink" x="0px" y="0px"
	 viewBox="0 0 800 800" style="enable-background:new 0 0 800 800;" xml:space="preserve">
<style type="text/css">
	.st0{fill:#FFFFFF;}
</style>
<path class="st0" d="M349.1,427.6l12.3,25.1c3.8,7.9,13.5,11.7,22.4,8.3l11.7-5.1c6.9-3.4,14.3-1.3,19.7,3.7
	c5.4,5.1,11.4,10.1,17.1,15.1c5.9,4.9,8.8,12.1,6.7,19.6l-3.7,12.5c-2.7,9.1,2.7,18.6,11.3,21.6l13.6,4.6l13.6,4.6
	c8.8,3.4,18.6-1.4,22.1-10.2l4.8-12.1c2.9-7.1,10.1-11.4,17.3-11.3c7.4,0.6,14.8-0.1,22.8-1.3c7.1-1.4,14.4,2.1,17.8,9.1l6.1,11.3
	c3.8,7.9,14.2,11.5,22.8,7.2l25.1-12.3c7.9-3.8,11.7-13.5,8.3-22.4l-5.1-11.7c-3.4-6.9-1.3-14.3,3.7-19.7
	c5.1-5.4,10.1-11.4,15.1-17.1c4.9-5.9,12.1-8.8,19.6-6.7l12.5,3.7c9.1,2.7,18.6-2.7,21.6-11.3l9.4-27.4c3.4-8.8-1.4-18.6-10.2-22.1
	l-12.1-4.8c-7.1-2.9-11.4-10.1-11.3-17.3c0.6-7.4-0.1-14.8-1.3-22.8c-1.4-7.1,2.1-14.4,9.1-17.8l11.3-6.1
	c7.9-3.8,11.5-14.2,7.2-22.8l-12.6-25.9c-3.8-7.9-13.5-11.7-22.4-8.3l-11.7,5.1c-6.9,3.4-14.3,1.3-19.7-3.7
	c-5.4-5.1-11.4-10.1-17.1-15.1c-5.9-4.9-8.8-12.1-6.7-19.6l3.7-12.5c2.7-9.1-2.7-18.6-11.3-21.6l-13.6-4.6l-13.6-4.6
	c-8.8-3.4-18.6,1.4-22.1,10.2l-4.8,12.1c-2.9,7.1-10.1,11.4-17.3,11.3c-7.4-0.6-14.8,0.1-22.8,1.3c-7.1,1.4-14.4-2.1-17.8-9.1
	l-6.1-11.3c-3.8-7.9-14.2-11.5-22.8-7.2l-25.1,12.3c-8.6,4.3-12.1,14.5-8.4,23.4l5.1,11.7c3.4,6.9,1.3,14.3-3.7,19.7
	c-5.1,5.4-10.1,11.4-15,17.4c-4.9,5.9-12.1,8.8-19.6,6.7l-12.5-3.7c-9.1-2.7-18.6,2.7-21.6,11.3l-4.9,13.1l-4.6,13.6
	c-3.4,8.8,1.4,18.6,10.2,22.1l12.1,4.8c7.1,2.9,11.4,10.1,11.3,17.3c-0.6,7.4,0.1,14.8,1.3,22.8c1.4,7.1-2.1,14.4-9.1,17.8
	l-11.3,6.1C347.9,408.9,344.4,419.3,349.1,427.6z M457.9,389.7c-16.9-34.5-2.8-75.2,31.5-92.1c34.5-16.9,75.2-2.8,92.1,31.5
	c16.9,34.5,2.8,75.2-31.5,92.1C515.8,438.1,474.8,424.2,457.9,389.7z"/>
<path class="st0" d="M228.6,156.9l-15.7,4.5c-4.9,1.5-8.1,6.4-7,11.9l1.6,7.2c1.1,4.3-0.8,8.4-4.3,10.7c-3.5,2.6-6.9,5.4-10.4,8.2
	c-3.5,2.8-7.7,3.7-11.7,1.9l-6.8-3.3c-5-2.5-10.8-0.3-13.4,4.1l-4,7.2l-4,7.2c-2.8,4.6-1.2,10.7,3.5,13.8l6.5,4
	c3.7,2.5,5.4,6.8,4.7,11c-1.2,4.2-1.5,8.6-1.6,13.2c0,4.2-2.8,8-7,9.2l-6.9,2.3c-4.9,1.5-8,6.8-6.5,12.1l4.5,15.7
	c1.5,4.9,6.4,8.1,11.9,7l7.2-1.6c4.3-1.1,8.4,0.8,10.7,4.3c2.5,3.5,5.4,6.8,8.2,10.4c2.8,3.5,3.7,7.7,1.9,11.7l-3.3,6.8
	c-2.5,5-0.3,10.8,4.1,13.4l14.7,8.1c4.6,2.8,10.7,1.2,13.8-3.5l4-6.5c2.5-3.7,6.8-5.4,11-4.7c4.2,1.2,8.6,1.5,13.2,1.6
	c4.2,0,8,2.8,9.2,7l2.3,6.9c1.5,4.9,6.8,8,12.1,6.5l16.1-4.6c4.9-1.5,8.1-6.4,7-11.9l-1.6-7.2c-1.1-4.3,0.8-8.4,4.3-10.7
	c3.5-2.6,6.8-5.4,10.4-8.2c3.5-2.8,7.7-3.7,11.7-1.9l6.8,3.3c5,2.5,10.8,0.3,13.4-4.1l4-7.2l4-7.2c2.8-4.6,1.2-10.7-3.5-13.8l-6.5-4
	c-3.7-2.5-5.4-6.9-4.7-11c1.2-4.2,1.5-8.6,1.6-13.2c0-4.2,2.8-8,7-9.2l6.9-2.3c4.9-1.5,8-6.8,6.5-12.1l-4.5-15.7
	c-1.4-5.3-7-8.4-12.4-7.2l-7.2,1.6c-4.3,1.1-8.4-0.8-10.7-4.3c-2.6-3.5-5.4-6.8-8.2-10.4c-2.8-3.5-3.7-7.7-1.9-11.7l3.3-6.8
	c2.5-5,0.3-10.8-4.1-13.4l-7-4.2l-7.2-4c-4.6-2.8-10.7-1.2-13.8,3.5l-4,6.5c-2.5,3.7-6.8,5.4-11,4.7c-4.2-1.2-8.6-1.5-13.2-1.6
	c-4.2,0-8-2.8-9.2-7L241,163C239.1,158.1,233.6,155.1,228.6,156.9z M238.6,222.7c21.2-6.1,43.3,6.3,49.2,27.7
	c6.1,21.2-6.3,43.3-27.7,49.2c-21.2,6.1-43.3-6.3-49.2-27.7C205.1,250.8,217.3,228.8,238.6,222.7z"/>
<path class="st0" d="M590.6,556.1v32.3c0,11.4-9.3,20.8-20.8,20.8H259.7c-11.4,0-20.8-9.4-20.8-20.8v-31.3H203v61.1
	c0,14.3,11.7,26,26,26h367.7c14.3,0,26-11.7,26-26v-62.1H590.6z"/>
</svg>
