<?xml version="1.0" encoding="utf-8"?>
<!-- Generator: Adobe Illustrator 22.0.0, SVG Export Plug-In . SVG Version: 6.00 Build 0)  -->
<svg version="1.1" id="图层_1" xmlns="http://www.w3.org/2000/svg" xmlns:xlink="http://www.w3.org/1999/xlink" x="0px" y="0px"
	 viewBox="0 0 800 800" style="enable-background:new 0 0 800 800;" xml:space="preserve">
<style type="text/css">
	.st0{fill:#FFFFFF;}
</style>
<path class="st0" d="M367.8,462.8l17.5,21.9c5.5,6.9,15.8,8.6,23.7,3.2l10.4-7.5c6-4.8,13.6-4.3,20-0.6c6.4,3.9,13.3,7.4,20.1,11
	c6.9,3.5,11.2,9.9,10.7,17.7l-0.9,13c-0.7,9.5,6.6,17.6,15.6,18.6l14.3,1.6l14.3,1.6c9.4,1.5,17.9-5.3,19.4-14.7l2-12.9
	c1.4-7.6,7.4-13.3,14.4-14.8c7.3-1.1,14.4-3.3,22-6.3c6.6-2.8,14.6-1,19.4,5l8.5,9.6c5.5,6.9,16.4,8.1,23.8,2.1l21.9-17.5
	c6.9-5.5,8.6-15.8,3.2-23.7l-7.5-10.4c-4.8-6-4.3-13.6-0.6-20c3.9-6.4,7.4-13.3,11-20.1c3.5-6.9,9.9-11.2,17.7-10.7l13,0.9
	c9.5,0.7,17.6-6.6,18.6-15.6l3.3-28.8c1.5-9.4-5.3-17.9-14.7-19.4l-12.9-2c-7.6-1.4-13.3-7.4-14.8-14.4c-1.1-7.3-3.3-14.4-6.3-22
	c-2.8-6.6-1-14.6,5-19.4l9.6-8.5c6.9-5.5,8.1-16.4,2.1-23.8l-18-22.6c-5.5-6.9-15.8-8.6-23.7-3.2l-10.4,7.5c-6,4.8-13.6,4.3-20,0.6
	c-6.4-3.9-13.3-7.4-20.1-11c-6.9-3.5-11.2-9.9-10.7-17.7l0.9-13c0.7-9.5-6.6-17.6-15.6-18.6l-14.3-1.6l-14.3-1.6
	c-9.4-1.5-17.9,5.3-19.4,14.7l-2,12.9c-1.4,7.6-7.4,13.3-14.4,14.8c-7.3,1.1-14.4,3.3-22,6.3c-6.6,2.8-14.6,1-19.4-5l-8.5-9.6
	c-5.5-6.9-16.4-8.1-23.8-2.1l-21.9,17.5c-7.5,6-8.8,16.8-3.2,24.7l7.5,10.4c4.8,6,4.3,13.6,0.6,20c-3.9,6.4-7.4,13.3-10.9,20.2
	s-9.9,11.2-17.7,10.7l-13-0.9c-9.5-0.7-17.6,6.6-18.6,15.6l-2,13.9l-1.6,14.3c-1.5,9.4,5.3,17.9,14.7,19.4l12.9,2
	c7.6,1.4,13.3,7.4,14.8,14.4c1.1,7.3,3.3,14.4,6.3,22c2.8,6.6,1,14.6-5,19.4l-9.6,8.5C362.6,444.7,361.4,455.6,367.8,462.8z
	 M465.9,402.3c-24-30-18.9-72.9,10.8-96.7c30-24,72.9-18.9,96.7,10.8c24,30,18.9,72.9-10.8,96.7
	C532.9,437.2,489.9,432.4,465.9,402.3z"/>
<path class="st0" d="M269.7,156.6l-16.2-1.9c-5-0.5-10,2.8-11.1,8.4l-1.3,7.3c-0.6,4.3-3.9,7.4-8,8.3c-4.3,1-8.4,2.4-12.7,3.7
	c-4.2,1.2-8.5,0.5-11.6-2.8l-5-5.7c-3.7-4.2-9.9-4.4-14-1.2l-6.5,5.1L177,183c-4.3,3.2-5.1,9.3-2,14.1l4.4,6.2
	c2.6,3.7,2.4,8.4,0.1,12c-2.7,3.5-4.6,7.4-6.5,11.6c-1.6,3.8-5.6,6.3-10,5.9l-7.3-0.5c-5-0.5-9.9,3.2-10.6,8.7l-1.9,16.2
	c-0.5,5,2.8,10,8.4,11.1l7.3,1.3c4.3,0.6,7.4,3.9,8.3,8c0.9,4.2,2.4,8.4,3.7,12.7c1.2,4.2,0.5,8.5-2.8,11.6l-5.7,5
	c-4.2,3.7-4.4,9.9-1.2,14l10.4,13.1c3.2,4.3,9.3,5.1,14.1,2l6.2-4.4c3.7-2.6,8.4-2.4,12-0.1c3.5,2.7,7.4,4.6,11.6,6.5
	c3.8,1.6,6.3,5.6,5.9,10l-0.5,7.3c-0.5,5,3.2,9.9,8.7,10.6l16.6,1.9c5,0.5,10-2.8,11.1-8.4l1.3-7.3c0.6-4.3,3.9-7.4,8-8.3
	c4.3-1,8.4-2.4,12.7-3.7c4.2-1.2,8.5-0.5,11.6,2.8l5,5.7c3.7,4.2,9.9,4.4,14,1.2l6.5-5.1l6.5-5.1c4.3-3.2,5.1-9.3,2-14.1l-4.4-6.2
	c-2.6-3.7-2.4-8.4-0.1-12c2.7-3.5,4.6-7.4,6.5-11.6c1.6-3.8,5.6-6.3,10-5.9l7.3,0.5c5,0.5,9.9-3.2,10.6-8.7l1.9-16.2
	c0.6-5.5-3.3-10.3-8.7-11.4l-7.3-1.3c-4.3-0.6-7.4-3.9-8.3-8c-1-4.3-2.4-8.4-3.7-12.7c-1.2-4.2-0.5-8.5,2.8-11.6l5.7-5
	c4.2-3.7,4.4-9.9,1.2-14l-4.8-6.5l-5.1-6.5c-3.2-4.3-9.3-5.1-14.1-2l-6.2,4.4c-3.7,2.6-8.4,2.4-12,0.1c-3.5-2.7-7.4-4.6-11.6-6.5
	c-3.8-1.6-6.3-5.6-5.9-10l0.5-7.3C279.1,161.7,275.1,156.9,269.7,156.6z M254.1,221.4c21.9,2.5,37.6,22.3,35,44.2
	c-2.5,21.9-22.3,37.6-44.2,35c-21.9-2.5-37.6-22.3-35-44.2C212.5,234.6,231.9,218.9,254.1,221.4z"/>
<path class="st0" d="M590.6,556.1v32.3c0,11.4-9.3,20.8-20.8,20.8H259.7c-11.4,0-20.8-9.4-20.8-20.8v-31.3H203v61.1
	c0,14.3,11.7,26,26,26h367.7c14.3,0,26-11.7,26-26v-62.1H590.6z"/>
</svg>
