<?xml version="1.0" encoding="utf-8"?>
<!-- Generator: Adobe Illustrator 22.0.0, SVG Export Plug-In . SVG Version: 6.00 Build 0)  -->
<svg version="1.1" id="图层_1" xmlns="http://www.w3.org/2000/svg" xmlns:xlink="http://www.w3.org/1999/xlink" x="0px" y="0px"
	 viewBox="0 0 800 800" style="enable-background:new 0 0 800 800;" xml:space="preserve">
<style type="text/css">
	.st0{fill:#FFFFFF;}
</style>
<path class="st0" d="M336.3,345.6v28c0,8.8,7,16.5,16.5,17.3l12.8,0.6c7.7,0,13.4,5.1,16,12c2.6,7,5.8,14.1,8.8,21.1
	c3.2,7,2.6,14.7-2.6,20.5l-8.8,9.6c-6.4,7-5.8,17.9,0.6,24.3l10.2,10.2l10.2,10.2c6.4,7,17.3,7,24.3,0.6l9.6-8.8
	c5.8-5.1,14.1-5.8,20.5-2.6c6.4,3.8,13.4,6.4,21.1,8.8c7,1.9,12,8.3,12,16l0.6,12.8c0,8.8,7.7,16.5,17.3,16.5h28
	c8.8,0,16.5-7,17.3-16.5l0.6-12.8c0-7.7,5.1-13.4,12-16c7-2.6,14.1-5.8,21.1-8.8c7-3.2,14.7-2.6,20.5,2.6l9.6,8.8
	c7,6.4,17.9,5.8,24.3-0.6l20.5-20.5c7-6.4,7-17.3,0.6-24.3l-8.8-9.6c-5.1-5.8-5.8-14.1-2.6-20.5c3.8-6.4,6.4-13.4,8.8-21.1
	c1.9-7,8.3-12,16-12l12.8-0.6c8.8,0,16.5-7.7,16.5-17.3v-28.8c0-8.8-7-16.5-16.5-17.3l-12.8-0.6c-7.7,0-13.4-5.1-16-12
	c-2.6-7-5.8-14.1-8.8-21.1c-3.2-7-2.6-14.7,2.6-20.5l8.8-9.6c6.4-7,5.8-17.9-0.6-24.3l-10.2-10.2l-10.2-10.2c-6.4-7-17.3-7-24.3-0.6
	l-9.6,8.8c-5.8,5.1-14.1,5.8-20.5,2.6c-6.4-3.8-13.4-6.4-21.1-8.8c-7-1.9-12-8.3-12-16l-0.6-12.8c0-8.8-7.7-16.5-17.3-16.5h-28
	c-9.6,0-17.3,7.7-17.9,17.3l-0.6,12.8c0,7.7-5.1,13.4-12,16c-7,2.6-14.1,5.8-21.1,9s-14.7,2.6-20.5-2.6l-9.6-8.8
	c-7-6.4-17.9-5.8-24.3,0.6l-10.2,9.6l-10.2,10.2c-7,6.4-7,17.3-0.6,24.3l8.8,9.6c5.1,5.8,5.8,14.1,2.6,20.5
	c-3.8,6.4-6.4,13.4-8.8,21.1c-1.9,7-8.3,12-16,12l-12.8,0.6C343.5,328.3,335.8,336,336.3,345.6z M450.7,359.5
	c0-38.4,30.7-68.8,68.8-68.8c38.4,0,68.8,30.7,68.8,68.8c0,38.4-30.7,68.8-68.8,68.8C481.3,428.5,450.7,397.9,450.7,359.5z"/>
<path class="st0" d="M149,227l-4.1,15.8c-1.2,4.9,1.4,10.3,6.8,12.1l7.1,2.3c4.2,1.1,6.8,4.9,7.1,9.1c0.5,4.3,1.2,8.7,1.9,13.1
	c0.7,4.3-0.7,8.5-4.3,11.1l-6.3,4.2c-4.7,3.1-5.7,9.2-3.1,13.7l4.2,7.1l4.2,7.1c2.5,4.7,8.6,6.4,13.6,3.9l6.7-3.5
	c4-2,8.6-1.2,11.8,1.5c3,3.2,6.6,5.6,10.6,8c3.6,2.1,5.6,6.4,4.4,10.7l-1.5,7.1c-1.2,4.9,1.8,10.3,7.2,11.7l15.8,4.1
	c4.9,1.2,10.3-1.4,12.1-6.8l2.3-7.1c1.1-4.2,4.9-6.8,9.1-7.1c4.3-0.4,8.6-1.2,13.1-1.9c4.3-0.7,8.5,0.7,11.1,4.3l4.2,6.3
	c3.1,4.7,9.2,5.7,13.7,3.1l14.4-8.5c4.7-2.5,6.4-8.6,3.9-13.6l-3.5-6.7c-2-4-1.2-8.6,1.5-11.8c3.2-3,5.6-6.6,8-10.6
	c2.1-3.6,6.4-5.6,10.7-4.4l7.1,1.5c4.9,1.2,10.3-1.8,11.7-7.2l4.2-16.2c1.2-4.9-1.4-10.3-6.8-12.1l-7.1-2.3
	c-4.2-1.1-6.8-4.9-7.1-9.1c-0.5-4.3-1.2-8.6-1.9-13.1c-0.7-4.3,0.7-8.5,4.3-11.1l6.3-4.2c4.7-3.1,5.7-9.2,3.1-13.7l-4.2-7.1
	l-4.2-7.1c-2.5-4.7-8.6-6.4-13.6-3.9l-6.7,3.5c-4,2-8.7,1.2-11.8-1.5c-3-3.2-6.6-5.6-10.6-8c-3.6-2.1-5.6-6.4-4.4-10.7l1.5-7.1
	c1.2-4.9-1.8-10.3-7.2-11.7l-15.8-4.1c-5.3-1.4-10.7,1.8-12.5,7.1l-2.3,7.1c-1.1,4.2-4.9,6.8-9.1,7.1c-4.3,0.5-8.6,1.2-13.1,1.9
	c-4.3,0.7-8.5-0.7-11.1-4.3l-4.2-6.3c-3.1-4.7-9.2-5.7-13.7-3.1l-7.1,3.9l-7.1,4.2c-4.7,2.5-6.4,8.6-3.9,13.6l3.5,6.7
	c2,4,1.2,8.6-1.5,11.8c-3.2,3-5.6,6.6-8,10.6c-2.1,3.6-6.4,5.6-10.7,4.4l-7.1-1.5C155.4,218.5,150,221.8,149,227z M211,251.4
	c5.5-21.4,27.2-34.3,48.6-28.6c21.4,5.5,34.3,27.2,28.6,48.6c-5.5,21.4-27.2,34.3-48.6,28.6C218.4,294.5,205.5,272.9,211,251.4z"/>
<path class="st0" d="M590.6,556.1v32.3c0,11.4-9.3,20.8-20.8,20.8H259.7c-11.4,0-20.8-9.4-20.8-20.8v-31.3H203v61.1
	c0,14.3,11.7,26,26,26h367.7c14.3,0,26-11.7,26-26v-62.1H590.6z"/>
</svg>
