<?xml version="1.0" encoding="utf-8"?>
<!-- Generator: Adobe Illustrator 22.0.0, SVG Export Plug-In . SVG Version: 6.00 Build 0)  -->
<svg version="1.1" id="图层_1" xmlns="http://www.w3.org/2000/svg" xmlns:xlink="http://www.w3.org/1999/xlink" x="0px" y="0px"
	 viewBox="0 0 800 800" style="enable-background:new 0 0 800 800;" xml:space="preserve">
<style type="text/css">
	.st0{fill:#FFFFFF;}
</style>
<path class="st0" d="M335.8,362.1l2.5,27.9c0.8,8.8,8.4,15.8,18,15.7l12.9-0.6c7.7-0.7,13.8,3.9,17,10.5c3.2,6.7,7,13.5,10.7,20.2
	c3.8,6.7,3.9,14.4-0.8,20.7l-7.9,10.4c-5.7,7.6-4.2,18.4,2.7,24.2l11.1,9.2l11.1,9.2c7,6.4,17.8,5.4,24.2-1.6l8.8-9.6
	c5.3-5.6,13.5-7,20.2-4.5c6.7,3.2,13.9,5.2,21.8,6.9c7.1,1.3,12.7,7.2,13.4,14.9l1.8,12.7c0.8,8.8,9.1,15.7,18.7,14.9l27.9-2.5
	c8.8-0.8,15.8-8.4,15.7-18l-0.6-12.9c-0.7-7.7,3.9-13.8,10.5-17c6.7-3.2,13.5-7,20.2-10.7c6.7-3.8,14.4-3.9,20.7,0.8l10.4,7.9
	c7.6,5.7,18.4,4.2,24.2-2.7l18.6-22.3c6.4-7,5.4-17.8-1.6-24.2l-9.6-8.8c-5.6-5.3-7-13.5-4.5-20.2c3.2-6.7,5.2-13.9,6.9-21.8
	c1.3-7.1,7.2-12.7,14.9-13.4l12.7-1.8c8.8-0.8,15.7-9.1,14.9-18.7l-2.6-28.7c-0.8-8.8-8.4-15.8-18-15.7l-12.9,0.6
	c-7.7,0.7-13.8-3.9-17-10.5c-3.2-6.7-7-13.5-10.7-20.2c-3.8-6.7-3.9-14.4,0.8-20.7l7.9-10.4c5.7-7.6,4.2-18.4-2.7-24.2l-11.1-9.2
	l-11.1-9.2c-7-6.4-17.8-5.4-24.2,1.6l-8.8,9.6c-5.3,5.6-13.5,7-20.2,4.5c-6.7-3.2-13.9-5.2-21.8-6.9c-7.1-1.3-12.7-7.2-13.4-14.9
	l-1.8-12.7c-0.8-8.8-9.1-15.7-18.7-14.9l-27.9,2.5c-9.6,0.9-16.5,9.2-16.3,18.8l0.6,12.9c0.7,7.7-3.9,13.8-10.5,17
	c-6.7,3.2-13.5,7-20.2,10.9c-6.7,3.8-14.4,3.9-20.7-0.8l-10.4-7.9c-7.6-5.7-18.4-4.2-24.2,2.7l-9.3,10.5l-9.2,11.1
	c-6.4,7-5.4,17.8,1.6,24.2l9.6,8.8c5.6,5.3,7,13.5,4.5,20.2c-3.2,6.7-5.2,13.9-6.9,21.8c-1.3,7.1-7.2,12.7-14.9,13.4l-12.7,1.8
	C341.5,344.3,334.5,352.6,335.8,362.1z M451,365.7c-3.4-38.3,24.4-71.3,62.3-74.7c38.3-3.4,71.3,24.4,74.7,62.3
	c3.4,38.3-24.4,71.3-62.3,74.7C487.7,431.6,454.5,403.9,451,365.7z"/>
<path class="st0" d="M158.3,206.8l-7.3,14.6c-2.2,4.6-0.7,10.4,4.1,13.2l6.5,3.7c3.9,2,5.7,6.2,5.1,10.4c-0.4,4.3-0.6,8.7-0.9,13.2
	c-0.3,4.4-2.4,8.2-6.5,9.9l-7.1,2.8c-5.2,2-7.5,7.8-5.9,12.7l2.6,7.9l2.6,7.9c1.5,5.2,7.1,8,12.5,6.7l7.3-2.1
	c4.3-1.1,8.6,0.6,11.3,4c2.3,3.7,5.3,6.8,8.7,10c3.1,2.8,4.1,7.4,2.1,11.3l-2.9,6.7c-2.2,4.6-0.3,10.5,4.6,12.9l14.6,7.3
	c4.6,2.2,10.4,0.7,13.2-4.1l3.7-6.5c2-3.9,6.2-5.7,10.4-5.1c4.3,0.5,8.6,0.6,13.2,0.9c4.4,0.3,8.2,2.4,9.9,6.5l2.8,7.1
	c2,5.2,7.8,7.5,12.7,5.9l15.8-5.4c5.2-1.5,8-7.1,6.7-12.5l-2.1-7.3c-1.1-4.3,0.6-8.6,4-11.3c3.7-2.3,6.8-5.3,10-8.7
	c2.8-3.1,7.4-4.1,11.3-2.1l6.7,2.9c4.6,2.2,10.5,0.3,12.9-4.6l7.5-15c2.2-4.6,0.7-10.4-4.1-13.2l-6.5-3.7c-3.9-2-5.7-6.2-5.1-10.4
	c0.4-4.3,0.6-8.6,0.9-13.2c0.3-4.4,2.4-8.2,6.5-9.9l7.1-2.8c5.2-2,7.5-7.8,5.9-12.7l-2.6-7.9l-2.6-7.9c-1.5-5.2-7.1-8-12.5-6.7
	l-7.3,2.1c-4.3,1.1-8.7-0.6-11.3-4c-2.3-3.7-5.3-6.8-8.7-10c-3.1-2.8-4.1-7.4-2.1-11.3l2.9-6.7c2.2-4.6,0.3-10.5-4.6-12.9l-14.6-7.3
	c-4.9-2.5-10.9-0.4-13.7,4.4l-3.7,6.5c-2,3.9-6.2,5.7-10.4,5.1c-4.3-0.4-8.6-0.6-13.2-0.9c-4.4-0.3-8.2-2.4-9.9-6.5l-2.8-7.1
	c-2-5.2-7.8-7.5-12.7-5.9l-7.8,2.4l-7.9,2.6c-5.2,1.5-8,7.1-6.7,12.5l2.1,7.3c1.1,4.3-0.6,8.6-4,11.3c-3.7,2.3-6.8,5.3-10,8.7
	c-2.8,3.1-7.4,4.1-11.3,2.1l-6.7-2.9C166.3,199.7,160.3,201.9,158.3,206.8z M213.8,243.5c9.8-19.8,33.7-27.9,53.5-17.9
	c19.8,9.8,27.9,33.7,17.9,53.5c-9.8,19.8-33.7,27.9-53.5,17.9C212.1,287.2,204,263.5,213.8,243.5z"/>
<path class="st0" d="M590.6,556.1v32.3c0,11.4-9.3,20.8-20.8,20.8H259.7c-11.4,0-20.8-9.4-20.8-20.8v-31.3H203v61.1
	c0,14.3,11.7,26,26,26h367.7c14.3,0,26-11.7,26-26v-62.1H590.6z"/>
</svg>
