<?xml version="1.0" encoding="utf-8"?>
<!-- Generator: Adobe Illustrator 22.0.0, SVG Export Plug-In . SVG Version: 6.00 Build 0)  -->
<svg version="1.1" id="图层_1" xmlns="http://www.w3.org/2000/svg" xmlns:xlink="http://www.w3.org/1999/xlink" x="0px" y="0px"
	 viewBox="0 0 800 800" style="enable-background:new 0 0 800 800;" xml:space="preserve">
<style type="text/css">
	.st0{fill:#FFFFFF;}
</style>
<path class="st0" d="M343.3,411.1l9.9,26.2c3.1,8.2,12.3,12.9,21.6,10.4l12.2-4c7.2-2.7,14.4,0.1,19.2,5.6
	c4.9,5.7,10.4,11.1,15.7,16.6c5.5,5.4,7.6,12.8,4.8,20.1l-4.9,12.1c-3.5,8.8,0.9,18.7,9.2,22.5l13.1,6l13.1,6c8.5,4.3,18.6,0.4,23-8
	l5.8-11.6c3.6-6.8,11.1-10.4,18.3-9.6c7.3,1.3,14.7,1.3,22.8,0.8c7.2-0.7,14.1,3.5,16.8,10.7l5.1,11.8c3.1,8.2,13,12.7,22,9.4
	l26.2-9.9c8.2-3.1,12.9-12.3,10.4-21.6l-4-12.2c-2.7-7.2,0.1-14.4,5.6-19.2c5.7-4.9,11.1-10.4,16.6-15.7c5.4-5.5,12.8-7.6,20.1-4.8
	l12.1,4.9c8.8,3.5,18.7-0.9,22.5-9.2l12-26.5c4.3-8.5,0.4-18.6-8-23l-11.6-5.8c-6.8-3.6-10.4-11.1-9.6-18.3
	c1.3-7.3,1.3-14.7,0.8-22.8c-0.7-7.2,3.5-14.1,10.7-16.8l11.8-5.1c8.2-3.1,12.7-13,9.4-22l-10.2-27c-3.1-8.2-12.3-12.9-21.6-10.4
	l-12.2,4c-7.2,2.7-14.4-0.1-19.2-5.6c-4.9-5.7-10.4-11.1-15.7-16.6c-5.5-5.4-7.6-12.8-4.8-20.1l4.9-12.1c3.5-8.8-0.9-18.7-9.2-22.5
	l-13.1-6l-13.1-6c-8.5-4.3-18.6-0.4-23,8l-5.8,11.6c-3.6,6.8-11.1,10.4-18.3,9.6c-7.3-1.3-14.7-1.3-22.8-0.8
	c-7.2,0.7-14.1-3.5-16.8-10.7l-5.1-11.8c-3.1-8.2-13-12.7-22-9.4l-26.2,9.9c-9,3.4-13.5,13.3-10.7,22.5l4,12.2
	c2.7,7.2-0.1,14.4-5.6,19.2c-5.7,4.9-11.1,10.4-16.5,15.8s-12.8,7.6-20.1,4.8l-12.1-4.9c-8.8-3.5-18.7,0.9-22.5,9.2l-6.1,12.6
	l-6,13.1c-4.3,8.5-0.4,18.6,8,23l11.6,5.8c6.8,3.6,10.4,11.1,9.6,18.3c-1.3,7.3-1.3,14.7-0.8,22.8c0.7,7.2-3.5,14.1-10.7,16.8
	l-11.8,5.1C343.9,392.2,339.5,402.2,343.3,411.1z M455.2,383.7c-13.5-35.9,4.5-75.2,40.2-88.6c35.9-13.5,75.2,4.5,88.6,40.2
	c13.5,35.9-4.5,75.2-40.2,88.6C508.2,437.5,468.7,419.6,455.2,383.7z"/>
<path class="st0" d="M202,166l-14,8.4c-4.3,2.7-6.2,8.3-3.7,13.3l3.5,6.6c2.2,3.8,1.5,8.3-1.3,11.4c-2.7,3.4-5.2,7.1-7.9,10.6
	c-2.6,3.5-6.4,5.6-10.9,4.9l-7.4-1.5c-5.5-1.1-10.5,2.5-11.8,7.5l-2,8l-2,8c-1.6,5.2,1.6,10.6,6.9,12.3l7.2,2.2
	c4.2,1.4,7,5.1,7.4,9.4c-0.1,4.4,0.8,8.6,2,13.1c1.1,4-0.5,8.4-4.3,10.7l-6.1,4c-4.3,2.7-5.9,8.6-3.1,13.4l8.4,14
	c2.7,4.3,8.3,6.2,13.3,3.7l6.6-3.5c3.8-2.2,8.3-1.5,11.4,1.3c3.4,2.7,7,5.1,10.6,7.9c3.5,2.6,5.6,6.4,4.9,10.9l-1.5,7.4
	c-1.1,5.5,2.5,10.5,7.5,11.8l16.2,4.1c5.2,1.6,10.6-1.6,12.3-6.9l2.2-7.2c1.4-4.2,5.1-7,9.4-7.4c4.4,0.1,8.6-0.8,13.1-2
	c4-1.1,8.4,0.5,10.7,4.3l4,6.1c2.7,4.3,8.6,5.9,13.4,3.1l14.4-8.6c4.3-2.7,6.2-8.3,3.7-13.3l-3.5-6.6c-2.2-3.8-1.5-8.3,1.3-11.4
	c2.7-3.4,5.1-7,7.9-10.6c2.6-3.5,6.4-5.6,10.9-4.9l7.4,1.5c5.5,1.1,10.5-2.5,11.8-7.5l2-8l2-8c1.6-5.2-1.6-10.6-6.9-12.3l-7.2-2.2
	c-4.2-1.4-7.1-5.2-7.4-9.4c0.1-4.4-0.8-8.6-2-13.1c-1.1-4,0.5-8.4,4.3-10.7l6.1-4c4.3-2.7,5.9-8.6,3.1-13.4l-8.4-14
	c-2.8-4.8-8.9-6.3-13.9-3.7l-6.6,3.5c-3.8,2.2-8.3,1.5-11.4-1.3c-3.4-2.7-7-5.1-10.6-7.9c-3.5-2.6-5.6-6.4-4.9-10.9l1.5-7.4
	c1.1-5.5-2.5-10.5-7.5-11.8l-7.8-2.2l-8-2c-5.2-1.6-10.6,1.6-12.3,6.9l-2.2,7.2c-1.4,4.2-5.1,7-9.4,7.4c-4.4-0.1-8.6,0.8-13.1,2
	c-4,1.1-8.4-0.5-10.7-4.3l-4-6.1C212.6,164.4,206.4,163,202,166z M228.9,227c18.9-11.4,43.5-5.4,54.7,13.8
	c11.4,18.9,5.4,43.5-13.8,54.7c-18.9,11.4-43.5,5.4-54.7-13.8C204,262.8,209.9,238.4,228.9,227z"/>
<path class="st0" d="M590.6,556.1v32.3c0,11.4-9.3,20.8-20.8,20.8H259.7c-11.4,0-20.8-9.4-20.8-20.8v-31.3H203v61.1
	c0,14.3,11.7,26,26,26h367.7c14.3,0,26-11.7,26-26v-62.1H590.6z"/>
</svg>
