<svg xmlns="http://www.w3.org/2000/svg" viewBox="0 0 476.36 340.16"><title>0628</title><g id="图层_2" data-name="图层 2"><g id="图层_1-2" data-name="图层 1"><g id="_编组_" data-name="&lt;编组&gt;"><g id="_编组_2" data-name="&lt;编组&gt;"><g id="_编组_3" data-name="&lt;编组&gt;"><path id="_复合路径_" data-name="&lt;复合路径&gt;" d="M107.31,325.19l-.6,1.52h15.21v2.71h-.09l.09,0a15.57,15.57,0,0,1-5.09,6.7,14,14,0,0,0,2.68.71,27.82,27.82,0,0,0,3.1.33V340a26.66,26.66,0,0,1-5-.43,14.82,14.82,0,0,1-4.24-1.48,22.81,22.81,0,0,1-3.87,1.28,32.71,32.71,0,0,1-4.43.75V337c1-.14,1.85-.3,2.69-.49a23.28,23.28,0,0,0,2.4-.67,24.84,24.84,0,0,1-4.29-5.38H110a15.86,15.86,0,0,0,3.48,3.8,11.45,11.45,0,0,0,2.44-2.05,13.25,13.25,0,0,0,1.91-2.8l0,0-12.18,0L101.54,340l-4,.18,5.86-14.94H97.76l2.17-6.55h3.69l-1.19,3.63h2.08l1.43-3.63,4-.15-1.49,3.78h9.4l-1-2.92h3.93l2.06,5.84H107.31Z" style="fill:#727171"/><path id="_复合路径_2" data-name="&lt;复合路径&gt;" d="M160.6,318.55h11.25v18.18a3.18,3.18,0,0,1-.26,1.28,3.1,3.1,0,0,1-1.74,1.74,3.11,3.11,0,0,1-1.25.26h-8Zm3.48,2.92v5.38h4.31v-5.38Zm4.31,8.3h-4.31v7.29h3.36a.93.93,0,0,0,.69-.27.85.85,0,0,0,.26-.65Zm18.37,7a3,3,0,0,1-.27,1.28,3.67,3.67,0,0,1-.71,1.05,3.25,3.25,0,0,1-1.05.69,3.11,3.11,0,0,1-1.25.26H180.6l1-2.95H182a.89.89,0,0,0,.65-.27.86.86,0,0,0,.27-.65v-2.08h-5.66v6.07h-4.13l0-3.84V318.52h10.8a2.57,2.57,0,0,1,1.09.23,2.78,2.78,0,0,1,.9.6,3,3,0,0,1,.62.91,2.91,2.91,0,0,1,.22,1.09Zm-9.47-15.26v3.33H183v-2.38a.91.91,0,0,0-.27-.68.89.89,0,0,0-.65-.27Zm5.66,9.67v-3.39h-5.66v3.39Z" style="fill:#727171"/><path id="_复合路径_3" data-name="&lt;复合路径&gt;" d="M224.54,331.35l3.21-4.68h-2.94v-2.91H236V322.3H225.82v-2.91H236v-.81h4.14v.81h9.91v2.91h-9.91v1.46h6.75l.42-1h3.21l-.41,1H251v2.91H231.92l-.92,1.41h18.51v8.71a3.13,3.13,0,0,1-.25,1.27,3.23,3.23,0,0,1-1.74,1.72,3.25,3.25,0,0,1-1.28.26H227.16v-8.69Zm6.76-.36v1.52h14.1V331Zm14.1,4.44H231.3v1.69h13.15a1,1,0,0,0,1-.95Z" style="fill:#727171"/><path id="_复合路径_4" data-name="&lt;复合路径&gt;" d="M314.91,327.78H288.75v-1.91h26.16Zm0,12.29H288.75v-2h11v-.56H289.29V335.6h10.47V335H289.17v-6.82h25.3v4a2.67,2.67,0,0,1-.23,1.1,2.81,2.81,0,0,1-2.57,1.7H303.9v.56h10.48v1.94H303.9v.56h11Zm-21.63-21.49h21.16v4a2.67,2.67,0,0,1-.23,1.1,3,3,0,0,1-.59.88,2.81,2.81,0,0,1-.9.59,2.69,2.69,0,0,1-1.08.23h-22.5v-6.82h4.14Zm0,1.69v1.07h17v-1.07Zm17,2.49h-17v.95h16.36C310,323.71,310.3,323.11,310.3,322.76Zm-17,7.21v.86h6.45V330Zm6.45,3.32v-.89h-6.45v.89Zm10.6-3.32H303.9v.86h6.46Zm-.66,3.32c.38,0,.59-.51.63-.89H303.9v.89Z" style="fill:#727171"/><path id="_复合路径_5" data-name="&lt;复合路径&gt;" d="M355.17,326.91h-2.48l3.7-8.3h4.46l-2.47,5.51h.86V340h-4.07Zm14.22-8.3v7.17l8.3-2.59v3.31l-8.3,2.59v7.5a.63.63,0,0,0,.19.46.68.68,0,0,0,.5.19h8.75L377.78,340h-9.52a2.87,2.87,0,0,1-2.86-2.86v-6.84l-4.73,1.48v-3.3L365.4,327v-8.42Z" style="fill:#727171"/><g id="_编组_4" data-name="&lt;编组&gt;"><rect id="_路径_" data-name="&lt;路径&gt;" x="140.89" y="318.49" width="1.63" height="21.67" style="fill:#727171"/></g><g id="_编组_5" data-name="&lt;编组&gt;"><rect id="_路径_2" data-name="&lt;路径&gt;" x="204.84" y="318.49" width="1.62" height="21.67" style="fill:#727171"/></g><g id="_编组_6" data-name="&lt;编组&gt;"><rect id="_路径_3" data-name="&lt;路径&gt;" x="269.05" y="318.49" width="1.62" height="21.67" style="fill:#727171"/></g><g id="_编组_7" data-name="&lt;编组&gt;"><rect id="_路径_4" data-name="&lt;路径&gt;" x="332.99" y="318.49" width="1.62" height="21.67" style="fill:#727171"/></g></g><g id="_编组_8" data-name="&lt;编组&gt;"><g id="_编组_9" data-name="&lt;编组&gt;"><g id="_编组_10" data-name="&lt;编组&gt;"><polygon id="_路径_5" data-name="&lt;路径&gt;" points="93.93 256.48 84.68 281.17 75.05 256.48 93.93 256.48" style="fill:#ee780c"/></g></g><path id="_路径_6" data-name="&lt;路径&gt;" d="M48.6,264.87v-8.39H20.53A20.53,20.53,0,0,0,0,277H0v28.79H12.76V285.33H48.6v-8.4H12.46a12.07,12.07,0,0,1,12.07-12.06Z" style="fill:#727171"/><path id="_复合路径_6" data-name="&lt;复合路径&gt;" d="M117.42,305.79h-11.2V268.12L91.53,305.79H78.17L63,267.27v38.52H52.2V256.48H69.56l15.21,39,14.62-39h18Z" style="fill:#727171"/><path id="_复合路径_7" data-name="&lt;复合路径&gt;" d="M175.26,305.79H122.58v-8.47l35-31.32H122.21v-9.52h52.9v10.07L140.69,297.4h34.57Z" style="fill:#727171"/></g><g id="_编组_11" data-name="&lt;编组&gt;"><path id="_复合路径_8" data-name="&lt;复合路径&gt;" d="M421.75,305.79H405.28L380.2,269.32v36.47H367.81V256.48H384.5l24.64,37v-37h12.61Z" style="fill:#0091db"/><path id="_复合路径_9" data-name="&lt;复合路径&gt;" d="M476.36,264.87H457v41.06H445V264.87H425.9v-8.39h50.46Z" style="fill:#0091db"/><g id="_编组_12" data-name="&lt;编组&gt;"><polygon id="_路径_7" data-name="&lt;路径&gt;" points="335.3 283.86 325.75 305.79 345.07 305.79 335.3 283.86" style="fill:#ee780c"/><polygon id="_路径_8" data-name="&lt;路径&gt;" points="341.32 256.48 328.64 256.48 307.34 305.79 320.18 305.79 335.24 271.17 350.68 305.79 350.68 305.79 363.66 305.79 341.32 256.48" style="fill:#0091db"/></g><path id="_路径_9" data-name="&lt;路径&gt;" d="M295,256.48v29.1c0,7.19-5.83,11.74-13,11.74h0c-7.19,0-13-4.55-13-11.74v-29.1H255.8v27.87c0,14.06,10.94,20.92,25,21.42,14.75.53,26.88-6.16,26.88-20.8V256.48Z" style="fill:#0091db"/><path id="_复合路径_10" data-name="&lt;复合路径&gt;" d="M252.29,281.13c0-14.12-12.58-25.57-28.1-25.57s-28.1,11.45-28.1,25.57,12.58,25.57,28.1,25.57a30.18,30.18,0,0,0,13.6-3.19l1.37,3.19h13.13l-6.23-9.51A24.08,24.08,0,0,0,252.29,281.13Zm-43.4,0c0-8.94,6.85-16.19,15.3-16.19s15.3,7.25,15.3,16.19-6.85,16.19-15.3,16.19S208.89,290.08,208.89,281.13Z" style="fill:#0091db"/></g></g><g id="_编组_13" data-name="&lt;编组&gt;"><g id="_编组_14" data-name="&lt;编组&gt;"><polygon id="_路径_10" data-name="&lt;路径&gt;" points="341.37 57.73 241.38 0 241.38 115.28 267.6 130.42 267.6 44.72 277.29 50.31 277.29 136.01 305.47 152.28 305.47 66.58 315.15 72.18 315.15 157.88 341.37 173.01 341.37 57.73" style="fill:#727171"/></g><polygon id="_路径_11" data-name="&lt;路径&gt;" points="276.32 142.85 265.14 179.96 277.24 172.97 287.07 178.64 246.28 202.2 265.97 136.88 238.18 120.83 138.04 178.64 200.88 214.93 212.25 177.23 199.65 184.51 189.28 178.64 230.08 155.09 210.39 220.41 238.18 236.46 338.31 178.64 276.32 142.85" style="fill:#0091db"/><polygon id="_路径_12" data-name="&lt;路径&gt;" points="234.98 33.6 234.98 0 134.99 57.73 134.99 173.01 171.48 151.94 171.48 127.23 234.98 90.57 234.98 58.48 171.48 95.14 171.48 70.26 234.98 33.6" style="fill:#ee780c"/></g></g></g></g></svg>