<svg xmlns="http://www.w3.org/2000/svg" viewBox="0 0 121.34 139.03"><defs><style>.cls-1{fill:#727171;}.cls-2{fill:#0091db;}.cls-3{fill:#ee780c;}</style></defs><title>logo</title><g id="图层_2" data-name="图层 2"><g id="图层_1-2" data-name="图层 1"><g id="_编组_" data-name="&lt;编组&gt;"><g id="_编组_2" data-name="&lt;编组&gt;"><g id="_编组_3" data-name="&lt;编组&gt;"><polygon id="_路径_" data-name="&lt;路径&gt;" class="cls-1" points="121.34 33.94 62.56 0 62.56 67.78 77.97 76.68 77.97 26.3 83.67 29.58 83.67 79.97 100.23 89.54 100.23 39.15 105.93 42.44 105.93 92.83 121.34 101.72 121.34 33.94"/></g><polygon id="_路径_2" data-name="&lt;路径&gt;" class="cls-2" points="83.1 83.99 76.52 105.81 83.64 101.7 89.42 105.04 65.44 118.88 77.01 80.48 60.67 71.05 1.8 105.04 38.74 126.37 45.42 104.21 38.02 108.48 31.93 105.04 55.91 91.19 44.33 129.6 60.67 139.03 119.55 105.04 83.1 83.99"/><polygon id="_路径_3" data-name="&lt;路径&gt;" class="cls-3" points="58.79 19.75 58.79 0 0 33.94 0 101.72 21.46 89.34 21.46 74.81 58.79 53.25 58.79 34.38 21.46 55.94 21.46 41.31 58.79 19.75"/></g></g></g></g></svg>