<?xml version="1.0" encoding="utf-8"?>
<!-- Generator: Adobe Illustrator 22.0.0, SVG Export Plug-In . SVG Version: 6.00 Build 0)  -->
<svg version="1.1" id="图层_1" xmlns="http://www.w3.org/2000/svg" xmlns:xlink="http://www.w3.org/1999/xlink" x="0px" y="0px"
	 viewBox="0 0 800 800" style="enable-background:new 0 0 800 800;" xml:space="preserve">
<style type="text/css">
	.st0{fill:#A1ACEE;}
</style>
<g>
	<path class="st0" d="M590.1,556.1v32.3c0,11.4-9.3,20.8-20.8,20.8H259.2c-11.4,0-20.8-9.4-20.8-20.8v-31.3h-35.9v61.1
		c0,14.3,11.7,26,26,26h367.7c14.3,0,26-11.7,26-26v-62.1H590.1z"/>
	<path class="st0" d="M347.4,267.3l-7.1-2.3c-4.2-1.1-6.8-4.9-7.1-9.1c-0.5-4.3-1.2-8.6-1.9-13.1c-0.7-4.3,0.7-8.5,4.3-11.1l6.3-4.2
		c4.7-3.1,5.7-9.2,3.1-13.7l-4.2-7.1l-4.2-7.1c-2.5-4.7-8.6-6.4-13.6-3.9l-6.7,3.5c-4,2-8.7,1.2-11.8-1.5c-3-3.2-6.6-5.6-10.6-8
		c-3.6-2.1-5.6-6.4-4.4-10.7l1.5-7.1c1.2-4.9-1.8-10.3-7.2-11.7l-15.8-4.1c-5.3-1.4-10.7,1.8-12.5,7.1l-2.3,7.1
		c-1.1,4.2-4.9,6.8-9.1,7.1c-4.3,0.5-8.6,1.2-13.1,1.9c-4.3,0.7-8.5-0.7-11.1-4.3l-4.2-6.3c-3.1-4.7-9.2-5.7-13.7-3.1l-7.1,3.9
		l-7.1,4.2c-4.7,2.5-6.4,8.6-3.9,13.6l3.5,6.7c2,4,1.2,8.6-1.5,11.8c-3.2,3-5.6,6.6-8,10.6c-2.1,3.6-6.4,5.6-10.7,4.4l-7.1-1.5
		c-5.2-0.8-10.6,2.5-11.6,7.7l-4.1,15.8c-1.2,4.9,1.4,10.3,6.8,12.1l7.1,2.3c4.2,1.1,6.8,4.9,7.1,9.1c0.5,4.3,1.2,8.7,1.9,13.1
		c0.7,4.3-0.7,8.5-4.3,11.1l-6.3,4.2c-4.7,3.1-5.7,9.2-3.1,13.7l4.2,7.1l4.2,7.1c2.5,4.7,8.6,6.4,13.6,3.9l6.7-3.5
		c4-2,8.6-1.2,11.8,1.5c3,3.2,6.6,5.6,10.6,8c3.6,2.1,5.6,6.4,4.4,10.7l-1.5,7.1c-1.2,4.9,1.8,10.3,7.2,11.7l15.8,4.1
		c4.9,1.2,10.3-1.4,12.1-6.8l2.3-7.1c1.1-4.2,4.9-6.8,9.1-7.1c4.3-0.4,8.6-1.2,13.1-1.9c4.3-0.7,8.5,0.7,11.1,4.3l4.2,6.3
		c3.1,4.7,9.2,5.7,13.7,3.1l14.4-8.5c4.7-2.5,6.4-8.6,3.9-13.6l-3.5-6.7c-2-4-1.2-8.6,1.5-11.8c3.2-3,5.6-6.6,8-10.6
		c2.1-3.6,6.4-5.6,10.7-4.4l7.1,1.5c4.9,1.2,10.3-1.8,11.7-7.2l4.2-16.2C355.4,274.5,352.8,269.1,347.4,267.3z M249.3,320.7
		c-32.8,0-59.3-26.6-59.3-59.3c0-32.8,26.6-59.3,59.3-59.3c32.8,0,59.3,26.6,59.3,59.3C308.7,294.1,282.1,320.7,249.3,320.7z"/>
	<circle class="st0" cx="248.7" cy="261" r="18.8"/>
	<circle class="st0" cx="519" cy="359.5" r="37.8"/>
	<path class="st0" d="M685.6,327.4l-12.8-0.6c-7.7,0-13.4-5.1-16-12c-2.6-7-5.8-14.1-8.8-21.1c-3.2-7-2.6-14.7,2.6-20.5l8.8-9.6
		c6.4-7,5.8-17.9-0.6-24.3l-10.2-10.2l-10.2-10.2c-6.4-7-17.3-7-24.3-0.6l-9.6,8.8c-5.8,5.1-14.1,5.8-20.5,2.6
		c-6.4-3.8-13.4-6.4-21.1-8.8c-7-1.9-12-8.3-12-16l-0.6-12.8c0-8.8-7.7-16.5-17.3-16.5h-28c-9.6,0-17.3,7.7-17.9,17.3l-0.6,12.8
		c0,7.7-5.1,13.4-12,16c-7,2.6-14.1,5.8-21.1,9c-7,3.2-14.7,2.6-20.5-2.6l-9.6-8.8c-7-6.4-17.9-5.8-24.3,0.6l-10.2,9.6l-10.2,10.2
		c-7,6.4-7,17.3-0.6,24.3l8.8,9.6c5.1,5.8,5.8,14.1,2.6,20.5c-3.8,6.4-6.4,13.4-8.8,21.1c-1.9,7-8.3,12-16,12l-12.8,0.6
		c-8.8,0.5-16.5,8.2-16,17.8v28c0,8.8,7,16.5,16.5,17.3l12.8,0.6c7.7,0,13.4,5.1,16,12c2.6,7,5.8,14.1,8.8,21.1
		c3.2,7,2.6,14.7-2.6,20.5l-8.8,9.6c-6.4,7-5.8,17.9,0.6,24.3l10.2,10.2l10.2,10.2c6.4,7,17.3,7,24.3,0.6l9.6-8.8
		c5.8-5.1,14.1-5.8,20.5-2.6c6.4,3.8,13.4,6.4,21.1,8.8c7,1.9,12,8.3,12,16l0.6,12.8c0,8.8,7.7,16.5,17.3,16.5h28
		c8.8,0,16.5-7,17.3-16.5l0.6-12.8c0-7.7,5.1-13.4,12-16c7-2.6,14.1-5.8,21.1-8.8c7-3.2,14.7-2.6,20.5,2.6l9.6,8.8
		c7,6.4,17.9,5.8,24.3-0.6l20.5-20.5c7-6.4,7-17.3,0.6-24.3l-8.8-9.6c-5.1-5.8-5.8-14.1-2.6-20.5c3.8-6.4,6.4-13.4,8.8-21.1
		c1.9-7,8.3-12,16-12l12.8-0.6c8.8,0,16.5-7.7,16.5-17.3v-28.8C702.1,335.9,695.1,328.2,685.6,327.4z M518.7,467.1
		c-59,0-106.9-47.8-106.9-106.9s47.8-106.9,106.9-106.9c59,0,106.9,47.8,106.9,106.9S577.7,467.1,518.7,467.1z"/>
</g>
</svg>
