<?xml version="1.0" encoding="utf-8"?>
<!-- Generator: Adobe Illustrator 22.0.0, SVG Export Plug-In . SVG Version: 6.00 Build 0)  -->
<svg version="1.1" id="图层_1" xmlns="http://www.w3.org/2000/svg" xmlns:xlink="http://www.w3.org/1999/xlink" x="0px" y="0px"
	 viewBox="0 0 800 800" style="enable-background:new 0 0 800 800;" xml:space="preserve">
<style type="text/css">
	.st0{fill:#A1ACEE;}
</style>
<path class="st0" d="M590.1,556.1v32.3c0,11.4-9.3,20.8-20.8,20.8H259.2c-11.4,0-20.8-9.4-20.8-20.8v-31.3h-35.9v61.1
	c0,14.3,11.7,26,26,26h367.7c14.3,0,26-11.7,26-26v-62.1H590.1z"/>
<path class="st0" d="M344.1,286.9l-6.5-3.7c-3.9-1.9-5.7-6.2-5.1-10.3c0.4-4.3,0.6-8.7,0.8-13.2c0.2-4.4,2.4-8.2,6.4-10l7-2.8
	c5.2-2.1,7.4-7.9,5.8-12.8l-2.7-7.8l-2.7-7.8c-1.5-5.1-7.1-8-12.5-6.6l-7.3,2.1c-4.3,1.2-8.8-0.6-11.3-3.8c-2.3-3.7-5.3-6.8-8.8-10
	c-3.1-2.8-4.2-7.4-2.2-11.4l2.9-6.7c2.2-4.6,0.3-10.5-4.7-12.9l-14.7-7.2c-4.9-2.4-10.8-0.4-13.7,4.4l-3.7,6.5
	c-1.9,3.9-6.2,5.7-10.3,5.1c-4.3-0.4-8.7-0.6-13.2-0.8c-4.4-0.2-8.2-2.4-10-6.4l-2.8-7c-2.1-5.2-7.9-7.4-12.8-5.8l-7.7,2.4l-7.8,2.7
	c-5.1,1.5-8,7.1-6.6,12.5l2.1,7.3c1.2,4.3-0.6,8.7-3.8,11.3c-3.7,2.3-6.8,5.3-10,8.8c-2.8,3.1-7.4,4.2-11.4,2.2l-6.7-2.9
	c-4.9-1.8-10.9,0.3-12.9,5.2l-7.2,14.7c-2.2,4.6-0.7,10.4,4.2,13.2l6.5,3.7c3.9,1.9,5.7,6.2,5.1,10.3c-0.4,4.3-0.6,8.8-0.8,13.2
	c-0.2,4.4-2.4,8.2-6.4,10l-7,2.8c-5.2,2.1-7.4,7.9-5.8,12.8l2.7,7.8l2.7,7.8c1.5,5.1,7.1,8,12.5,6.6l7.3-2.1
	c4.3-1.2,8.7,0.6,11.3,3.8c2.3,3.7,5.3,6.8,8.8,10c3.1,2.8,4.2,7.4,2.2,11.4l-2.9,6.7c-2.2,4.6-0.3,10.5,4.7,12.9l14.7,7.2
	c4.6,2.2,10.4,0.7,13.2-4.2l3.7-6.5c1.9-3.9,6.2-5.7,10.3-5.1c4.3,0.5,8.7,0.6,13.2,0.8c4.4,0.2,8.2,2.4,10,6.4l2.8,7
	c2.1,5.2,7.9,7.4,12.8,5.8l15.8-5.4c5.1-1.5,8-7.1,6.6-12.5l-2.1-7.3c-1.2-4.3,0.6-8.7,3.8-11.3c3.7-2.3,6.8-5.3,10-8.8
	c2.8-3.1,7.4-4.2,11.4-2.2l6.7,2.9c4.6,2.2,10.5,0.3,12.9-4.7l7.4-15C350.5,295.5,349.1,289.7,344.1,286.9z M237.4,319.5
	c-32.1-6.6-52.8-37.9-46.2-70c6.6-32.1,37.9-52.8,70-46.2c32.1,6.6,52.8,37.9,46.2,70C300.8,305.4,269.5,326.1,237.4,319.5z"/>
<circle class="st0" cx="248.7" cy="261" r="18.8"/>
<circle class="st0" cx="519" cy="359.5" r="37.8"/>
<path class="st0" d="M682.1,312.8l-12.8,0.5c-7.7,0.7-13.8-3.9-17-10.5c-3.2-6.7-7-13.5-10.6-20.2c-3.8-6.7-3.9-14.4,0.8-20.6
	l7.9-10.3c5.8-7.5,4.2-18.3-2.7-24.2l-11.1-9.3l-11.1-9.3c-7-6.4-17.8-5.4-24.3,1.5l-8.8,9.6c-5.3,5.6-13.5,7-20.2,4.4
	c-6.7-3.2-13.9-5.2-21.8-6.9c-7.1-1.3-12.7-7.2-13.4-14.9l-1.7-12.7c-0.8-8.8-9.1-15.8-18.7-14.9l-27.9,2.5
	c-9.6,0.8-16.6,9.2-16.3,18.8l0.5,12.8c0.7,7.7-3.9,13.8-10.5,17c-6.7,3.2-13.5,7-20.2,10.8c-6.7,3.8-14.4,3.9-20.6-0.8l-10.3-7.9
	c-7.5-5.8-18.3-4.2-24.2,2.7l-9.3,10.5l-9.3,11.1c-6.4,7-5.4,17.8,1.5,24.3l9.6,8.8c5.6,5.3,7,13.5,4.4,20.2
	c-3.2,6.7-5.2,13.9-6.9,21.8c-1.3,7.1-7.2,12.7-14.9,13.4l-12.7,1.7c-8.7,1.3-15.7,9.6-14.4,19.1l2.5,27.9c0.8,8.8,8.4,15.8,18,15.8
	l12.8-0.5c7.7-0.7,13.8,3.9,17,10.5c3.2,6.7,7,13.5,10.6,20.2c3.8,6.7,3.9,14.4-0.8,20.6l-7.9,10.3c-5.8,7.5-4.2,18.3,2.7,24.2
	l11.1,9.3l11.1,9.3c7,6.4,17.8,5.4,24.3-1.5l8.8-9.6c5.3-5.6,13.5-7,20.2-4.4c6.7,3.2,13.9,5.2,21.8,6.9c7.1,1.3,12.7,7.2,13.4,14.9
	l1.7,12.7c0.8,8.8,9.1,15.8,18.7,14.9l27.9-2.5c8.8-0.8,15.8-8.4,15.8-18l-0.5-12.8c-0.7-7.7,3.9-13.8,10.5-17
	c6.7-3.2,13.5-7,20.2-10.6c6.7-3.8,14.4-3.9,20.6,0.8l10.3,7.9c7.5,5.8,18.3,4.2,24.2-2.7l18.6-22.2c6.4-7,5.4-17.8-1.5-24.3
	l-9.6-8.8c-5.6-5.3-7-13.5-4.4-20.2c3.2-6.7,5.2-13.9,6.9-21.8c1.3-7.1,7.2-12.7,14.9-13.4l12.7-1.7c8.8-0.8,15.8-9.1,14.9-18.7
	l-2.5-28.7C699.3,319.9,691.7,312.8,682.1,312.8z M528.2,466.7c-58.8,5.2-110.7-38.2-115.9-97c-5.2-58.8,38.2-110.7,97-115.9
	c58.8-5.2,110.7,38.2,115.9,97S587,461.5,528.2,466.7z"/>
</svg>
