<?xml version="1.0" encoding="utf-8"?>
<!-- Generator: Adobe Illustrator 22.0.0, SVG Export Plug-In . SVG Version: 6.00 Build 0)  -->
<svg version="1.1" id="图层_1" xmlns="http://www.w3.org/2000/svg" xmlns:xlink="http://www.w3.org/1999/xlink" x="0px" y="0px"
	 viewBox="0 0 800 800" style="enable-background:new 0 0 800 800;" xml:space="preserve">
<style type="text/css">
	.st0{fill:#A1ACEE;}
</style>
<path class="st0" d="M590.1,556.1v32.3c0,11.4-9.3,20.8-20.8,20.8H259.2c-11.4,0-20.8-9.4-20.8-20.8v-31.3h-35.9v61.1
	c0,14.3,11.7,26,26,26h367.7c14.3,0,26-11.7,26-26v-62.1H590.1z"/>
<path class="st0" d="M335.4,308.6l-5.4-5.1c-3.3-2.8-4.1-7.3-2.5-11.3c1.4-4.1,2.6-8.3,3.9-12.7c1.2-4.2,4.3-7.4,8.6-8.2l7.5-1.1
	c5.6-0.8,9.1-5.9,8.6-11.1l-0.8-8.2l-0.8-8.2c-0.3-5.3-5-9.5-10.6-9.3l-7.6,0.3c-4.5,0.1-8.4-2.6-10-6.4c-1.3-4.2-3.6-7.9-6.2-11.8
	c-2.4-3.4-2.3-8.2,0.6-11.6l4.4-5.8c3.2-3.9,2.8-10.1-1.5-13.7L311,174.1c-4.2-3.5-10.4-2.9-14.3,1.1l-5.1,5.4
	c-2.8,3.3-7.3,4.1-11.3,2.5c-4.1-1.4-8.3-2.6-12.7-3.9c-4.2-1.2-7.4-4.3-8.2-8.6l-1.1-7.5c-0.8-5.6-5.9-9.1-11.1-8.6l-8.1,0.5
	l-8.2,0.8c-5.3,0.3-9.5,5-9.3,10.6l0.3,7.6c0.1,4.5-2.6,8.3-6.4,10c-4.2,1.3-7.9,3.6-11.8,6.2c-3.4,2.4-8.2,2.3-11.6-0.6l-5.8-4.4
	c-4.4-2.9-10.7-2.3-13.8,2l-10.5,12.5c-3.2,3.9-3.1,9.9,1,13.8l5.4,5.1c3.3,2.8,4.1,7.3,2.5,11.3c-1.4,4.1-2.6,8.4-3.9,12.7
	c-1.2,4.2-4.3,7.4-8.6,8.2l-7.5,1.1c-5.6,0.8-9.1,5.9-8.6,11.1l0.8,8.2l0.8,8.2c0.3,5.3,5,9.5,10.6,9.3l7.6-0.3
	c4.5-0.1,8.3,2.6,10,6.4c1.3,4.2,3.6,7.9,6.2,11.8c2.4,3.4,2.3,8.2-0.6,11.6l-4.4,5.8c-3.2,3.9-2.8,10.1,1.5,13.7l12.5,10.5
	c3.9,3.2,9.9,3.1,13.8-1l5.1-5.4c2.8-3.3,7.3-4.1,11.3-2.5c4.1,1.5,8.3,2.6,12.7,3.9c4.2,1.2,7.4,4.3,8.2,8.6l1.1,7.5
	c0.8,5.6,5.9,9.1,11.1,8.6l16.7-1.5c5.3-0.3,9.5-5,9.3-10.6l-0.3-7.6c-0.1-4.5,2.6-8.3,6.4-10c4.2-1.3,7.9-3.6,11.8-6.2
	c3.4-2.4,8.2-2.3,11.6,0.6l5.8,4.4c3.9,3.2,10.1,2.8,13.7-1.5l10.7-12.9C339.5,318.5,339.5,312.5,335.4,308.6z M223.9,315
	c-29.6-14-42.3-49.3-28.3-79c14-29.6,49.3-42.3,79-28.3c29.6,14,42.3,49.3,28.3,79C288.9,316.3,253.5,329,223.9,315z"/>
<circle class="st0" cx="248.7" cy="261" r="18.8"/>
<circle class="st0" cx="519" cy="359.5" r="37.8"/>
<path class="st0" d="M673.9,290.1l-12.6,2.3c-7.5,1.8-14.2-1.9-18.3-8c-4.1-6.2-8.9-12.4-13.4-18.5c-4.7-6.1-5.9-13.7-2.2-20.6
	l6.4-11.4c4.6-8.3,1.6-18.8-6.1-23.5l-12.3-7.6l-12.3-7.6c-7.8-5.4-18.4-2.9-23.8,5L572,211c-4.5,6.3-12.4,8.9-19.4,7.2
	c-7.1-2.2-14.5-3.2-22.6-3.7c-7.2-0.2-13.6-5.3-15.3-12.8l-3.5-12.3c-2-8.6-11.3-14.3-20.6-12.1l-27.3,6.4
	c-9.3,2.2-15.1,11.5-13.5,20.9l2.3,12.6c1.8,7.5-1.9,14.2-8,18.3c-6.2,4.1-12.4,8.9-18.5,13.6c-6.1,4.7-13.7,5.9-20.6,2.2l-11.4-6.4
	c-8.3-4.6-18.8-1.6-23.5,6.1l-7.7,11.7L355,275c-5.4,7.8-2.9,18.4,5,23.8l10.8,7.3c6.3,4.5,8.9,12.4,7.2,19.4
	c-2.2,7.1-3.2,14.5-3.7,22.6c-0.2,7.2-5.3,13.6-12.8,15.3l-12.3,3.5c-8.5,2.5-14.2,11.8-11.5,21l6.4,27.3c2,8.6,10.6,14.5,20,13.1
	l12.6-2.3c7.5-1.8,14.2,1.9,18.3,8c4.1,6.2,8.9,12.4,13.4,18.5c4.7,6.1,5.9,13.7,2.2,20.6l-6.4,11.4c-4.6,8.3-1.6,18.8,6.1,23.5
	l12.3,7.6l12.3,7.6c7.8,5.4,18.4,2.9,23.8-5l7.3-10.8c4.5-6.3,12.4-8.9,19.4-7.2c7.1,2.2,14.5,3.2,22.6,3.7
	c7.2,0.2,13.6,5.3,15.3,12.8l3.5,12.3c2,8.6,11.3,14.3,20.6,12.1l27.3-6.4c8.6-2,14.5-10.6,13.1-20l-2.3-12.6
	c-1.8-7.5,1.9-14.2,8-18.3c6.2-4.1,12.4-8.9,18.5-13.4c6.1-4.7,13.7-5.9,20.6-2.2l11.4,6.4c8.3,4.6,18.8,1.6,23.5-6.1l15.3-24.6
	c5.4-7.8,2.9-18.4-5-23.8l-10.8-7.3c-6.3-4.5-8.9-12.4-7.2-19.4c2.2-7.1,3.2-14.5,3.7-22.6c0.2-7.2,5.3-13.6,12.8-15.3l12.3-3.5
	c8.6-2,14.3-11.3,12.1-20.6l-6.6-28C691.9,294.6,683.3,288.7,673.9,290.1z M543.4,464.3c-57.5,13.5-115-22.1-128.5-79.6
	c-13.5-57.5,22.1-115,79.6-128.5c57.5-13.5,115,22.1,128.5,79.6S600.8,450.8,543.4,464.3z"/>
</svg>
