<?xml version="1.0" encoding="utf-8"?>
<!-- Generator: Adobe Illustrator 22.0.0, SVG Export Plug-In . SVG Version: 6.00 Build 0)  -->
<svg version="1.1" id="图层_1" xmlns="http://www.w3.org/2000/svg" xmlns:xlink="http://www.w3.org/1999/xlink" x="0px" y="0px"
	 viewBox="0 0 800 800" style="enable-background:new 0 0 800 800;" xml:space="preserve">
<style type="text/css">
	.st0{fill:#A1ACEE;}
</style>
<path class="st0" d="M590.1,556.1v32.3c0,11.4-9.3,20.8-20.8,20.8H259.2c-11.4,0-20.8-9.4-20.8-20.8v-31.3h-35.9v61.1
	c0,14.3,11.7,26,26,26h367.7c14.3,0,26-11.7,26-26v-62.1H590.1z"/>
<path class="st0" d="M315.2,334l-3.5-6.6c-2.2-3.7-1.4-8.3,1.3-11.5c2.6-3.4,5.1-7,7.8-10.7c2.5-3.6,6.4-5.6,10.8-4.9l7.4,1.4
	c5.5,1.1,10.5-2.6,11.8-7.6l1.9-8l1.9-8c1.5-5.1-1.7-10.6-7-12.3l-7.2-2.2c-4.3-1.4-7.1-5.2-7.4-9.3c0.1-4.4-0.8-8.6-2-13.1
	c-1.1-4,0.5-8.5,4.3-10.7l6-4c4.3-2.7,5.9-8.6,3-13.4l-8.5-14c-2.8-4.7-8.9-6.2-13.9-3.6l-6.6,3.5c-3.7,2.2-8.3,1.4-11.5-1.3
	c-3.4-2.6-7-5.1-10.7-7.8c-3.6-2.5-5.6-6.4-4.9-10.8l1.4-7.4c1.1-5.5-2.6-10.5-7.6-11.8l-7.8-2.2l-8-1.9c-5.1-1.5-10.6,1.7-12.3,7
	l-2.2,7.2c-1.4,4.3-5.1,7-9.3,7.4c-4.4-0.1-8.6,0.8-13.1,2c-4,1.1-8.5-0.5-10.7-4.3l-4-6c-3.2-4.2-9.3-5.6-13.7-2.6l-14,8.5
	c-4.3,2.7-6.2,8.4-3.6,13.4l3.5,6.6c2.2,3.7,1.4,8.3-1.3,11.5c-2.6,3.4-5.2,7.1-7.8,10.7c-2.5,3.6-6.4,5.6-10.8,4.9l-7.4-1.4
	c-5.5-1.1-10.5,2.6-11.8,7.6l-1.9,8l-1.9,8c-1.5,5.1,1.7,10.6,7,12.3l7.2,2.2c4.3,1.4,7,5.1,7.4,9.3c-0.1,4.4,0.8,8.6,2,13.1
	c1.1,4-0.5,8.5-4.3,10.7l-6,4c-4.3,2.7-5.9,8.6-3,13.4l8.5,14c2.7,4.3,8.4,6.2,13.4,3.6l6.6-3.5c3.7-2.2,8.3-1.4,11.5,1.3
	c3.4,2.7,7,5.1,10.7,7.8c3.6,2.5,5.6,6.4,4.9,10.8l-1.4,7.4c-1.1,5.5,2.6,10.5,7.6,11.8l16.2,4c5.1,1.5,10.6-1.7,12.3-7l2.2-7.2
	c1.4-4.3,5.1-7,9.3-7.4c4.4,0.1,8.6-0.8,13.1-2c4-1.1,8.5,0.5,10.7,4.3l4,6c2.7,4.3,8.6,5.9,13.4,3l14.3-8.7
	C315.9,344.8,317.8,339.1,315.2,334z M207.7,303.8c-23.5-22.9-24-60.4-1.1-83.9c22.9-23.5,60.4-24,83.9-1.1
	c23.5,22.9,24,60.4,1.1,83.9C268.8,326.2,231.2,326.7,207.7,303.8z"/>
<path class="st0" d="M663.7,270.7l-12.2,4c-7.2,2.7-14.3,0-19.2-5.6c-4.9-5.6-10.4-11.1-15.7-16.6c-5.5-5.4-7.6-12.8-4.8-20.1
	l4.9-12.1c3.5-8.8-0.9-18.8-9.1-22.5l-13.1-5.9l-13.1-5.9c-8.5-4.3-18.7-0.5-23,8l-5.9,11.6c-3.6,6.8-11.1,10.4-18.3,9.7
	c-7.3-1.3-14.8-1.3-22.8-0.8c-7.2,0.7-14.2-3.5-16.9-10.7l-5.1-11.8c-3.1-8.2-13-12.7-22-9.3l-26.2,9.9c-9,3.4-13.5,13.3-10.7,22.5
	l4,12.2c2.7,7.2,0,14.3-5.6,19.2c-5.6,4.9-11.1,10.4-16.6,15.9c-5.4,5.5-12.8,7.6-20.1,4.8l-12.1-4.9c-8.8-3.5-18.8,0.9-22.5,9.1
	l-6.2,12.6l-5.9,13.1c-4.3,8.5-0.5,18.7,8,23l11.6,5.9c6.8,3.6,10.4,11.1,9.7,18.3c-1.3,7.3-1.3,14.8-0.8,22.8
	c0.7,7.2-3.5,14.2-10.7,16.9l-11.8,5.1c-8.1,3.6-12.5,13.5-8.7,22.3l9.9,26.2c3.1,8.2,12.4,13,21.5,10.4l12.2-4
	c7.2-2.7,14.3,0,19.2,5.6c4.9,5.6,10.4,11.1,15.7,16.6c5.5,5.4,7.6,12.8,4.8,20.1l-4.9,12.1c-3.5,8.8,0.9,18.8,9.1,22.5l13.1,5.9
	l13.1,5.9c8.5,4.3,18.7,0.5,23-8l5.9-11.6c3.6-6.8,11.1-10.4,18.3-9.7c7.3,1.3,14.8,1.3,22.8,0.8c7.2-0.7,14.2,3.5,16.9,10.7
	l5.1,11.8c3.1,8.2,13,12.7,22,9.3l26.2-9.9c8.2-3.1,13-12.4,10.4-21.5l-4-12.2c-2.7-7.2,0-14.3,5.6-19.2
	c5.6-4.9,11.1-10.4,16.6-15.7c5.4-5.5,12.8-7.6,20.1-4.8l12.1,4.9c8.8,3.5,18.8-0.9,22.5-9.1l12-26.4c4.3-8.5,0.5-18.7-8-23
	l-11.6-5.9c-6.8-3.6-10.4-11.1-9.7-18.3c1.3-7.3,1.3-14.8,0.8-22.8c-0.7-7.2,3.5-14.2,10.7-16.9l11.8-5.1c8.2-3.1,12.7-13,9.3-22
	l-10.2-27C682.1,272.8,672.9,268.1,663.7,270.7z M556.7,460.2c-55.2,20.8-116.9-7.1-137.7-62.3s7.1-116.9,62.3-137.7
	c55.2-20.8,116.9,7.1,137.7,62.3C639.9,377.8,612,439.4,556.7,460.2z"/>
<circle class="st0" cx="248.7" cy="261" r="18.8"/>
<circle class="st0" cx="519" cy="359.5" r="37.8"/>
</svg>
