<?xml version="1.0" encoding="utf-8"?>
<!-- Generator: Adobe Illustrator 22.0.0, SVG Export Plug-In . SVG Version: 6.00 Build 0)  -->
<svg version="1.1" id="图层_1" xmlns="http://www.w3.org/2000/svg" xmlns:xlink="http://www.w3.org/1999/xlink" x="0px" y="0px"
	 viewBox="0 0 800 800" style="enable-background:new 0 0 800 800;" xml:space="preserve">
<style type="text/css">
	.st0{fill:#A1ACEE;}
</style>
<path class="st0" d="M590.1,556.1v32.3c0,11.4-9.3,20.8-20.8,20.8H259.2c-11.4,0-20.8-9.4-20.8-20.8v-31.3h-35.9v61.1
	c0,14.3,11.7,26,26,26h367.7c14.3,0,26-11.7,26-26v-62.1H590.1z"/>
<path class="st0" d="M293.6,348.8l-1.6-7.3c-1.2-4.2,0.8-8.3,4.3-10.7c3.5-2.6,6.8-5.4,10.3-8.3c3.4-2.8,7.7-3.7,11.7-1.9l6.8,3.3
	c5.1,2.5,10.8,0.3,13.4-4.3l4-7.2l4-7.2c2.8-4.5,1.2-10.7-3.5-13.7l-6.4-4c-3.8-2.4-5.4-6.9-4.7-10.9c1.2-4.2,1.5-8.5,1.5-13.2
	c0-4.2,2.7-8.1,7-9.2l6.9-2.3c4.8-1.4,8-6.8,6.4-12.1l-4.5-15.7c-1.5-5.3-7-8.3-12.5-7.2l-7.3,1.6c-4.2,1.2-8.3-0.8-10.7-4.3
	c-2.6-3.5-5.4-6.8-8.3-10.3c-2.8-3.4-3.7-7.7-1.9-11.7l3.3-6.8c2.5-5.1,0.3-10.8-4.3-13.4l-7-4.1l-7.2-4c-4.5-2.8-10.7-1.2-13.7,3.5
	l-4,6.4c-2.4,3.8-6.8,5.4-10.9,4.7c-4.2-1.2-8.5-1.5-13.2-1.5c-4.2,0-8.1-2.7-9.2-7l-2.3-6.9c-1.9-4.9-7.5-7.9-12.5-6.1l-15.7,4.5
	c-4.8,1.4-8.2,6.4-7,12l1.6,7.3c1.2,4.2-0.8,8.3-4.3,10.7c-3.5,2.6-6.9,5.4-10.3,8.3c-3.4,2.8-7.7,3.7-11.7,1.9l-6.8-3.3
	c-5.1-2.5-10.8-0.3-13.4,4.3l-4,7.2l-4,7.2c-2.8,4.5-1.2,10.7,3.5,13.7l6.4,4c3.8,2.4,5.4,6.8,4.7,10.9c-1.2,4.2-1.5,8.5-1.5,13.2
	c0,4.2-2.7,8.1-7,9.2l-6.9,2.3c-4.8,1.4-8,6.8-6.4,12.1l4.5,15.7c1.4,4.8,6.4,8.2,12,7l7.3-1.6c4.2-1.2,8.3,0.8,10.7,4.3
	c2.5,3.5,5.4,6.8,8.3,10.3c2.8,3.4,3.7,7.7,1.9,11.7l-3.3,6.8c-2.5,5.1-0.3,10.8,4.3,13.4l14.6,8.1c4.5,2.8,10.7,1.2,13.7-3.5l4-6.4
	c2.4-3.8,6.8-5.4,10.9-4.7c4.2,1.2,8.5,1.5,13.2,1.5c4.2,0,8.1,2.7,9.2,7l2.3,6.9c1.4,4.8,6.8,8,12.1,6.4l16.1-4.6
	C291.5,359.4,294.8,354.4,293.6,348.8z M197.9,291.3c-16.6-28.3-7.1-64.6,21.1-81.2c28.3-16.6,64.6-7.1,81.2,21.1
	c16.6,28.3,7.1,64.6-21.1,81.2C250.9,329,214.5,319.6,197.9,291.3z"/>
<path class="st0" d="M654.5,257.1l-11.8,5.1c-6.9,3.4-14.3,1.3-19.7-3.7c-5.4-5.1-11.4-10.1-17.2-15c-6-4.9-8.8-12-6.7-19.5
	l3.7-12.5c2.7-9.1-2.7-18.6-11.3-21.5l-13.7-4.6l-13.7-4.6c-8.8-3.5-18.6,1.4-22.1,10.2l-4.7,12.1c-3,7.1-10.1,11.4-17.2,11.4
	c-7.4-0.6-14.8,0.2-22.8,1.4c-7.1,1.4-14.4-2.2-17.8-9.1l-6.2-11.2c-3.9-7.9-14.2-11.4-22.8-7.2l-25.1,12.4
	c-8.6,4.2-12.1,14.5-8.4,23.4l5.1,11.8c3.4,6.9,1.3,14.3-3.7,19.7c-5.1,5.4-10.1,11.4-15,17.4c-4.9,6-12,8.8-19.5,6.7l-12.5-3.7
	c-9.1-2.7-18.6,2.7-21.5,11.3l-4.9,13.1l-4.6,13.7c-3.5,8.8,1.4,18.6,10.2,22.1l12.1,4.7c7.1,3,11.4,10.1,11.4,17.2
	c-0.6,7.4,0.2,14.8,1.4,22.8c1.4,7.1-2.2,14.4-9.1,17.8l-11.2,6.2c-7.7,4.3-11.2,14.6-6.5,23L361,453c3.9,7.9,13.6,11.7,22.4,8.2
	l11.8-5.1c6.9-3.4,14.3-1.3,19.7,3.7c5.4,5.1,11.4,10.1,17.2,15c6,4.9,8.8,12,6.7,19.5l-3.7,12.5c-2.7,9.1,2.7,18.6,11.3,21.5
	l13.7,4.6l13.7,4.6c8.8,3.5,18.6-1.4,22.1-10.2l4.7-12.1c3-7.1,10.1-11.4,17.2-11.4c7.4,0.6,14.8-0.2,22.8-1.4
	c7.1-1.4,14.4,2.2,17.8,9.1l6.2,11.2c3.9,7.9,14.2,11.4,22.8,7.2l25.1-12.4c7.9-3.9,11.7-13.6,8.2-22.4l-5.1-11.8
	c-3.4-6.9-1.3-14.3,3.7-19.7c5.1-5.4,10.1-11.4,15-17.2c4.9-6,12-8.8,19.5-6.7l12.5,3.7c9.1,2.7,18.6-2.7,21.5-11.3l9.3-27.4
	c3.5-8.8-1.4-18.6-10.2-22.1l-12.1-4.7c-7.1-3-11.4-10.1-11.4-17.2c0.6-7.4-0.2-14.8-1.4-22.8c-1.4-7.1,2.2-14.4,9.1-17.8l11.2-6.2
	c7.9-3.9,11.4-14.2,7.2-22.8l-12.7-25.8C673,257.4,663.3,253.6,654.5,257.1z M566.3,456.1c-53,26.1-117,4.2-143.1-48.7
	s-4.2-117,48.7-143.1c53-26.1,117-4.2,143.1,48.7C641.1,366,619.3,430.1,566.3,456.1z"/>
<circle class="st0" cx="248.7" cy="261" r="18.8"/>
<circle class="st0" cx="519" cy="359.5" r="37.8"/>
</svg>
