<?xml version="1.0" encoding="utf-8"?>
<!-- Generator: Adobe Illustrator 22.0.0, SVG Export Plug-In . SVG Version: 6.00 Build 0)  -->
<svg version="1.1" id="图层_1" xmlns="http://www.w3.org/2000/svg" xmlns:xlink="http://www.w3.org/1999/xlink" x="0px" y="0px"
	 viewBox="0 0 800 800" style="enable-background:new 0 0 800 800;" xml:space="preserve">
<style type="text/css">
	.st0{fill:#A1ACEE;}
</style>
<path class="st0" d="M590.1,556.1v32.3c0,11.4-9.3,20.8-20.8,20.8H259.2c-11.4,0-20.8-9.4-20.8-20.8v-31.3h-35.9v61.1
	c0,14.3,11.7,26,26,26h367.7c14.3,0,26-11.7,26-26v-62.1H590.1z"/>
<path class="st0" d="M269.8,357.2l0.3-7.5c-0.1-4.3,2.9-7.9,6.8-9.3c4-1.6,8-3.5,12.1-5.4c4-1.8,8.4-1.6,11.8,1.1l5.7,4.9
	c4.3,3.7,10.4,3,14-0.7l5.7-6l5.7-6c3.9-3.7,3.8-10,0.1-14.1l-5.2-5.5c-3-3.3-3.5-8.1-1.7-11.8c2.3-3.8,3.6-7.9,4.8-12.4
	c1-4,4.6-7.1,9.1-7.1l7.2-0.5c5-0.2,9.4-4.5,9.3-10.1l-0.3-16.3c-0.1-5.5-4.6-9.8-10.2-10.1l-7.5-0.3c-4.3,0.1-7.9-2.9-9.3-6.8
	c-1.6-4-3.5-8-5.4-12.1c-1.8-4-1.6-8.4,1.1-11.8l4.9-5.7c3.7-4.3,3-10.4-0.7-14l-5.7-5.8l-6-5.7c-3.7-3.8-10-3.8-14.1-0.1l-5.5,5.2
	c-3.3,3-8,3.5-11.8,1.7c-3.8-2.3-7.9-3.6-12.4-4.8c-4-1-7.1-4.6-7.1-9.1l-0.5-7.2c-0.6-5.2-5.3-9.5-10.5-9.1l-16.3,0.3
	c-5,0.2-9.5,4.1-9.8,9.8l-0.3,7.5c0.1,4.3-2.9,7.9-6.8,9.3c-4,1.6-8.1,3.5-12.1,5.4c-4,1.8-8.4,1.6-11.8-1.1l-5.7-4.9
	c-4.3-3.7-10.4-3-14,0.7l-5.7,6l-5.7,6c-3.9,3.7-3.8,10-0.1,14.1l5.2,5.5c3,3.3,3.5,8,1.7,11.8c-2.3,3.8-3.6,7.9-4.8,12.4
	c-1,4-4.6,7.1-9.1,7.1l-7.2,0.5c-5,0.2-9.4,4.5-9.3,10.1l0.3,16.3c0.2,5,4.1,9.5,9.8,9.8l7.5,0.3c4.3-0.1,7.9,2.9,9.3,6.8
	c1.5,4,3.5,8,5.4,12.1c1.8,4,1.6,8.4-1.1,11.8l-4.9,5.7c-3.7,4.3-3,10.4,0.7,14l12.1,11.6c3.7,3.9,10,3.8,14.1,0.1l5.5-5.2
	c3.3-3,8-3.5,11.8-1.7c3.8,2.3,7.9,3.6,12.4,4.8c4,1,7.1,4.6,7.1,9.1l0.5,7.2c0.2,5,4.5,9.4,10.1,9.3L260,367
	C265,366.9,269.5,362.9,269.8,357.2z M191.9,277.2c-8.9-31.6,9.6-64.3,41.1-73.2c31.6-8.9,64.3,9.6,73.2,41.1
	c8.9,31.6-9.6,64.3-41.1,73.2C233.5,327.2,200.8,308.8,191.9,277.2z"/>
<path class="st0" d="M641.1,241.5l-11,6.5c-6.4,4.2-14,3.1-20-1.3c-6-4.4-12.6-8.6-18.9-12.9c-6.5-4.1-10.2-10.9-9-18.6l2.1-12.8
	c1.5-9.4-4.9-18.2-13.8-20l-14.1-3l-14.1-3c-9.2-2.4-18.3,3.6-20.7,12.8l-3.2,12.6c-2.1,7.4-8.6,12.6-15.7,13.4
	c-7.4,0.3-14.7,2-22.5,4.2c-6.9,2.2-14.6-0.4-18.8-6.8l-7.5-10.4c-4.8-7.4-15.5-9.6-23.5-4.4l-23.4,15.3c-8,5.2-10.3,15.9-5.5,24.3
	l6.5,11c4.2,6.4,3.1,14-1.3,20c-4.4,6-8.6,12.6-12.7,19.1c-4.1,6.5-10.9,10.2-18.6,9l-12.8-2.1c-9.4-1.5-18.2,4.9-20,13.8l-3.3,13.6
	l-3,14.1c-2.4,9.2,3.6,18.3,12.8,20.7l12.6,3.2c7.4,2.1,12.6,8.6,13.4,15.7c0.3,7.4,2,14.7,4.2,22.5c2.2,6.9-0.4,14.6-6.8,18.8
	l-10.4,7.5c-7.1,5.2-9.3,15.9-3.7,23.7l15.3,23.4c4.8,7.4,14.9,10,23.3,5.5l11-6.5c6.4-4.2,14-3.1,20,1.3c6,4.4,12.6,8.6,18.9,12.9
	c6.5,4.1,10.2,10.9,9,18.6l-2.1,12.8c-1.5,9.4,4.9,18.2,13.8,20l14.1,3l14.1,3c9.2,2.4,18.3-3.6,20.7-12.8l3.2-12.6
	c2.1-7.4,8.6-12.6,15.7-13.4c7.4-0.3,14.7-2,22.5-4.2c6.9-2.2,14.6,0.4,18.8,6.8l7.5,10.4c4.8,7.4,15.5,9.6,23.5,4.4l23.4-15.3
	c7.4-4.8,10-14.9,5.5-23.3l-6.5-11c-4.2-6.4-3.1-14,1.3-20c4.4-6,8.6-12.6,12.9-18.9c4.1-6.5,10.9-10.2,18.6-9l12.8,2.1
	c9.4,1.5,18.2-4.9,20-13.8l6-28.4c2.4-9.2-3.6-18.3-12.8-20.7l-12.6-3.2c-7.4-2.1-12.6-8.6-13.4-15.7c-0.3-7.4-2-14.7-4.2-22.5
	c-2.2-6.9,0.4-14.6,6.8-18.8l10.4-7.5c7.4-4.8,9.6-15.5,4.4-23.5l-15.7-24.1C659.6,239.6,649.5,236.9,641.1,241.5z M577.7,449.7
	c-49.4,32.3-115.6,18.4-147.9-31.1S411.4,303,460.9,270.7c49.4-32.3,115.6-18.4,147.9,31.1S627.1,417.4,577.7,449.7z"/>
<circle class="st0" cx="248.7" cy="261" r="18.8"/>
<circle class="st0" cx="519" cy="359.5" r="37.8"/>
</svg>
