<?xml version="1.0" encoding="utf-8"?>
<!-- Generator: Adobe Illustrator 22.0.0, SVG Export Plug-In . SVG Version: 6.00 Build 0)  -->
<svg version="1.1" id="图层_1" xmlns="http://www.w3.org/2000/svg" xmlns:xlink="http://www.w3.org/1999/xlink" x="0px" y="0px"
	 viewBox="0 0 800 800" style="enable-background:new 0 0 800 800;" xml:space="preserve">
<style type="text/css">
	.st0{fill:#A1ACEE;}
</style>
<path class="st0" d="M590.1,556.1v32.3c0,11.4-9.3,20.8-20.8,20.8H259.2c-11.4,0-20.8-9.4-20.8-20.8v-31.3h-35.9v61.1
	c0,14.3,11.7,26,26,26h367.7c14.3,0,26-11.7,26-26v-62.1H590.1z"/>
<path class="st0" d="M256.6,359.1l1.3-7.3c0.5-4.3,3.9-7.4,8-8.3c4.2-1.1,8.4-2.4,12.7-3.7c4.2-1.3,8.5-0.5,11.6,2.7l5,5.7
	c3.7,4.2,9.9,4.4,14,1.2l6.5-5.1l6.5-5.1c4.3-3.1,5.2-9.4,2-14l-4.4-6.2c-2.5-3.7-2.4-8.5-0.1-11.9c2.8-3.4,4.6-7.3,6.5-11.6
	c1.6-3.9,5.6-6.4,10-5.8l7.2,0.5c5,0.5,10-3.2,10.6-8.7l1.9-16.2c0.7-5.4-3.3-10.4-8.8-11.4l-7.3-1.3c-4.3-0.5-7.4-3.9-8.3-8
	c-1.1-4.2-2.4-8.4-3.7-12.7c-1.3-4.2-0.5-8.5,2.7-11.6l5.7-5c4.2-3.7,4.4-9.9,1.2-14l-4.8-6.5l-5.1-6.5c-3.1-4.3-9.4-5.2-14-2
	l-6.2,4.4c-3.7,2.5-8.4,2.4-11.9,0.1c-3.4-2.8-7.3-4.6-11.6-6.5c-3.9-1.6-6.4-5.6-5.8-10l0.5-7.2c0.1-5.3-3.9-10.2-9.2-10.4
	l-16.2-1.9c-5-0.5-10,2.8-11.1,8.4l-1.3,7.3c-0.5,4.3-3.9,7.4-8,8.3c-4.2,1.1-8.5,2.4-12.7,3.7c-4.2,1.3-8.5,0.5-11.6-2.7l-5-5.7
	c-3.7-4.2-9.9-4.4-14-1.2l-6.5,5.1l-6.5,5.1c-4.3,3.1-5.2,9.4-2,14l4.4,6.2c2.5,3.7,2.4,8.4,0.1,11.9c-2.8,3.4-4.6,7.3-6.5,11.6
	c-1.6,3.9-5.6,6.4-10,5.8l-7.2-0.5c-5-0.5-10,3.2-10.6,8.7l-1.9,16.2c-0.5,5,2.8,10,8.4,11.1l7.3,1.3c4.3,0.5,7.4,3.9,8.3,8
	c1,4.2,2.4,8.4,3.7,12.7c1.3,4.2,0.5,8.5-2.7,11.6l-5.7,5c-4.2,3.7-4.4,9.9-1.2,14l10.4,13.1c3.1,4.3,9.4,5.2,14,2l6.2-4.4
	c3.7-2.5,8.4-2.4,11.9-0.1c3.4,2.8,7.3,4.6,11.6,6.5c3.9,1.6,6.4,5.6,5.8,10l-0.5,7.2c-0.5,5,3.2,10,8.7,10.6l16.6,1.9
	C250.6,368,255.6,364.7,256.6,359.1z M190.3,269.3c-4.5-32.5,18.2-62.4,50.6-66.9c32.5-4.5,62.4,18.2,66.9,50.6
	c4.5,32.5-18.2,62.4-50.6,66.9C224.7,324.4,194.8,301.8,190.3,269.3z"/>
<path class="st0" d="M629.2,230.2l-10.4,7.5c-6,4.8-13.6,4.4-20,0.6c-6.4-3.8-13.3-7.4-20.1-11c-6.9-3.5-11.2-9.9-10.8-17.6l0.9-13
	c0.6-9.5-6.7-17.6-15.7-18.6l-14.3-1.6l-14.3-1.6c-9.4-1.5-17.9,5.3-19.3,14.7l-2,12.9c-1.3,7.6-7.4,13.3-14.4,14.8
	c-7.4,1-14.5,3.4-22,6.3c-6.7,2.9-14.6,1-19.4-5l-8.5-9.6c-5.5-6.9-16.3-8.1-23.8-2.1l-21.9,17.5c-7.5,6-8.7,16.8-3.2,24.7l7.5,10.4
	c4.8,6,4.4,13.6,0.6,20c-3.8,6.4-7.4,13.3-10.9,20.2c-3.5,6.9-9.9,11.2-17.6,10.8l-13-0.9c-9.5-0.6-17.6,6.7-18.6,15.7l-2,13.9
	l-1.6,14.3c-1.5,9.4,5.3,17.9,14.7,19.3l12.9,2c7.6,1.3,13.3,7.4,14.8,14.4c1,7.4,3.4,14.5,6.3,22c2.9,6.7,1,14.6-5,19.4l-9.6,8.5
	c-6.6,5.9-7.8,16.7-1.4,23.9l17.5,21.9c5.5,6.9,15.8,8.5,23.7,3.2l10.4-7.5c6-4.8,13.6-4.4,20-0.6c6.4,3.8,13.3,7.4,20.1,11
	c6.9,3.5,11.2,9.9,10.8,17.6l-0.9,13c-0.6,9.5,6.7,17.6,15.7,18.6l14.3,1.6l14.3,1.6c9.4,1.5,17.9-5.3,19.3-14.7l2-12.9
	c1.3-7.6,7.4-13.3,14.4-14.8c7.4-1,14.5-3.4,22-6.3c6.7-2.9,14.6-1,19.4,5l8.5,9.6c5.5,6.9,16.3,8.1,23.8,2.1l21.9-17.5
	c6.9-5.5,8.5-15.8,3.2-23.7l-7.5-10.4c-4.8-6-4.4-13.6-0.6-20c3.8-6.4,7.4-13.3,11-20.1c3.5-6.9,9.9-11.2,17.6-10.8l13,0.9
	c9.5,0.6,17.6-6.7,18.6-15.7l3.2-28.8c1.5-9.4-5.3-17.9-14.7-19.3l-12.9-2c-7.6-1.3-13.3-7.4-14.8-14.4c-1-7.4-3.4-14.5-6.3-22
	c-2.9-6.7-1-14.6,5-19.4l9.6-8.5c6.9-5.5,8.1-16.3,2.1-23.8l-18-22.5C647.4,226.6,637.1,224.9,629.2,230.2z M586.1,443.6
	c-46.1,36.9-113.3,29.4-150.2-16.7s-29.4-113.3,16.7-150.2c46.1-36.9,113.3-29.4,150.2,16.7C639.7,339.5,632.2,406.7,586.1,443.6z"
	/>
<circle class="st0" cx="248.7" cy="261" r="18.8"/>
<circle class="st0" cx="519" cy="359.5" r="37.8"/>
</svg>
