<?xml version="1.0" encoding="utf-8"?>
<!-- Generator: Adobe Illustrator 22.0.0, SVG Export Plug-In . SVG Version: 6.00 Build 0)  -->
<svg version="1.1" id="图层_1" xmlns="http://www.w3.org/2000/svg" xmlns:xlink="http://www.w3.org/1999/xlink" x="0px" y="0px"
	 viewBox="0 0 200 200" style="enable-background:new 0 0 200 200;" xml:space="preserve">
<path d="M105,135.4c0.3-0.3,0.5-0.6,0.8-0.9l59.7-59.8c2.7-2.7,2.7-7.2,0-9.9s-7.2-2.7-9.9,0L100,120.4L44.4,64.8
	c-2.7-2.7-7.2-2.7-9.9,0c-1.4,1.4-2,3.2-2,4.9s0.7,3.6,2,4.9l59.7,59.7c0.2,0.3,0.5,0.6,0.8,0.9c1.4,1.4,3.2,2.1,5,2
	C101.8,137.4,103.6,136.8,105,135.4z"/>
</svg>
