<?xml version="1.0" encoding="utf-8"?>
<!-- Generator: Adobe Illustrator 22.0.0, SVG Export Plug-In . SVG Version: 6.00 Build 0)  -->
<svg version="1.1" id="图层_1" xmlns="http://www.w3.org/2000/svg" xmlns:xlink="http://www.w3.org/1999/xlink" x="0px" y="0px"
	 viewBox="0 0 200 200" style="enable-background:new 0 0 200 200;" xml:space="preserve">
<path d="M64.7,95c0.3-0.3,0.6-0.5,0.9-0.8l59.7-59.7c2.7-2.7,7.2-2.7,9.9,0c2.7,2.7,2.7,7.2,0,9.9L79.6,100l55.6,55.6
	c2.7,2.7,2.7,7.2,0,9.9c-1.4,1.4-3.2,2-4.9,2s-3.6-0.7-4.9-2l-59.7-59.7c-0.3-0.2-0.6-0.5-0.9-0.8c-1.4-1.4-2.1-3.2-2-5
	C62.7,98.2,63.3,96.4,64.7,95z"/>
</svg>
