<?xml version="1.0" encoding="utf-8"?>
<!-- Generator: Adobe Illustrator 22.0.0, SVG Export Plug-In . SVG Version: 6.00 Build 0)  -->
<svg version="1.1" id="图层_1" xmlns="http://www.w3.org/2000/svg" xmlns:xlink="http://www.w3.org/1999/xlink" x="0px" y="0px"
	 viewBox="0 0 200 200" style="enable-background:new 0 0 200 200;" xml:space="preserve">
<path d="M135.3,95c-0.3-0.3-0.6-0.5-0.9-0.8L74.6,34.5c-2.7-2.7-7.2-2.7-9.9,0c-2.7,2.7-2.7,7.2,0,9.9l55.6,55.6l-55.6,55.6
	c-2.7,2.7-2.7,7.2,0,9.9c1.4,1.4,3.2,2,4.9,2s3.6-0.7,4.9-2l59.7-59.7c0.3-0.2,0.6-0.5,0.9-0.8c1.4-1.4,2.1-3.2,2-5
	C137.3,98.2,136.7,96.4,135.3,95z"/>
</svg>
