<?xml version="1.0" encoding="utf-8"?>
<!-- Generator: Adobe Illustrator 22.0.0, SVG Export Plug-In . SVG Version: 6.00 Build 0)  -->
<svg version="1.1" id="图层_1" xmlns="http://www.w3.org/2000/svg" xmlns:xlink="http://www.w3.org/1999/xlink" x="0px" y="0px"
	 viewBox="0 0 200 200" style="enable-background:new 0 0 200 200;" xml:space="preserve">
<path d="M100,62.8c-1.8-0.1-3.6,0.6-5,2c-0.3,0.3-0.6,0.6-0.8,0.9l-59.7,59.7c-1.3,1.3-2,3.2-2,4.9c0,1.7,0.6,3.5,2,4.9
	c2.7,2.7,7.2,2.7,9.9,0L100,79.6l55.6,55.6c2.7,2.7,7.2,2.7,9.9,0c2.7-2.7,2.7-7.2,0-9.9l-59.7-59.8c-0.3-0.3-0.5-0.6-0.8-0.9
	C103.6,63.2,101.8,62.6,100,62.8z"/>
</svg>
