<?xml version="1.0" encoding="utf-8"?>
<!-- Generator: Adobe Illustrator 22.0.0, SVG Export Plug-In . SVG Version: 6.00 Build 0)  -->
<svg version="1.1" id="图层_1" xmlns="http://www.w3.org/2000/svg" xmlns:xlink="http://www.w3.org/1999/xlink" x="0px" y="0px"
	 viewBox="0 0 800 800" style="enable-background:new 0 0 800 800;" xml:space="preserve">
<style type="text/css">
	.st0{fill:#FFFFFF;}
</style>
<path class="st0" d="M338,387.4l6.4,27.3c2,8.6,10.5,14.5,20,13.2l12.6-2.3c7.5-1.7,14.2,2,18.3,8.1c4.2,6.2,8.8,12.4,13.4,18.6
	c4.7,6,5.9,13.7,2.1,20.6l-6.4,11.4c-4.7,8.3-1.6,18.7,6.1,23.5l12.3,7.6l12.3,7.6c7.9,5.3,18.4,2.9,23.8-4.9l7.4-10.8
	c4.5-6.3,12.4-8.8,19.4-7.2c7.1,2.2,14.5,3.2,22.5,3.8c7.2,0.2,13.6,5.3,15.3,12.8l3.5,12.4c2,8.6,11.3,14.4,20.6,12.2l27.3-6.4
	c8.6-2,14.5-10.5,13.2-20l-2.3-12.6c-1.7-7.5,2-14.2,8.1-18.3c6.2-4.2,12.4-8.8,18.6-13.4c6-4.7,13.7-5.9,20.6-2.1l11.4,6.4
	c8.3,4.7,18.7,1.6,23.5-6.1l15.4-24.6c5.3-7.9,2.9-18.4-4.9-23.8l-10.8-7.4c-6.3-4.5-8.8-12.4-7.2-19.4c2.2-7.1,3.2-14.5,3.8-22.5
	c0.2-7.2,5.3-13.6,12.8-15.3l12.4-3.5c8.6-2,14.4-11.3,12.2-20.6l-6.5-28.1c-2-8.6-10.5-14.5-20-13.2l-12.6,2.3
	c-7.5,1.7-14.2-2-18.3-8.1c-4.2-6.2-8.8-12.4-13.4-18.6c-4.7-6-5.9-13.7-2.1-20.6l6.4-11.4c4.7-8.3,1.6-18.7-6.1-23.5l-12.3-7.6
	l-12.3-7.6c-7.9-5.3-18.4-2.9-23.8,4.9l-7.4,10.8c-4.5,6.3-12.4,8.8-19.4,7.2c-7.1-2.2-14.5-3.2-22.5-3.8
	c-7.2-0.2-13.6-5.3-15.3-12.8l-3.5-12.4c-2-8.6-11.3-14.4-20.6-12.2l-27.3,6.4c-9.3,2.2-15.1,11.4-13.5,20.9l2.3,12.6
	c1.7,7.5-2,14.2-8.1,18.3c-6.2,4.2-12.4,8.8-18.5,13.5c-6,4.7-13.7,5.9-20.6,2.1l-11.4-6.4c-8.3-4.7-18.7-1.6-23.5,6.1l-7.8,11.6
	l-7.6,12.3c-5.3,7.9-2.9,18.4,4.9,23.8l10.8,7.4c6.3,4.5,8.8,12.4,7.2,19.4c-2.2,7.1-3.2,14.5-3.8,22.5c-0.2,7.2-5.3,13.6-12.8,15.3
	l-12.4,3.5C341.1,368.9,335.4,378.1,338,387.4z M452.6,375c-8.7-37.4,14.3-74,51.4-82.6c37.4-8.7,74,14.3,82.6,51.4
	c8.7,37.4-14.3,74-51.4,82.6C498,435.3,461.3,412.5,452.6,375z"/>
<path class="st0" d="M173.6,186.9l-10.5,12.5c-3.2,4-3.1,9.9,0.9,13.8l5.4,5.1c3.3,2.9,4.1,7.4,2.5,11.3c-1.4,4.1-2.6,8.4-3.9,12.7
	c-1.3,4.2-4.3,7.4-8.6,8.1l-7.5,1c-5.6,0.7-9.2,5.9-8.7,11l0.7,8.3l0.7,8.3c0.3,5.4,5,9.5,10.5,9.4l7.5-0.3c4.4,0,8.2,2.6,10,6.5
	c1.4,4.1,3.6,7.9,6.1,11.7c2.3,3.4,2.3,8.2-0.6,11.5l-4.4,5.8c-3.2,4-2.8,10.1,1.4,13.6l12.6,10.5c4,3.2,9.9,3.1,13.8-0.9l5.1-5.4
	c2.9-3.3,7.4-4.1,11.3-2.5c4.1,1.5,8.2,2.6,12.7,3.9c4.2,1.3,7.4,4.3,8.1,8.6l1,7.5c0.7,5.6,5.9,9.2,11,8.7l16.7-1.5
	c5.4-0.3,9.5-5,9.4-10.5l-0.3-7.5c0-4.4,2.6-8.2,6.5-10c4.1-1.4,7.9-3.6,11.7-6.1c3.4-2.3,8.2-2.3,11.5,0.6l5.8,4.4
	c4,3.2,10.1,2.8,13.6-1.4l10.8-12.8c3.2-4,3.1-9.9-0.9-13.8l-5.4-5.1c-3.3-2.9-4.1-7.4-2.5-11.3c1.4-4.1,2.6-8.2,3.9-12.7
	c1.3-4.2,4.3-7.4,8.6-8.1l7.5-1c5.6-0.7,9.2-5.9,8.7-11l-0.7-8.3l-0.7-8.3c-0.3-5.4-5-9.5-10.5-9.4l-7.5,0.3c-4.4,0-8.4-2.6-10-6.5
	c-1.4-4.1-3.6-7.9-6.1-11.7c-2.3-3.4-2.3-8.2,0.6-11.5l4.4-5.8c3.2-4,2.8-10.1-1.5-13.6l-12.5-10.5c-4.2-3.5-10.4-2.9-14.4,1.1
	l-5.1,5.4c-2.9,3.3-7.4,4.1-11.3,2.5c-4.1-1.4-8.2-2.6-12.7-3.9c-4.2-1.3-7.4-4.3-8.1-8.6l-1-7.5c-0.7-5.6-5.9-9.2-11-8.7l-8.1,0.5
	l-8.3,0.7c-5.4,0.3-9.5,5-9.4,10.5l0.3,7.5c0,4.4-2.6,8.2-6.5,10c-4.1,1.4-7.9,3.6-11.7,6.1c-3.4,2.3-8.2,2.3-11.5-0.6l-5.8-4.4
	C183,181.9,176.7,182.6,173.6,186.9z M219,235.6c14.1-17,39.4-19.2,56.2-4.8c17,14.1,19.2,39.4,4.8,56.2
	c-14.1,17-39.4,19.2-56.2,4.8C207,277.6,204.8,252.7,219,235.6z"/>
<path class="st0" d="M590.6,556.1v32.3c0,11.4-9.3,20.8-20.8,20.8H259.7c-11.4,0-20.8-9.4-20.8-20.8v-31.3H203v61.1
	c0,14.3,11.7,26,26,26h367.7c14.3,0,26-11.7,26-26v-62.1H590.6z"/>
</svg>
