<?xml version="1.0" encoding="utf-8"?>
<!-- Generator: Adobe Illustrator 22.0.0, SVG Export Plug-In . SVG Version: 6.00 Build 0)  -->
<svg version="1.1" id="图层_1" xmlns="http://www.w3.org/2000/svg" xmlns:xlink="http://www.w3.org/1999/xlink" x="0px" y="0px"
	 viewBox="0 0 800 800" style="enable-background:new 0 0 800 800;" xml:space="preserve">
<style type="text/css">
	.st0{fill:#A1ACEE;}
</style>
<path class="st0" d="M590.6,556.1v32.3c0,11.4-9.3,20.8-20.8,20.8H259.7c-11.4,0-20.8-9.4-20.8-20.8v-31.3H203v61.1
	c0,14.3,11.7,26,26,26h367.7c14.3,0,26-11.7,26-26v-62.1H590.6z"/>
<path class="st0" d="M621.8,228.6l-10.2,7.5c-3.7,3-8.8,3.2-13.6,0.3c-6.5-3.8-13.3-7.3-20-10.5c-5.1-2.5-8.1-6.9-7.7-11.9l0.8-12.7
	c0.6-11.6-8.5-22.1-20-23.1l-27.8-2.8c-11.6-1.7-22.6,6.6-24.3,18.9l-1.7,12.5c-0.8,4.9-4.7,9-9.7,10.3c-7.9,1.1-15.2,3.9-22.4,6.6
	c-4.5,2-9.8,0.8-13-3.3l-8.2-9c-7.5-9-21.1-10.2-30.3-2.5l-21,17.3c-9.1,7.5-10.7,21.1-3.6,30.9l7.6,10.2c3,3.7,3.2,8.8,0.3,13.6
	c-3.7,6.4-7.2,13.3-10.5,20c-2.5,5.1-6.9,8-11.9,7.7l-12.7-0.8c-11.6-0.6-22,8.3-23.2,19.9l-1.7,13.6l-1.3,13.8
	c-0.8,5.7,0.7,11.4,4.3,16.1c3.5,4.5,8.7,7.5,14.5,8.3l12.5,1.7c4.9,0.8,9,4.7,10.3,9.7c1.1,7.9,3.9,15.3,6.7,22.5
	c2,4.5,0.8,9.8-3.3,13l-9.3,8.5c-8.6,8.3-9.2,21.8-1.2,30.3l17.2,20.9c7.3,8.9,20.5,10.5,30.1,3.6l10.2-7.5c3.7-3,8.8-3.2,13.6-0.3
	c6.3,3.9,13.3,7.2,20,10.5c5.1,2.5,8.1,6.9,7.7,11.9l-0.8,12.7c-0.6,11.6,8.5,22.1,20,23.1l27.7,2.8c5.7,0.8,11.5-0.6,16.1-4.3
	c4.5-3.5,7.4-8.6,8.2-14.6l1.7-12.5c0.8-4.9,4.7-9,9.7-10.3c7.9-1.1,15.2-3.9,22.4-6.6c4.5-2,9.8-0.8,13,3.3l8.2,9
	c7.5,9,21.1,10.2,30.3,2.5l21-17.3c8.9-7.3,10.4-20.4,3.5-30.1l-7.6-10.2c-3-3.7-3.2-8.8-0.3-13.6c3.7-6.4,7.1-13.4,10.5-20
	c2.5-5.1,6.9-8,11.9-7.7l12.7,0.8c11.6,0.6,22-8.3,23.1-20l2.7-27.6c0.8-5.7-0.6-11.5-4.3-16.1c-3.5-4.5-8.7-7.5-14.5-8.3l-12.5-1.7
	c-4.9-0.8-9-4.7-10.3-9.7c-1.1-7.9-3.9-15.2-6.7-22.5c-2-4.5-0.8-9.8,3.3-13l9-8.2c9-7.5,10.2-21.1,2.5-30.4l-17.7-21.5
	C644.6,223.4,631.4,221.9,621.8,228.6z M642.2,273.9c3.4,4.1,3.1,10.5-1.1,13.9l-7.8,7.1c-6.4,5.2-8.5,14.1-5.2,21.3
	c2.1,5.7,4.2,11.5,5.1,17.5l0.1,0.4c1.7,7.8,8.3,14,16.3,15.2l10.8,1.5c2.7,0.4,5,1.8,6.8,3.9c1.6,2,2.3,4.6,1.9,7.4l-2.4,24.1
	c-0.5,5.4-5.4,9.6-10.8,9.3l-11.1-0.7c-8-0.3-15,4-18.7,11.7c-2.8,5.6-5.6,11.5-8.7,16.7c-4.4,7.4-4,15.7,0.9,21.7l6.3,8.5
	c3.2,4.6,2.6,10.6-1.5,13.9l-18.2,14.9c-4.1,3.4-10.5,3.1-13.9-1.1l-7.1-7.8c-5.2-6.4-14.1-8.5-21.4-5.3c-5.7,2.1-11.5,4.2-17.5,5.1
	l-0.4,0.1c-3,0.7-5.9,2.1-8.2,4c-3.7,3-6.3,7.3-7,12.2l-1.4,10.9c-0.4,2.8-1.7,5.1-3.9,6.8c-2,1.6-4.6,2.3-7.4,1.9l-24.1-2.4
	c-5.4-0.6-9.6-5.4-9.3-10.8l0.7-11.1c0.3-8-4.1-15.1-11.7-18.7c-5.6-2.8-11.5-5.6-16.7-8.7c-7.4-4.4-15.7-4-21.7,0.9l0,0l-8.5,6.3
	c-4.6,3.2-10.6,2.6-13.9-1.5l-14.9-18.2l-0.2-0.3c-4.1-4.3-2.8-10.5,0.6-13.8l7.8-7.1c6.4-5.2,8.5-14.1,5.2-21.3
	c-2.1-5.6-4.2-11.5-5.1-17.5l-0.1-0.4c-1.7-7.8-8.3-14-16.3-15.2l-10.8-1.5c-2.8-0.4-5-1.8-6.8-3.9c-1.6-2-2.3-4.6-1.9-7.4l1.2-12
	l1.6-11.8c0.5-5.5,5.4-9.6,10.8-9.3l11.1,0.7c8,0.3,15-4,18.7-11.7c2.8-5.6,5.6-11.5,8.7-16.7c4.4-7.4,4-15.7-0.9-21.7l-6.3-8.5
	c-3.4-4.8-2.7-11.1,1.7-14.7l18.2-14.9c4.1-3.4,10.5-3.1,13.9,1.1l7.1,7.8c5.2,6.4,14.1,8.5,21.4,5.3c5.6-2.1,11.5-4.2,17.5-5.1
	l0.4-0.1c7.8-1.7,14-8.3,15.2-16.3l1.5-10.8c0.8-5.6,5.8-9.6,11.2-8.7l24.1,2.4c5.4,0.5,9.6,5.4,9.3,10.8l-0.7,11.1
	c-0.3,8,4.1,15.1,11.7,18.7c5.6,2.8,11.3,5.6,16.6,8.7c7.4,4.4,15.7,4,21.7-0.9l0,0l8.5-6.3c4.6-3.2,10.6-2.6,13.9,1.5L642.2,273.9
	L642.2,273.9z"/>
<path class="st0" d="M519.3,296.5c-34.3,0-62.2,27.9-62.2,62.2s27.9,62.2,62.2,62.2s62.2-27.9,62.2-62.2
	C581.5,324.5,553.6,296.5,519.3,296.5z M519.3,390.7c-17.6,0-32-14.3-32-32c0-17.6,14.3-32,32-32c17.6,0,32,14.3,32,32
	C551.2,376.4,536.9,390.7,519.3,390.7z"/>
<path class="st0" d="M311.6,332.4l-3.1-6.6c-1.2-2.3,0.4-4.4,1.1-5.3c2.9-3.3,5.6-6.8,8.2-10c0.9-1.1,2.7-2.9,5.4-2.3l7,1.9
	c7.5,1.9,15.4-2.5,17.7-9.8l4.6-14.9c1.3-3.7,1-7.6-0.6-11.1c-1.7-3.4-4.6-5.9-8.2-7.3l-6.6-2.3c-1.9-0.7-3.1-2.6-3.2-4.6
	c0.2-4.7-0.4-9.2-1.2-13.7c-0.4-1.8,0.5-3.6,2.4-4.7l5.9-3.4c6.9-3.6,9.5-12.3,5.7-19.3l-7.2-13.7c-3.6-6.9-12.2-9.7-19.5-6.5
	l-6.6,3.1c-2.3,1.2-4.4-0.4-5.3-1.1c-3.1-2.9-6.8-5.6-10-8.2c-1.1-0.9-2.9-2.7-2.3-5.4l1.9-7c1.9-7.5-2.5-15.4-9.8-17.6l-7.5-2.6
	l-7.4-2.2c-7.3-2.6-15.6,1.3-18.4,9l-2.3,6.6c-0.7,1.9-2.6,3.1-4.6,3.2c-4.7-0.2-9.2,0.4-13.7,1.2c-1.8,0.4-3.7-0.5-4.7-2.4
	l-3.6-6.3c-4.1-6.6-12.8-8.8-19.4-4.8l-13.5,7.1c-6.6,3.5-9.5,11.8-6.4,19l3.1,6.6c1.2,2.3-0.4,4.4-1.1,5.3c-2.9,3.1-5.6,6.6-8.2,10
	c-0.9,1.1-2.7,2.9-5.4,2.3l-7-1.9c-7.5-1.9-15.4,2.5-17.7,9.8l-4.6,14.9c-2.6,7.3,1.3,15.6,9,18.4l6.6,2.3c1.9,0.7,3.1,2.6,3.2,4.6
	c-0.2,4.7,0.4,9.2,1.2,13.7c0.4,1.8-0.5,3.7-2.4,4.7l-5.9,3.4c-3.3,1.7-5.7,4.8-6.9,8.4c-1,3.7-0.7,7.6,1.1,10.9l7.2,13.7
	c0.4,0.9,0.9,1.7,1.5,2.4c4.1,4.9,11.1,6.8,17.4,4l6.6-3.1c2.3-1.2,4.4,0.4,5.3,1.1c3.1,2.9,6.6,5.7,10,8.2c1.1,0.9,2.9,2.7,2.3,5.4
	l-1.9,7c-1.9,7.5,2.5,15.4,9.8,17.7l14.9,4.6c3.7,1.3,7.6,1,11.1-0.6c3.4-1.7,5.9-4.6,7.3-8.2l2.3-6.6c0.7-1.9,2.6-3.1,4.6-3.2
	c4.7,0.2,9.2-0.4,13.7-1.2c1.8-0.4,3.6,0.5,4.7,2.4l3.4,5.9c3.6,6.9,12.3,9.5,19.3,5.7l14-7.4C312,347.8,314.8,339.5,311.6,332.4z
	 M290.1,326.1l-11.1,5.8c-1.8,0.9-3.9,0.3-4.9-1.4l-2.7-4.6c-2.3-4.5-7.4-6.8-12.1-5.7c-3,0.5-6.1,1-9.1,0.9l-0.3,0
	c-4.9,0.2-9.4,3.2-11,7.8l-1.9,5.4c-0.4,0.9-1,1.8-1.9,2.1c-0.5,0.3-1.5,0.6-2.8,0l-12-3.8c-1.8-0.5-3-2.7-2.6-4.5l1.5-5.6
	c1.2-4.7-0.5-9.3-4.6-12.5c-2.7-2.1-5.2-4-7.6-6.1c-3.8-3.5-8.9-4.3-12.9-2.1l-5.1,2.3c-1.9,0.9-4,0.2-4.8-1.6l-5.8-10.9
	c-0.4-0.9-0.5-1.9-0.3-2.7c0.3-0.9,0.8-1.5,1.7-2.1l4.6-2.7c4.5-2.3,6.8-7.4,5.7-12.1c-0.5-3-1-6.1-0.9-9.1l0-0.3
	c0-2.8-1.1-5.3-2.7-7.3c-1.4-1.6-3-2.9-5.1-3.7l-5.4-1.9c-2-0.7-3-2.7-2.3-4.8l3.8-12c0.5-1.8,2.7-3,4.5-2.6l5.6,1.5
	c4.7,1.2,9.3-0.5,12.5-4.6c2.1-2.7,4-5.2,6.1-7.6c3.5-3.8,4.3-8.9,2.1-12.9l-2.3-5.1c-0.9-1.9-0.2-4,1.5-4.8l10.9-5.8l0.3-0.2
	c1.7-1,3.9-0.2,4.7,1.2l2.7,4.6c2.3,4.5,7.4,6.8,12.1,5.7c3-0.5,6.1-1,9.1-0.9l0.3,0c4.9-0.2,9.3-3.1,11-7.8l1.9-5.4
	c0.7-2,2.7-3,4.8-2.3l5.9,1.9l5.9,2c1.8,0.5,3,2.7,2.6,4.5l-1.5,5.6c-1.2,4.7,0.5,9.3,4.6,12.5c2.6,2,5.2,4,7.6,6.1
	c3.8,3.5,8.9,4.3,12.9,2.1l5.1-2.3c2-0.8,4.3-0.2,5.3,1.6l5.8,10.9c0.9,1.8,0.3,3.9-1.4,4.9l-4.6,2.7c-4.5,2.3-6.8,7.4-5.7,12.1
	c0.5,3,1,6.1,0.9,9.1l0,0.3c0.2,4.9,3.2,9.4,7.8,11l5.4,1.9c0.9,0.4,1.8,1,2.1,1.9c0.3,0.5,0.6,1.5,0,2.8l-3.8,12
	c-0.5,1.8-2.7,3-4.5,2.6l-5.6-1.5c-4.7-1.2-9.3,0.5-12.5,4.6c-2,2.6-4,5.2-6.1,7.6c-3.5,3.8-4.3,8.9-2.1,13l2.3,5.1
	C292.6,323.1,291.9,325.2,290.1,326.1z"/>
<path class="st0" d="M284.8,237.8c-6.3-9.5-16-16-27.3-18.2c-23.2-4.6-45.8,10.4-50.5,33.6l0,0c-2.3,11.3,0,22.7,6.3,32.2
	s16,16,27.3,18.2c2.9,0.6,5.7,0.9,8.6,0.9c8.4,0,16.5-2.4,23.6-7.2c9.5-6.3,16-16,18.2-27.3C293.4,258.8,291.1,247.3,284.8,237.8z
	 M265.5,264.9c-0.9,4.4-3.4,8.2-7.1,10.7c-3.7,2.5-8.2,3.3-12.6,2.5c-4.4-0.9-8.2-3.4-10.7-7.1s-3.3-8.2-2.5-12.6l0,0
	c0.9-4.4,3.4-8.2,7.1-10.7c3.7-2.5,8.2-3.3,12.6-2.5c4.4,0.9,8.2,3.4,10.7,7.1C265.5,256,266.4,260.5,265.5,264.9z"/>
</svg>
