<?xml version="1.0" encoding="utf-8"?>
<!-- Generator: Adobe Illustrator 22.0.0, SVG Export Plug-In . SVG Version: 6.00 Build 0)  -->
<svg version="1.1" id="图层_1" xmlns="http://www.w3.org/2000/svg" xmlns:xlink="http://www.w3.org/1999/xlink" x="0px" y="0px"
	 viewBox="0 0 800 800" style="enable-background:new 0 0 800 800;" xml:space="preserve">
<style type="text/css">
	.st0{fill:#A1ACEE;}
</style>
<path class="st0" d="M590.6,556.1v32.3c0,11.4-9.3,20.8-20.8,20.8H259.7c-11.4,0-20.8-9.4-20.8-20.8v-31.3H203v61.1
	c0,14.3,11.7,26,26,26h367.7c14.3,0,26-11.7,26-26v-62.1H590.6z"/>
<path class="st0" d="M508.6,193.5l-2.5,12.4c-0.7,4.7-4.4,8.3-9.9,9.3c-7.4,1.5-14.8,3.5-21.9,5.5c-5.5,1.5-10.7,0.2-13.7-3.7
	l-7.9-10c-7.3-9-21-10.8-30.3-3.9l-22.6,16.4c-9.8,6.5-12.4,20-5.5,30.3l7.1,10.4c2.7,4.2,2.5,9.8-0.4,14.1
	c-5.1,6.1-8.7,13-12.3,19.8c-2,4.5-6.8,7.1-11.9,6.2l-12.1-1.2c-11.6-1.8-22.5,6.5-24.3,18.3l-4.1,26.9
	c-1.8,11.7,6.1,22.8,17.9,25.5l12.5,2.5c4.7,0.7,8.3,4.4,9.3,9.9c1.5,7.3,3.5,14.7,5.5,21.9c1.5,5.5,0.2,10.5-3.7,13.7l-10,7.9
	c-9,7.3-10.8,20.9-4,30.3l7.7,11.3l8.2,11.1c3.2,4.8,8.2,8,14,9.2c5.6,1,11.5-0.2,16.3-3.5l10.4-7.1c4.2-2.7,9.8-2.5,14.1,0.4
	c6.1,5.1,13.1,8.8,20,12.3c4.5,2,7.1,6.8,6.2,11.9l-1.3,12.5c-0.9,11.9,7.7,22.3,19.3,23.4l26.8,4.1c11.4,1.7,22.3-5.9,24.8-17.4
	l2.5-12.4c0.7-4.7,4.4-8.3,9.9-9.3c7.3-1.4,14.7-3.5,21.9-5.5c5.5-1.5,10.7-0.2,13.7,3.7l7.9,10c7.3,9,21,10.8,30.3,3.9l22.4-16.4
	c4.8-3.2,8.1-8.1,9.2-14c1-5.6-0.2-11.4-3.6-16.3l-7.1-10.4c-2.7-4.2-2.5-9.8,0.4-14.1c5.1-6.1,8.7-13,12.3-19.8
	c2-4.5,6.8-7.1,11.9-6.2l12.1,1.2c11.6,1.8,22.5-6.5,24.3-18.3l4.1-26.9c1.7-11.4-5.9-22.2-17.5-24.8l-12.5-2.5
	c-4.7-0.7-8.3-4.4-9.3-9.9c-1.5-7.3-3.6-14.7-5.5-21.9c-1.5-5.5-0.2-10.5,3.7-13.7l10-7.9c9-7.3,10.8-20.9,3.9-30.3l-16.5-22.4
	c-3.2-4.8-8.1-8.1-14-9.2c-5.6-1-11.5,0.2-16.3,3.5l-10.4,7.1c-4.2,2.7-9.8,2.5-14.1-0.4c-6.1-5.1-13-8.7-20-12.3
	c-4.5-2-7.1-6.8-6.2-11.9l1.2-12.1c1.8-11.6-6.5-22.5-18.4-24.3l-27.5-4.2C522.1,174.4,511.2,182.1,508.6,193.5z M554,213.7
	c5.3,0.8,9.3,5.8,8.4,11.1l-1.1,10.5c-1.3,8.1,3.1,16.2,10.4,19.3c5.4,2.8,10.9,5.8,15.5,9.6l0.3,0.2c6.5,4.7,15.5,4.9,22.3,0.4
	l9-6.1c2.3-1.5,5-2,7.6-1.6c2.5,0.4,4.8,1.9,6.3,4.2l14.3,19.5c3.2,4.3,2.4,10.7-1.8,14.1l-8.7,6.9c-6.1,5.1-8.5,13-6.2,21.2
	c1.6,6,3.5,12.3,4.7,18.3c1.6,8.5,7.5,14.4,15.1,15.6l10.4,2.1c5.5,1.3,9,6.2,8.2,11.3l-3.6,23.3c-0.8,5.3-5.8,9.3-11.1,8.4
	l-10.5-1.1c-8.1-1.3-16.2,3.1-19.4,10.3c-2.8,5.4-5.8,10.9-9.6,15.5l-0.2,0.3c-1.8,2.5-3,5.5-3.5,8.4c-0.7,4.7,0.2,9.7,2.9,13.8
	l6.2,9.1c1.6,2.3,2.2,4.9,1.6,7.6c-0.4,2.5-1.9,4.8-4.2,6.3L598,486.6c-4.4,3.1-10.7,2.4-14.1-1.8l-6.9-8.7
	c-5.1-6.1-13.1-8.5-21.2-6.2c-6,1.6-12.3,3.5-18.3,4.7c-8.5,1.6-14.4,7.5-15.6,15.1l0,0l-2.1,10.4c-1.3,5.5-6.2,9-11.3,8.2
	l-23.3-3.6l-0.3-0.1c-5.9-0.5-9.1-6-8.8-10.7l1.1-10.5c1.3-8.1-3.1-16.2-10.4-19.3c-5.3-2.7-10.9-5.8-15.5-9.6l-0.3-0.2
	c-6.5-4.7-15.5-4.9-22.3-0.4l-9,6.1c-2.3,1.6-5,2-7.6,1.6c-2.5-0.4-4.8-1.9-6.3-4.2l-7.1-9.7l-6.7-9.8c-3.3-4.4-2.4-10.7,1.8-14.1
	l8.7-6.9c6.1-5.1,8.5-13,6.2-21.2c-1.6-6-3.5-12.3-4.7-18.3c-1.6-8.5-7.5-14.4-15.1-15.6l-10.4-2.1c-5.7-1.3-9.4-6.4-8.5-12.1
	l3.6-23.3c0.8-5.3,5.8-9.3,11.1-8.4l10.5,1.1c8.1,1.3,16.2-3.1,19.4-10.3c2.7-5.3,5.8-10.9,9.6-15.5l0.2-0.3
	c4.7-6.5,4.9-15.5,0.4-22.3l-6.1-9c-3.1-4.8-2.1-11,2.6-14l19.5-14.3c4.3-3.2,10.7-2.4,14.1,1.8l6.9,8.7c5.1,6.1,13.1,8.5,21.2,6.2
	c6-1.6,12.1-3.4,18.2-4.6c8.5-1.6,14.4-7.5,15.6-15.1l0,0l2.1-10.4c1.3-5.5,6.2-9,11.3-8.2L554,213.7L554,213.7z"/>
<path class="st0" d="M519.3,296.5c-34.3,0-62.2,27.9-62.2,62.2s27.9,62.2,62.2,62.2s62.2-27.9,62.2-62.2
	C581.5,324.5,553.6,296.5,519.3,296.5z M519.3,390.7c-17.6,0-32-14.3-32-32c0-17.6,14.3-32,32-32c17.6,0,32,14.3,32,32
	C551.2,376.4,536.9,390.7,519.3,390.7z"/>
<path class="st0" d="M220,351.5l4.1-6c1.4-2.2,4-1.9,5.1-1.7c4.3,0.8,8.7,1.4,12.8,1.9c1.4,0.2,3.9,0.9,4.8,3.5l1.9,6.9
	c2.1,7.4,10,11.9,17.5,10.2l15.2-3.6c3.8-0.7,7-3,9.2-6.2c2.1-3.2,2.8-7,2-10.8l-1.4-6.9c-0.3-2,0.7-4,2.4-5.1
	c4.1-2.2,7.7-5.1,11.2-8c1.3-1.3,3.4-1.5,5.3-0.3l5.9,3.3c6.6,4.1,15.5,1.8,19.5-5l8.1-13.1c4.1-6.6,2.1-15.4-4.4-20l-6-4.1
	c-2.2-1.4-1.9-4-1.7-5.1c0.9-4.2,1.4-8.7,1.9-12.8c0.2-1.4,0.9-3.9,3.5-4.8l6.9-1.9c7.4-2.1,11.9-10,10.1-17.4l-1.6-7.7l-1.8-7.5
	c-1.5-7.7-9-12.8-17.1-11.2l-6.9,1.4c-2,0.3-4-0.7-5.1-2.4c-2.2-4.1-5.1-7.7-8-11.2c-1.3-1.3-1.5-3.5-0.3-5.3l3.5-6.3
	c3.6-6.9,1-15.5-5.7-19.1l-13-8c-6.4-3.9-15-2.1-19.6,4.2l-4.1,6c-1.4,2.2-4,1.9-5.1,1.7c-4.2-0.9-8.5-1.4-12.8-1.9
	c-1.4-0.2-3.9-0.9-4.8-3.5l-1.9-6.9c-2.1-7.4-10-11.9-17.5-10.2l-15.2,3.6c-7.7,1.5-12.8,9-11.2,17.1l1.4,6.9c0.3,2-0.7,4-2.4,5.1
	c-4.1,2.2-7.7,5.1-11.2,8c-1.3,1.3-3.5,1.5-5.3,0.3l-5.9-3.3c-3.2-2-7-2.5-10.7-1.6c-3.7,1-6.9,3.2-8.8,6.5l-8.1,13.1
	c-0.5,0.8-1,1.6-1.3,2.5c-2.2,6-0.1,13,5.5,17l6,4.1c2.2,1.4,1.9,4,1.7,5.1c-0.9,4.2-1.5,8.6-1.9,12.8c-0.2,1.4-0.9,3.9-3.5,4.8
	l-6.9,1.9c-7.4,2.1-11.9,10-10.2,17.5l3.6,15.2c0.7,3.8,3,7,6.2,9.2c3.2,2.1,7,2.8,10.8,2l6.9-1.4c2-0.3,4,0.7,5.1,2.4
	c2.2,4.1,5.1,7.7,8,11.2c1.3,1.3,1.5,3.4,0.3,5.3l-3.3,5.9c-4.1,6.6-1.8,15.5,5,19.5l13.5,8.3C207,359.7,215.5,357.8,220,351.5z
	 M214.4,329.8l-10.7-6.6c-1.7-1.1-2.2-3.2-1.3-4.9l2.6-4.7c2.6-4.3,2-9.9-1.3-13.3c-1.9-2.3-4-4.8-5.4-7.4l-0.2-0.3
	c-2.6-4.1-7.6-6.4-12.4-5.5l-5.6,1.1c-1,0.1-2,0-2.8-0.5c-0.6-0.3-1.2-1-1.4-2.3l-2.9-12.3c-0.5-1.8,0.8-4,2.5-4.5l5.6-1.5
	c4.6-1.3,7.8-5.2,8.4-10.3c0.4-3.4,0.8-6.5,1.4-9.6c1-5-0.8-9.9-4.8-12.2l-4.6-3.2c-1.7-1.2-2.2-3.3-1.1-5l6.4-10.5
	c0.5-0.8,1.3-1.4,2.2-1.6c0.9-0.2,1.7-0.1,2.7,0.4l4.7,2.6c4.3,2.6,9.9,2,13.3-1.3c2.3-1.9,4.8-4,7.4-5.4l0.3-0.2
	c2.3-1.4,4-3.6,4.9-6.1c0.7-2,0.9-4.1,0.6-6.3l-1.1-5.6c-0.4-2.1,0.8-4,2.9-4.4l12.3-2.9c1.8-0.5,4,0.8,4.5,2.5l1.5,5.6
	c1.3,4.6,5.2,7.8,10.3,8.4c3.4,0.4,6.5,0.8,9.6,1.4c5,1,9.9-0.8,12.2-4.8l3.2-4.6c1.2-1.7,3.3-2.2,4.9-1.2l10.5,6.4l0.3,0.1
	c1.7,0.9,2.1,3.2,1.3,4.6l-2.6,4.7c-2.6,4.3-2,9.9,1.3,13.3c1.9,2.3,4,4.8,5.4,7.4l0.2,0.3c2.6,4.1,7.4,6.4,12.4,5.5l5.6-1.1
	c2.1-0.4,4,0.8,4.4,2.9l1.4,6l1.2,6.1c0.5,1.8-0.8,4-2.5,4.5l-5.6,1.5c-4.6,1.3-7.8,5.2-8.4,10.3c-0.4,3.3-0.8,6.5-1.4,9.6
	c-1,5,0.8,9.9,4.8,12.2l4.6,3.2c1.7,1.3,2.3,3.6,1.3,5.4l-6.4,10.5c-1.1,1.7-3.2,2.2-4.9,1.3l-4.7-2.6c-4.3-2.6-9.9-2-13.3,1.3
	c-2.3,1.9-4.8,4-7.4,5.4l-0.3,0.2c-4.1,2.6-6.4,7.6-5.5,12.4l1.1,5.6c0.1,1,0,2-0.5,2.8c-0.3,0.6-1,1.2-2.3,1.4l-12.3,2.9
	c-1.8,0.5-4-0.8-4.5-2.5l-1.5-5.6c-1.3-4.6-5.2-7.8-10.3-8.4c-3.3-0.4-6.5-0.8-9.6-1.4c-5-1-9.9,0.8-12.2,4.8l-3.2,4.6
	C218.2,330.4,216.1,330.9,214.4,329.8z"/>
<path class="st0" d="M284.8,237.8c-6.3-9.5-16-16-27.3-18.2c-23.2-4.6-45.8,10.4-50.5,33.6l0,0c-2.3,11.3,0,22.7,6.3,32.2
	s16,16,27.3,18.2c2.9,0.6,5.7,0.9,8.6,0.9c8.4,0,16.5-2.4,23.6-7.2c9.5-6.3,16-16,18.2-27.3C293.4,258.8,291.1,247.3,284.8,237.8z
	 M265.5,264.9c-0.9,4.4-3.4,8.2-7.1,10.7c-3.7,2.5-8.2,3.3-12.6,2.5c-4.4-0.9-8.2-3.4-10.7-7.1s-3.3-8.2-2.5-12.6l0,0
	c0.9-4.4,3.4-8.2,7.1-10.7c3.7-2.5,8.2-3.3,12.6-2.5c4.4,0.9,8.2,3.4,10.7,7.1C265.5,256,266.4,260.5,265.5,264.9z"/>
</svg>
