<?xml version="1.0" encoding="utf-8"?>
<!-- Generator: Adobe Illustrator 22.0.0, SVG Export Plug-In . SVG Version: 6.00 Build 0)  -->
<svg version="1.1" id="图层_1" xmlns="http://www.w3.org/2000/svg" xmlns:xlink="http://www.w3.org/1999/xlink" x="0px" y="0px"
	 viewBox="0 0 800 800" style="enable-background:new 0 0 800 800;" xml:space="preserve">
<style type="text/css">
	.st0{fill:#A1ACEE;}
</style>
<path class="st0" d="M590.6,556.1v32.3c0,11.4-9.3,20.8-20.8,20.8H259.7c-11.4,0-20.8-9.4-20.8-20.8v-31.3H203v61.1
	c0,14.3,11.7,26,26,26h367.7c14.3,0,26-11.7,26-26v-62.1H590.6z"/>
<path class="st0" d="M600,214.2l-8.8,9c-3.2,3.6-8.2,4.5-13.4,2.4c-7.1-2.7-14.3-5.1-21.4-7.2c-5.4-1.7-9.1-5.6-9.5-10.6l-1.2-12.7
	c-1.3-11.6-11.8-20.4-23.4-19.7l-27.9,1.6c-11.7,0.1-21.3,10.1-21.1,22.4l0.3,12.6c0,5-3.2,9.6-8,11.7c-7.6,2.3-14.4,6.2-21.1,10
	c-4.1,2.7-9.5,2.3-13.4-1.2l-9.5-7.6c-8.8-7.7-22.4-6.7-30.3,2.2l-18,20.3c-7.8,8.8-7.2,22.5,1.3,31.1l9.1,8.9
	c3.6,3.2,4.5,8.2,2.4,13.4c-2.7,6.9-5,14.2-7.2,21.4c-1.7,5.4-5.5,9-10.6,9.5l-12.7,1.2c-11.6,1.3-20.4,11.7-19.7,23.3l0.4,13.7
	l0.9,13.8c0.1,5.8,2.5,11.2,6.8,15.3c4.2,3.9,9.8,6,15.6,5.9l12.6-0.3c5,0,9.6,3.2,11.7,8c2.3,7.6,6.3,14.5,10.2,21.1
	c2.7,4.1,2.3,9.5-1.2,13.4l-7.9,9.8c-7.2,9.5-5.6,22.9,3.6,30.1l20.3,17.9c8.6,7.6,21.9,7.1,30.3-1.2l8.8-9
	c3.2-3.6,8.2-4.5,13.4-2.4c6.9,2.8,14.2,5,21.4,7.2c5.4,1.7,9.1,5.6,9.5,10.6l1.2,12.7c1.3,11.6,11.8,20.4,23.4,19.7l27.7-1.6
	c5.8-0.1,11.2-2.4,15.3-6.8c3.9-4.2,6-9.7,5.8-15.7l-0.3-12.6c0-5,3.2-9.6,8-11.7c7.6-2.3,14.4-6.2,21.1-10
	c4.1-2.7,9.5-2.3,13.4,1.2l9.5,7.6c8.8,7.7,22.4,6.7,30.3-2.2l18-20.3c7.6-8.6,7.1-21.8-1.3-30.3l-9.1-8.9
	c-3.6-3.2-4.5-8.2-2.4-13.4c2.7-6.9,4.9-14.3,7.2-21.4c1.7-5.4,5.5-9,10.6-9.5l12.7-1.2c11.6-1.3,20.4-11.7,19.7-23.4l-1.7-27.7
	c-0.1-5.8-2.4-11.2-6.8-15.3c-4.2-3.9-9.8-6-15.6-5.9l-12.6,0.3c-5,0-9.6-3.2-11.7-8c-2.3-7.6-6.2-14.4-10.2-21.1
	c-2.7-4.1-2.3-9.5,1.2-13.4l7.6-9.5c7.7-8.8,6.7-22.4-2.3-30.4l-20.8-18.5C621.7,205.4,608.5,206,600,214.2z M627.3,255.6
	c4,3.5,4.7,9.9,1.1,13.9l-6.6,8.2c-5.5,6.1-6.2,15.3-1.7,21.9c3,5.3,6,10.7,7.8,16.5l0.2,0.4c2.9,7.4,10.4,12.5,18.5,12.4l10.9-0.3
	c2.7,0,5.3,1,7.3,2.7c1.9,1.7,3,4.2,3.1,7l1.5,24.1c0.4,5.4-3.8,10.3-9.2,10.9l-11,1.1c-7.9,1-14.2,6.3-16.7,14.5
	c-1.9,6-3.7,12.2-6,17.9c-3.2,8-1.5,16.2,4.3,21.3l7.6,7.4c3.9,4,4.2,10.1,0.7,14l-15.6,17.6c-3.5,4-9.9,4.7-13.9,1.1l-8.2-6.6
	c-6.1-5.5-15.3-6.2-21.9-1.8c-5.3,3-10.7,6-16.5,7.8l-0.4,0.2c-2.9,1.2-5.5,3-7.5,5.2c-3.2,3.6-5.1,8.2-5,13.2l0.3,11
	c0.1,2.8-0.9,5.3-2.7,7.3c-1.7,1.9-4.2,3-7,3.1l-24.1,1.5c-5.4,0.3-10.3-3.8-10.9-9.2l-1.1-11c-1-7.9-6.4-14.2-14.5-16.7
	c-6-1.9-12.2-3.7-17.9-6c-8-3.2-16.2-1.5-21.3,4.3l0,0l-7.4,7.6c-4,3.9-10.1,4.2-14,0.7L411.8,463l-0.2-0.2
	c-4.7-3.6-4.4-10-1.6-13.7l6.6-8.2c5.5-6.1,6.2-15.3,1.7-21.9c-3-5.2-6-10.7-7.8-16.5l-0.2-0.4c-2.9-7.4-10.4-12.5-18.5-12.4
	L381,390c-2.8,0.1-5.3-1-7.3-2.7c-1.9-1.7-3-4.2-3.1-7l-0.7-12l-0.3-11.9c-0.4-5.5,3.8-10.3,9.2-10.9l11-1.1
	c7.9-1,14.2-6.3,16.7-14.5c1.9-6,3.7-12.2,6-17.9c3.2-8,1.5-16.2-4.3-21.3l-7.6-7.4c-4.1-4.2-4.4-10.5-0.6-14.8l15.6-17.6
	c3.5-4,9.9-4.7,13.9-1.1l8.2,6.6c6.1,5.5,15.3,6.2,21.9,1.8c5.2-3,10.7-6,16.5-7.8l0.4-0.2c7.4-2.9,12.5-10.4,12.4-18.5l-0.3-10.9
	c-0.1-5.7,4.2-10.4,9.7-10.3l24.1-1.5c5.4-0.4,10.3,3.8,10.9,9.2l1.1,11c1,7.9,6.4,14.2,14.5,16.7c6,1.9,12,3.7,17.8,6
	c8,3.2,16.2,1.5,21.3-4.3l0,0l7.4-7.6c4-3.9,10.1-4.2,14-0.7L627.3,255.6L627.3,255.6z"/>
<path class="st0" d="M519.3,296.5c-34.3,0-62.2,27.9-62.2,62.2s27.9,62.2,62.2,62.2s62.2-27.9,62.2-62.2
	C581.5,324.5,553.6,296.5,519.3,296.5z M519.3,390.7c-17.6,0-32-14.3-32-32c0-17.6,14.3-32,32-32c17.6,0,32,14.3,32,32
	C551.2,376.4,536.9,390.7,519.3,390.7z"/>
<path class="st0" d="M291.4,346.1l-1.3-7.2c-0.6-2.5,1.5-4.1,2.5-4.8c3.6-2.4,7.2-5.1,10.5-7.6c1.1-0.8,3.4-2.1,5.8-0.9l6.2,3.6
	c6.7,3.8,15.5,1.5,19.6-5L343,311c2.2-3.2,2.9-7,2.2-10.9c-0.8-3.7-2.9-6.9-6.1-9.1l-5.8-3.9c-1.6-1.2-2.4-3.3-1.9-5.3
	c1.4-4.5,1.9-9,2.4-13.5c0-1.9,1.4-3.4,3.5-3.9l6.6-1.8c7.6-1.7,12.3-9.5,10.4-17.2l-3.4-15c-1.7-7.6-9.3-12.5-17.2-11.2l-7.2,1.3
	c-2.5,0.6-4.1-1.5-4.8-2.5c-2.3-3.6-5.1-7.2-7.6-10.5c-0.8-1.1-2.1-3.4-0.9-5.8l3.6-6.2c3.8-6.7,1.5-15.5-4.9-19.5l-6.6-4.4l-6.6-4
	c-6.4-4.4-15.4-2.8-20,4l-3.9,5.8c-1.2,1.6-3.3,2.4-5.3,1.9c-4.5-1.4-9-1.9-13.5-2.4c-1.9,0-3.5-1.4-3.9-3.5l-1.9-7
	c-2.3-7.5-10.1-11.8-17.5-9.6l-14.9,3.4c-7.3,1.7-12.2,9-11,16.7l1.3,7.2c0.6,2.5-1.5,4.1-2.5,4.8c-3.6,2.3-7.1,4.9-10.5,7.6
	c-1.1,0.8-3.4,2.1-5.8,0.9l-6.2-3.6c-6.7-3.8-15.5-1.5-19.6,5l-8.3,13.2c-4.4,6.4-2.8,15.4,4,20l5.8,3.9c1.6,1.2,2.4,3.3,1.9,5.3
	c-1.4,4.5-1.9,9-2.4,13.5c0,1.9-1.4,3.5-3.5,3.9l-6.6,1.8c-3.7,0.8-6.7,3.1-8.8,6.3c-1.9,3.3-2.6,7.1-1.7,10.8l3.4,15
	c0.2,1,0.5,1.9,0.9,2.7c2.7,5.8,9,9.4,15.8,8.3l7.2-1.3c2.5-0.6,4.1,1.5,4.8,2.5c2.3,3.6,5,7.2,7.6,10.5c0.8,1.1,2.1,3.4,0.9,5.8
	l-3.6,6.2c-3.8,6.7-1.5,15.5,5,19.6l13.2,8.3c3.2,2.2,7,2.9,10.9,2.2c3.7-0.8,6.9-2.9,9.1-6.1l3.9-5.8c1.2-1.6,3.3-2.4,5.3-1.9
	c4.5,1.4,9,1.9,13.5,2.4c1.9,0,3.4,1.4,3.9,3.5l1.8,6.6c1.7,7.6,9.5,12.3,17.2,10.4l15.4-3.5C287.8,361,292.6,353.7,291.4,346.1z
	 M272.2,334.5l-12.2,2.8c-1.9,0.4-3.8-0.7-4.4-2.6l-1.4-5.1c-1.1-4.9-5.5-8.5-10.3-8.6c-3-0.3-6.2-0.6-9.1-1.5l-0.3-0.1
	c-4.8-1.1-9.9,0.7-12.7,4.7l-3.2,4.7c-0.6,0.8-1.4,1.5-2.3,1.6c-0.6,0.2-1.6,0.2-2.7-0.7l-10.7-6.7c-1.6-1-2.2-3.4-1.4-5l2.9-5
	c2.4-4.2,1.9-9.1-1.3-13.2c-2.1-2.7-4-5.2-5.8-7.8c-2.8-4.3-7.5-6.4-11.9-5.3l-5.5,0.9c-2,0.4-3.9-0.9-4.3-2.8l-2.8-12
	c-0.2-1,0-1.9,0.4-2.7c0.5-0.8,1.2-1.3,2.2-1.5l5.1-1.4c4.9-1.1,8.5-5.5,8.6-10.3c0.3-3,0.6-6.2,1.5-9.1l0.1-0.3
	c0.7-2.7,0.3-5.4-0.8-7.8c-0.9-1.9-2.2-3.6-4-4.9l-4.7-3.2c-1.8-1.1-2.2-3.4-1-5.2l6.7-10.7c1-1.6,3.4-2.2,5-1.4l5,2.9
	c4.2,2.4,9.1,1.9,13.2-1.3c2.7-2.1,5.2-4,7.8-5.8c4.3-2.8,6.4-7.5,5.3-11.9l-0.9-5.5c-0.4-2,0.9-3.9,2.7-4.2l12-2.8l0.3-0.1
	c1.9-0.5,3.8,0.8,4.2,2.4l1.4,5.1c1.1,4.9,5.5,8.5,10.3,8.6c3,0.3,6.2,0.6,9.1,1.5l0.3,0.1c4.8,1.1,9.8-0.7,12.7-4.7l3.2-4.7
	c1.1-1.8,3.4-2.2,5.2-1l5.2,3.3l5.1,3.5c1.6,1,2.2,3.4,1.4,5l-2.9,5c-2.4,4.2-1.9,9.1,1.3,13.2c2,2.6,4,5.2,5.8,7.8
	c2.8,4.3,7.5,6.4,11.9,5.3l5.5-0.9c2.1-0.3,4.2,0.9,4.7,2.9l2.8,12c0.4,1.9-0.7,3.8-2.6,4.4l-5.1,1.4c-4.9,1.1-8.5,5.5-8.6,10.3
	c-0.3,3-0.6,6.2-1.5,9.1l-0.1,0.3c-1.1,4.8,0.7,9.9,4.7,12.7l4.7,3.2c0.8,0.6,1.5,1.4,1.6,2.3c0.2,0.6,0.2,1.6-0.7,2.7l-6.7,10.7
	c-1,1.6-3.4,2.2-5,1.4l-5-2.9c-4.2-2.4-9.1-1.9-13.2,1.3c-2.6,2-5.2,4-7.8,5.8c-4.3,2.8-6.4,7.5-5.4,12l0.9,5.5
	C275.4,332.2,274.2,334.1,272.2,334.5z"/>
<path class="st0" d="M284.8,237.8c-6.3-9.5-16-16-27.3-18.2c-23.2-4.6-45.8,10.4-50.5,33.6l0,0c-2.3,11.3,0,22.7,6.3,32.2
	s16,16,27.3,18.2c2.9,0.6,5.7,0.9,8.6,0.9c8.4,0,16.5-2.4,23.6-7.2c9.5-6.3,16-16,18.2-27.3C293.4,258.8,291.1,247.3,284.8,237.8z
	 M265.5,264.9c-0.9,4.4-3.4,8.2-7.1,10.7c-3.7,2.5-8.2,3.3-12.6,2.5c-4.4-0.9-8.2-3.4-10.7-7.1s-3.3-8.2-2.5-12.6l0,0
	c0.9-4.4,3.4-8.2,7.1-10.7c3.7-2.5,8.2-3.3,12.6-2.5c4.4,0.9,8.2,3.4,10.7,7.1C265.5,256,266.4,260.5,265.5,264.9z"/>
</svg>
