<?xml version="1.0" encoding="utf-8"?>
<!-- Generator: Adobe Illustrator 22.0.0, SVG Export Plug-In . SVG Version: 6.00 Build 0)  -->
<svg version="1.1" id="图层_1" xmlns="http://www.w3.org/2000/svg" xmlns:xlink="http://www.w3.org/1999/xlink" x="0px" y="0px"
	 viewBox="0 0 800 800" style="enable-background:new 0 0 800 800;" xml:space="preserve">
<style type="text/css">
	.st0{fill:#A1ACEE;}
</style>
<path class="st0" d="M590.6,556.1v32.3c0,11.4-9.3,20.8-20.8,20.8H259.7c-11.4,0-20.8-9.4-20.8-20.8v-31.3H203v61.1
	c0,14.3,11.7,26,26,26h367.7c14.3,0,26-11.7,26-26v-62.1H590.6z"/>
<path class="st0" d="M476.3,198.9l-0.1,12.6c0.2,4.8-2.7,9-7.9,11.1c-7,3-13.8,6.3-20.4,9.7c-5.1,2.6-10.4,2.3-14.2-1l-9.7-8.3
	c-9-7.4-22.7-6.5-30.5,2.1l-18.9,20.5c-8.3,8.3-8.2,22,0.5,30.8l9,8.9c3.5,3.6,4.4,9.1,2.4,13.9c-3.8,7-6,14.5-8.2,21.9
	c-1.1,4.8-5.3,8.3-10.5,8.4l-12.1,1.2c-11.7,0.6-20.8,10.8-20.2,22.7l1.2,27.2c0.5,11.8,10.5,21.2,22.6,21.5l12.8,0
	c4.8-0.2,9,2.7,11.1,7.9c2.9,6.8,6.3,13.7,9.7,20.4c2.6,5.1,2.3,10.3-1,14.2l-8.3,9.7c-7.4,9-6.5,22.6,2.1,30.5l9.8,9.5l10.2,9.3
	c4.1,4.1,9.6,6.3,15.5,6.2c5.7-0.1,11.2-2.5,15.3-6.6l8.9-9c3.6-3.5,9.1-4.4,13.9-2.4c7,3.8,14.6,6.1,22,8.1
	c4.8,1.1,8.3,5.3,8.4,10.5l1.2,12.5c1.5,11.9,11.9,20.4,23.5,19.1l27.1-1.3c11.5-0.5,20.7-10.1,21-21.9l0.1-12.6
	c-0.2-4.8,2.7-9,7.9-11.1c6.9-2.8,13.7-6.3,20.4-9.7c5.1-2.6,10.4-2.3,14.2,1l9.7,8.3c9,7.4,22.7,6.5,30.5-2.1l18.8-20.5
	c4.1-4.1,6.4-9.6,6.2-15.5c-0.1-5.7-2.4-11.1-6.7-15.3l-9-8.9c-3.5-3.6-4.4-9.1-2.4-13.9c3.8-7,6-14.5,8.2-21.9
	c1.1-4.8,5.3-8.3,10.5-8.4L683,387c11.7-0.6,20.8-10.8,20.2-22.7l-1.2-27.2c-0.5-11.5-10.1-20.6-22-20.9l-12.8,0
	c-4.8,0.2-9-2.7-11.1-7.9c-2.9-6.8-6.4-13.7-9.7-20.4c-2.6-5.1-2.3-10.3,1-14.2l8.3-9.7c7.4-9,6.5-22.6-2.1-30.5L633,214.8
	c-4.1-4.1-9.6-6.4-15.5-6.2c-5.7,0.1-11.2,2.5-15.3,6.6l-8.9,9c-3.6,3.5-9.1,4.4-13.9,2.4c-7-3.8-14.5-6-22-8.1
	c-4.8-1.1-8.3-5.3-8.4-10.5l-1.2-12.1c-0.6-11.7-10.8-20.8-22.8-20.2l-27.8,1.2C485.8,177.5,476.7,187.1,476.3,198.9z M524.8,209.7
	c5.4-0.3,10.2,3.8,10.5,9.3l1,10.5c0.3,8.2,6.2,15.3,14,16.9c5.8,1.7,11.8,3.5,17.1,6.4l0.4,0.2c7.3,3.3,16.2,1.7,21.9-3.9l7.7-7.8
	c1.9-1.9,4.5-3,7.1-3.1c2.5-0.1,5.1,0.9,7,2.9l17.9,16.3c4,3.6,4.5,10,1,14.2l-7.2,8.4c-5,6.2-5.8,14.4-1.9,22
	c2.8,5.6,5.8,11.4,8.2,17c3.3,8,10.2,12.6,17.9,12.3l10.6,0c5.6,0.2,10,4.3,10.2,9.5l1.1,23.5c0.3,5.4-3.8,10.2-9.3,10.5l-10.5,1
	c-8.2,0.3-15.3,6.2-17,13.9c-1.7,5.8-3.5,11.8-6.4,17.1l-0.2,0.4c-1.2,2.8-1.8,6-1.7,9c0.2,4.8,2.1,9.4,5.6,12.9l7.9,7.7
	c2,2,3.1,4.4,3.1,7.1c0.1,2.5-0.9,5.1-2.9,7l-16.3,17.9c-3.7,4-10,4.5-14.2,1l-8.4-7.2c-6.2-5-14.5-5.8-22-1.9
	c-5.6,2.8-11.4,5.8-17,8.2c-8,3.3-12.6,10.2-12.3,17.9l0,0l0,10.6c-0.2,5.6-4.3,10-9.5,10.2l-23.5,1.1l-0.3,0
	c-5.9,0.7-10.1-4.1-10.7-8.7l-1-10.5c-0.3-8.2-6.2-15.3-14-16.9c-5.7-1.6-11.8-3.5-17.1-6.4l-0.4-0.2c-7.3-3.3-16.2-1.7-21.9,3.9
	l-7.7,7.8c-2,2-4.5,3-7.1,3.1c-2.5,0.1-5.1-0.9-7-2.9l-8.9-8.1l-8.5-8.3c-4.1-3.6-4.5-10-1-14.2l7.2-8.4c5-6.2,5.8-14.4,1.9-22
	c-2.8-5.6-5.8-11.4-8.2-17c-3.3-8-10.2-12.6-17.9-12.3l-10.6,0c-5.8-0.1-10.5-4.5-10.7-10.2l-1.1-23.5c-0.3-5.4,3.8-10.2,9.3-10.5
	l10.5-1c8.2-0.3,15.3-6.2,17-13.9c1.6-5.7,3.5-11.8,6.4-17.1l0.2-0.4c3.3-7.3,1.7-16.2-3.9-21.9l-7.8-7.7c-4-4-4.2-10.4-0.2-14.2
	l16.3-17.9c3.6-4,10-4.5,14.2-1l8.4,7.2c6.2,5,14.5,5.8,22,1.9c5.6-2.8,11.2-5.7,17-8.1c8-3.3,12.6-10.2,12.3-17.9l0,0l0-10.6
	c0.2-5.6,4.3-10,9.5-10.2L524.8,209.7L524.8,209.7z"/>
<path class="st0" d="M519.3,296.5c-34.3,0-62.2,27.9-62.2,62.2s27.9,62.2,62.2,62.2s62.2-27.9,62.2-62.2
	C581.5,324.5,553.6,296.5,519.3,296.5z M519.3,390.7c-17.6,0-32-14.3-32-32c0-17.6,14.3-32,32-32c17.6,0,32,14.3,32,32
	C551.2,376.4,536.9,390.7,519.3,390.7z"/>
<path class="st0" d="M193.1,337.8l5.8-4.4c2-1.7,4.4-0.5,5.4,0c3.8,2.1,7.8,4,11.6,5.8c1.2,0.6,3.4,2.1,3.4,4.8l-0.4,7.2
	c-0.3,7.7,5.7,14.5,13.4,15.2l15.5,1.3c3.9,0.5,7.6-0.6,10.7-3c3-2.4,4.8-5.7,5.3-9.6l0.8-7c0.3-2,1.9-3.6,3.9-4.1
	c4.6-0.8,8.9-2.4,13.1-4.1c1.7-0.8,3.7-0.3,5.1,1.3l4.6,5c5,6,14.1,6.6,20.1,1.4l11.8-9.9c6-5,6.9-14,2.1-20.4l-4.4-5.8
	c-1.7-2-0.5-4.4,0-5.4c2.2-3.7,4-7.8,5.8-11.6c0.6-1.2,2.1-3.4,4.8-3.4l7.2,0.4c7.7,0.3,14.5-5.7,15.1-13.3l0.9-7.8l0.6-7.7
	c1-7.7-4.6-15-12.7-16l-7-0.8c-2-0.3-3.6-1.9-4.1-3.9c-0.8-4.6-2.4-8.9-4.1-13.1c-0.8-1.7-0.3-3.8,1.3-5.1l5.3-4.9
	c5.6-5.4,5.8-14.4,0.6-19.9l-9.8-11.7c-4.8-5.7-13.6-6.8-19.9-2.2l-5.8,4.4c-2,1.7-4.4,0.5-5.4,0c-3.7-2.2-7.6-4-11.6-5.8
	c-1.2-0.6-3.4-2.1-3.4-4.8l0.4-7.2c0.3-7.7-5.7-14.5-13.4-15.2l-15.5-1.3c-7.7-1-15,4.6-16,12.7l-0.8,7c-0.3,2-1.9,3.6-3.9,4.1
	c-4.6,0.8-8.9,2.4-13.1,4.1c-1.7,0.8-3.8,0.3-5.1-1.3l-4.6-5c-2.4-2.9-5.9-4.5-9.6-4.9c-3.8-0.2-7.5,0.9-10.4,3.4l-11.8,9.9
	c-0.8,0.6-1.4,1.3-2,2c-3.9,5-4.2,12.3-0.2,17.9l4.4,5.8c1.7,2,0.5,4.4,0,5.4c-2.2,3.7-4.1,7.7-5.8,11.6c-0.6,1.2-2.1,3.4-4.8,3.4
	l-7.2-0.4c-7.7-0.3-14.5,5.7-15.2,13.4l-1.3,15.5c-0.5,3.9,0.6,7.6,3,10.7c2.4,3,5.7,4.8,9.6,5.3l7,0.8c2,0.3,3.6,1.9,4.1,3.9
	c0.8,4.6,2.4,8.9,4.1,13.1c0.8,1.7,0.3,3.7-1.3,5.1l-5,4.6c-6,5-6.6,14.1-1.4,20.1l10.2,12.1C178.2,341.5,186.9,342.4,193.1,337.8z
	 M194.7,315.4l-8-9.6c-1.2-1.5-1.1-3.7,0.3-5.1l3.9-3.6c3.9-3.2,5-8.7,3-13.1c-1.1-2.8-2.3-5.8-2.8-8.7L191,275
	c-1.2-4.8-5.1-8.5-10-9.1l-5.7-0.7c-1-0.2-1.9-0.6-2.5-1.4c-0.5-0.4-0.9-1.3-0.6-2.7l1.1-12.6c0.1-1.9,2-3.5,3.8-3.5l5.8,0.3
	c4.8,0.2,9-2.5,11.2-7.2c1.4-3.1,2.8-5.9,4.3-8.7c2.6-4.5,2.3-9.6-0.7-13l-3.4-4.5c-1.2-1.6-1-3.8,0.5-5.1l9.4-8
	c0.8-0.6,1.7-0.9,2.6-0.8c0.9,0.1,1.7,0.5,2.4,1.3l3.6,3.9c3.2,3.9,8.7,5,13.1,3c2.8-1.1,5.8-2.3,8.7-2.8l0.3-0.1
	c2.7-0.6,5-2.2,6.6-4.2c1.3-1.7,2.2-3.6,2.5-5.8l0.7-5.7c0.2-2.1,2-3.5,4.2-3.3l12.6,1.1c1.9,0.1,3.5,2,3.5,3.8l-0.3,5.8
	c-0.2,4.8,2.5,9,7.2,11.2c3.1,1.4,5.9,2.8,8.7,4.3c4.5,2.6,9.6,2.3,13-0.7l4.5-3.4c1.6-1.2,3.8-1,5,0.4l8,9.4l0.3,0.2
	c1.4,1.4,1,3.7-0.2,4.8l-3.9,3.6c-3.9,3.2-5,8.7-3,13.1c1.1,2.8,2.3,5.8,2.8,8.7l0.1,0.3c1.2,4.8,5.1,8.4,10,9.1l5.7,0.7
	c2.1,0.2,3.5,2,3.3,4.2l-0.5,6.2l-0.7,6.2c-0.1,1.9-2,3.5-3.8,3.5l-5.8-0.3c-4.8-0.2-9,2.5-11.2,7.2c-1.4,3-2.8,5.9-4.3,8.7
	c-2.6,4.5-2.3,9.6,0.7,13l3.4,4.5c1.2,1.7,1.1,4.1-0.5,5.5l-9.4,8c-1.5,1.2-3.7,1.1-5.1-0.3l-3.6-3.9c-3.2-3.9-8.7-5-13.1-3
	c-2.8,1.1-5.8,2.3-8.7,2.8l-0.3,0.1c-4.8,1.2-8.5,5.1-9.1,10l-0.7,5.7c-0.2,1-0.6,1.9-1.4,2.5c-0.4,0.5-1.3,0.9-2.7,0.6l-12.6-1.1
	c-1.9-0.1-3.5-2-3.5-3.8l0.3-5.8c0.2-4.8-2.5-9-7.2-11.2c-3-1.4-5.9-2.8-8.7-4.3c-4.5-2.6-9.6-2.3-13.1,0.7l-4.5,3.4
	C198.1,317.2,195.9,317,194.7,315.4z"/>
<path class="st0" d="M284.8,237.8c-6.3-9.5-16-16-27.3-18.2c-23.2-4.6-45.8,10.4-50.5,33.6l0,0c-2.3,11.3,0,22.7,6.3,32.2
	s16,16,27.3,18.2c2.9,0.6,5.7,0.9,8.6,0.9c8.4,0,16.5-2.4,23.6-7.2c9.5-6.3,16-16,18.2-27.3C293.4,258.8,291.1,247.3,284.8,237.8z
	 M265.5,264.9c-0.9,4.4-3.4,8.2-7.1,10.7c-3.7,2.5-8.2,3.3-12.6,2.5c-4.4-0.9-8.2-3.4-10.7-7.1s-3.3-8.2-2.5-12.6l0,0
	c0.9-4.4,3.4-8.2,7.1-10.7c3.7-2.5,8.2-3.3,12.6-2.5c4.4,0.9,8.2,3.4,10.7,7.1C265.5,256,266.4,260.5,265.5,264.9z"/>
</svg>
