<?xml version="1.0" encoding="utf-8"?>
<!-- Generator: Adobe Illustrator 22.0.0, SVG Export Plug-In . SVG Version: 6.00 Build 0)  -->
<svg version="1.1" id="图层_1" xmlns="http://www.w3.org/2000/svg" xmlns:xlink="http://www.w3.org/1999/xlink" x="0px" y="0px"
	 viewBox="0 0 800 800" style="enable-background:new 0 0 800 800;" xml:space="preserve">
<style type="text/css">
	.st0{fill:#A1ACEE;}
</style>
<path class="st0" d="M590.6,556.1v32.3c0,11.4-9.3,20.8-20.8,20.8H259.7c-11.4,0-20.8-9.4-20.8-20.8v-31.3H203v61.1
	c0,14.3,11.7,26,26,26h367.7c14.3,0,26-11.7,26-26v-62.1H590.6z"/>
<path class="st0" d="M562.8,199l-6.4,10.9c-2.2,4.2-6.9,6.4-12.4,5.6c-7.5-1-15.1-1.5-22.5-1.9c-5.7-0.3-10.2-3.2-11.8-8l-4.2-12
	c-4-10.9-16.4-17-27.5-13.5l-26.7,8.2c-11.3,3-18.2,14.9-15.1,26.9l3.3,12.2c1.2,4.8-0.8,10.1-4.9,13.3c-6.8,4.1-12.5,9.5-18,14.8
	c-3.3,3.6-8.7,4.5-13.3,2l-11-5.1c-10.4-5.4-23.4-1.1-28.9,9.5l-12.6,24.1c-5.5,10.5-1.6,23.6,8.7,29.9l11,6.4
	c4.2,2.2,6.4,6.9,5.6,12.4c-0.9,7.4-1.4,15-1.9,22.5c-0.3,5.7-3.2,10-8,11.8l-12,4.2c-10.9,4-17,16.2-13.6,27.4l3.7,13.2l4.2,13.2
	c1.5,5.6,5.1,10.2,10.3,13.2c5,2.8,11,3.5,16.6,2l12.2-3.3c4.8-1.2,10.1,0.8,13.3,4.9c4.1,6.8,9.6,12.6,14.9,18.1
	c3.6,3.3,4.5,8.7,2,13.3l-5.3,11.4c-4.7,11,0,23.6,10.7,28.4l24,12.5c10.2,5.3,23,1.7,29.1-8.4l6.4-10.9c2.2-4.2,6.9-6.4,12.4-5.6
	c7.3,1.1,15,1.4,22.5,1.9c5.7,0.3,10.2,3.2,11.8,8l4.2,12c4,10.9,16.4,17,27.5,13.5l26.5-8.2c5.6-1.5,10.3-5,13.2-10.3
	c2.8-5,3.5-10.8,1.9-16.6l-3.3-12.2c-1.2-4.8,0.8-10.1,4.9-13.3c6.8-4.1,12.5-9.5,18-14.8c3.3-3.6,8.7-4.5,13.3-2l11,5.1
	c10.4,5.4,23.4,1.1,28.9-9.5l12.6-24.1c5.3-10.2,1.6-22.9-8.5-29.1l-11-6.4c-4.2-2.2-6.4-6.9-5.6-12.4c0.9-7.4,1.4-15.1,1.9-22.5
	c0.3-5.7,3.2-10,8-11.8l12-4.2c10.9-4,17-16.2,13.5-27.5l-8.3-26.5c-1.5-5.6-5-10.3-10.3-13.2c-5-2.8-11-3.5-16.6-2l-12.2,3.3
	c-4.8,1.2-10.1-0.8-13.3-4.9c-4.1-6.8-9.5-12.5-14.9-18.1c-3.6-3.3-4.5-8.7-2-13.3l5.1-11c5.4-10.4,1.1-23.4-9.5-29l-24.7-12.9
	C581.8,185.3,569,189,562.8,199z M599.2,232.7c4.8,2.5,6.9,8.4,4.4,13.3l-4.4,9.5c-3.9,7.3-2.3,16.3,3.6,21.7
	c4.2,4.4,8.4,9,11.5,14.1l0.2,0.3c4.6,6.5,13.1,9.6,20.9,7.6l10.5-2.9c2.6-0.7,5.3-0.3,7.7,0.9c2.2,1.2,3.9,3.3,4.6,6l7.2,23.1
	c1.6,5.1-1.2,10.9-6.3,12.8l-10.4,3.7c-7.5,2.8-12.2,9.5-12.7,18.1c-0.4,6.2-0.7,12.8-1.5,18.8c-1.2,8.5,2.4,16.1,9.3,19.6l9.1,5.4
	c4.8,3,6.5,8.7,4.1,13.4l-10.9,20.8c-2.5,4.8-8.4,6.9-13.3,4.4l-9.5-4.4c-7.3-3.9-16.3-2.3-21.7,3.5c-4.4,4.2-9,8.4-14.1,11.5
	l-0.3,0.2c-2.5,1.8-4.6,4.2-6,6.9c-2.2,4.2-2.9,9.2-1.7,14l2.9,10.6c0.7,2.7,0.5,5.4-0.9,7.7c-1.2,2.2-3.3,3.9-6,4.6l-23.1,7.2
	c-5.2,1.6-10.9-1.2-12.8-6.3l-3.7-10.4c-2.8-7.5-9.6-12.3-18.1-12.7c-6.2-0.4-12.8-0.7-18.8-1.5c-8.5-1.2-16.1,2.4-19.6,9.3l0,0
	l-5.4,9.1c-3,4.8-8.7,6.5-13.4,4.1l-20.8-10.9l-0.3-0.2c-5.4-2.3-6.7-8.6-4.9-12.9l4.4-9.5c3.9-7.3,2.3-16.3-3.6-21.7
	c-4.1-4.3-8.4-9-11.5-14.1l-0.2-0.3c-4.6-6.5-13.1-9.6-20.9-7.6l-10.5,2.9c-2.7,0.7-5.3,0.3-7.7-0.9c-2.2-1.2-3.9-3.3-4.6-6
	l-3.6-11.5l-3.2-11.4c-1.7-5.2,1.2-10.9,6.3-12.8l10.4-3.7c7.5-2.8,12.2-9.5,12.7-18.1c0.4-6.2,0.7-12.8,1.5-18.8
	c1.2-8.5-2.4-16.1-9.3-19.6l-9.1-5.4c-5-3.1-6.8-9.1-4.2-14.2l10.9-20.8c2.5-4.8,8.4-6.9,13.3-4.4l9.5,4.4
	c7.3,3.9,16.3,2.3,21.7-3.5c4.3-4.1,9-8.4,14.1-11.5l0.3-0.2c6.5-4.6,9.6-13.1,7.6-20.9l-2.9-10.5c-1.4-5.5,1.6-11.1,6.9-12.4
	l23.1-7.2c5.1-1.6,10.9,1.2,12.8,6.3l3.7,10.4c2.8,7.5,9.6,12.3,18.1,12.7c6.2,0.4,12.6,0.7,18.7,1.6c8.5,1.2,16.1-2.4,19.6-9.3l0,0
	l5.4-9.1c3-4.8,8.7-6.5,13.4-4.1L599.2,232.7L599.2,232.7z"/>
<path class="st0" d="M519.3,296.5c-34.3,0-62.2,27.9-62.2,62.2s27.9,62.2,62.2,62.2s62.2-27.9,62.2-62.2
	C581.5,324.5,553.6,296.5,519.3,296.5z M519.3,390.7c-17.6,0-32-14.3-32-32c0-17.6,14.3-32,32-32c17.6,0,32,14.3,32,32
	C551.2,376.4,536.9,390.7,519.3,390.7z"/>
<path class="st0" d="M261.3,355.3l1.1-7.2c0.3-2.6,2.8-3.4,3.9-3.8c4.2-1.1,8.4-2.5,12.4-3.8c1.3-0.4,3.9-0.9,5.8,1.1l4.7,5.5
	c5.1,5.8,14.1,6.5,20.2,1.7l12.2-9.8c3.1-2.3,5.1-5.7,5.6-9.5c0.5-3.8-0.5-7.5-2.8-10.6l-4.2-5.6c-1.1-1.6-1.1-3.9-0.1-5.6
	c2.8-3.8,4.8-7.9,6.7-12c0.7-1.8,2.4-2.8,4.6-2.5l6.8,0.4c7.7,0.8,14.7-5,15.5-12.8l1.7-15.3c0.8-7.7-4.7-14.9-12.5-16.2l-7.2-1.1
	c-2.6-0.3-3.4-2.8-3.8-3.9c-1-4.2-2.5-8.4-3.8-12.4c-0.4-1.3-0.9-3.9,1.1-5.8l5.5-4.7c5.8-5.1,6.5-14.1,1.7-20l-4.8-6.3l-4.9-6
	c-4.6-6.3-13.6-7.7-20.2-2.8l-5.6,4.2c-1.6,1.1-3.9,1.1-5.6,0.1c-3.8-2.8-7.9-4.8-12-6.7c-1.8-0.7-2.8-2.5-2.5-4.6l0.5-7.2
	c0.3-7.8-5.7-14.4-13.4-14.8l-15.2-1.7c-7.5-0.8-14.5,4.5-15.9,12.2l-1.1,7.2c-0.3,2.6-2.8,3.4-3.9,3.8c-4.2,1-8.3,2.4-12.4,3.8
	c-1.3,0.4-3.9,0.9-5.8-1.1l-4.7-5.5c-5.1-5.8-14.1-6.5-20.2-1.7l-12.2,9.8c-6.3,4.6-7.7,13.6-2.8,20.2l4.2,5.6
	c1.1,1.6,1.1,3.9,0.1,5.6c-2.8,3.8-4.8,7.9-6.7,12c-0.7,1.8-2.5,2.8-4.6,2.5l-6.8-0.4c-3.7-0.4-7.4,0.8-10.4,3.1
	c-2.9,2.5-4.8,5.9-5.2,9.7l-1.7,15.3c-0.1,1-0.2,1.9-0.1,2.8c0.6,6.4,5.5,11.8,12.2,13l7.2,1.1c2.6,0.3,3.4,2.8,3.8,3.9
	c1,4.2,2.3,8.4,3.8,12.4c0.4,1.3,0.9,3.9-1.1,5.8l-5.5,4.7c-5.8,5.1-6.5,14.1-1.7,20.2l9.8,12.2c2.3,3.1,5.7,5.1,9.5,5.6
	c3.8,0.5,7.5-0.5,10.6-2.8l5.6-4.2c1.6-1.1,3.9-1.1,5.6-0.1c3.8,2.8,7.9,4.8,12,6.7c1.8,0.7,2.8,2.4,2.5,4.6l-0.4,6.8
	c-0.8,7.7,5,14.7,12.8,15.5l15.7,1.7C253.1,368.3,260,362.9,261.3,355.3z M247,338l-12.4-1.4c-2-0.3-3.4-1.9-3.3-3.9l0.3-5.3
	c0.6-5-2.4-9.8-6.9-11.5c-2.8-1.3-5.7-2.6-8.1-4.4l-0.3-0.2c-4.2-2.6-9.6-2.6-13.5,0.3l-4.6,3.4c-0.9,0.5-1.8,0.9-2.7,0.7
	c-0.6,0-1.5-0.3-2.3-1.5l-7.9-9.8c-1.2-1.4-1-3.9,0.3-5.2l4.4-3.8c3.6-3.2,4.8-8,3.2-12.9c-1.1-3.2-2.1-6.3-2.9-9.3
	c-1.2-5-5-8.5-9.6-8.9l-5.5-0.9c-2-0.3-3.4-2.1-3.1-4l1.3-12.2c0.1-1,0.6-1.8,1.3-2.4s1.5-0.8,2.6-0.7l5.3,0.3
	c5,0.6,9.8-2.4,11.5-6.9c1.3-2.8,2.6-5.7,4.4-8.1l0.2-0.3c1.5-2.3,2.1-5,1.8-7.6c-0.2-2.1-0.9-4.1-2.2-5.9l-3.4-4.6
	c-1.3-1.7-1-3.9,0.7-5.3l9.8-7.9c1.4-1.2,3.9-1,5.2,0.3l3.8,4.4c3.2,3.6,8,4.8,12.9,3.2c3.2-1.1,6.3-2.1,9.3-2.9
	c5-1.2,8.5-5,8.9-9.6l0.9-5.5c0.3-2,2.1-3.4,3.9-3.1l12.2,1.3l0.4,0c2,0.1,3.3,2,3.2,3.6L266,195c-0.6,5,2.4,9.8,6.9,11.5
	c2.8,1.3,5.7,2.6,8.1,4.4l0.3,0.2c4.2,2.6,9.4,2.6,13.5-0.3l4.6-3.4c1.7-1.3,3.9-1,5.3,0.7l3.9,4.8l3.7,5c1.2,1.4,1,3.9-0.3,5.2
	l-4.4,3.8c-3.6,3.2-4.8,8-3.2,12.9c1,3.1,2.1,6.3,2.9,9.3c1.2,5,5,8.5,9.6,8.9l5.5,0.9c2.1,0.4,3.6,2.2,3.4,4.3l-1.3,12.2
	c-0.3,2-1.9,3.4-3.9,3.3l-5.3-0.3c-5-0.6-9.8,2.4-11.5,6.9c-1.3,2.8-2.6,5.7-4.4,8.1l-0.2,0.3c-2.6,4.2-2.6,9.6,0.3,13.5l3.4,4.6
	c0.5,0.9,0.9,1.8,0.7,2.7c0,0.6-0.3,1.5-1.5,2.3l-9.8,7.9c-1.4,1.2-3.9,1-5.2-0.3l-3.8-4.4c-3.2-3.6-8-4.8-12.9-3.2
	c-3.1,1-6.3,2.1-9.3,2.9c-5,1.2-8.5,5-9,9.6l-0.9,5.5C250.7,336.9,249,338.3,247,338z"/>
<path class="st0" d="M284.8,237.8c-6.3-9.5-16-16-27.3-18.2c-23.2-4.6-45.8,10.4-50.5,33.6l0,0c-2.3,11.3,0,22.7,6.3,32.2
	s16,16,27.3,18.2c2.9,0.6,5.7,0.9,8.6,0.9c8.4,0,16.5-2.4,23.6-7.2c9.5-6.3,16-16,18.2-27.3C293.4,258.8,291.1,247.3,284.8,237.8z
	 M265.5,264.9c-0.9,4.4-3.4,8.2-7.1,10.7c-3.7,2.5-8.2,3.3-12.6,2.5c-4.4-0.9-8.2-3.4-10.7-7.1s-3.3-8.2-2.5-12.6l0,0
	c0.9-4.4,3.4-8.2,7.1-10.7c3.7-2.5,8.2-3.3,12.6-2.5c4.4,0.9,8.2,3.4,10.7,7.1C265.5,256,266.4,260.5,265.5,264.9z"/>
</svg>
