<?xml version="1.0" encoding="utf-8"?>
<!-- Generator: Adobe Illustrator 22.0.0, SVG Export Plug-In . SVG Version: 6.00 Build 0)  -->
<svg version="1.1" id="图层_1" xmlns="http://www.w3.org/2000/svg" xmlns:xlink="http://www.w3.org/1999/xlink" x="0px" y="0px"
	 viewBox="0 0 800 800" style="enable-background:new 0 0 800 800;" xml:space="preserve">
<style type="text/css">
	.st0{fill:#A1ACEE;}
</style>
<path class="st0" d="M590.6,556.1v32.3c0,11.4-9.3,20.8-20.8,20.8H259.7c-11.4,0-20.8-9.4-20.8-20.8v-31.3H203v61.1
	c0,14.3,11.7,26,26,26h367.7c14.3,0,26-11.7,26-26v-62.1H590.6z"/>
<path class="st0" d="M648.9,255.5l-11.6,5c-4.3,2.1-9.3,1.1-13.3-2.8c-5.5-5.2-11.3-10.1-17.1-14.8c-4.4-3.6-6.3-8.6-4.8-13.4
	l3.7-12.2c3.2-11.2-3.2-23.4-14.2-27.1l-26.4-9.1c-10.9-4.3-23.5,1.3-28,12.8l-4.5,11.8c-1.9,4.6-6.6,7.7-11.8,7.8
	c-7.9-0.7-15.7,0.3-23.3,1.3c-4.8,0.9-9.7-1.5-11.9-6.2l-5.9-10.6c-5.2-10.5-18.2-14.7-28.9-9.4l-24.4,12
	c-10.6,5.2-15.2,18.1-10.6,29.3l5.1,11.7c2.1,4.3,1.1,9.3-2.8,13.3c-5.1,5.4-10,11.3-14.8,17.1c-3.6,4.4-8.5,6.2-13.4,4.8l-12.2-3.7
	c-11.2-3.2-23.3,3.1-27.1,14.1l-4.8,12.8l-4.4,13.1c-2.1,5.4-1.9,11.3,0.5,16.7c2.4,5.2,6.8,9.3,12.2,11.4l11.8,4.5
	c4.6,1.9,7.7,6.6,7.8,11.8c-0.7,7.9,0.3,15.8,1.4,23.4c0.9,4.8-1.5,9.7-6.2,11.9l-11,6.1c-10.3,6.1-13.9,19.1-8.1,29.2l12,24.3
	c5.1,10.3,17.6,14.9,28.5,10.4l11.6-5c4.3-2.1,9.3-1.1,13.3,2.8c5.3,5.2,11.3,10,17.1,14.8c4.4,3.6,6.3,8.6,4.8,13.4l-3.7,12.2
	c-3.2,11.2,3.2,23.4,14.2,27.1l26.3,9c5.4,2.1,11.3,2,16.7-0.5c5.2-2.4,9.2-6.7,11.3-12.3l4.5-11.8c1.9-4.6,6.6-7.7,11.8-7.8
	c7.9,0.7,15.7-0.3,23.3-1.3c4.8-0.9,9.7,1.5,11.9,6.2l5.9,10.6c5.2,10.5,18.2,14.7,28.9,9.4l24.4-12c10.3-5.1,14.8-17.5,10.3-28.5
	l-5.1-11.7c-2.1-4.3-1.1-9.3,2.8-13.3c5.1-5.4,10-11.4,14.8-17.1c3.6-4.4,8.5-6.2,13.4-4.8l12.2,3.7c11.2,3.2,23.3-3.1,27.1-14.2
	l8.9-26.3c2.1-5.4,2-11.3-0.5-16.7c-2.4-5.2-6.8-9.3-12.2-11.4l-11.8-4.5c-4.6-1.9-7.7-6.6-7.8-11.8c0.7-7.9-0.3-15.7-1.4-23.4
	c-0.9-4.8,1.5-9.7,6.2-11.9l10.6-5.9c10.5-5.2,14.7-18.2,9.4-29l-12.3-25C672.3,255.6,659.8,251.1,648.9,255.5z M658.4,304.2
	c2.4,4.8,0.6,10.9-4.3,13.3l-9.2,5.1c-7.4,3.6-11.5,11.8-9.9,19.6c0.8,6,1.5,12.2,1,18.2l0,0.4c-0.1,8,4.9,15.5,12.4,18.5l10.2,3.9
	c2.5,1,4.5,2.9,5.7,5.3c1.1,2.3,1.2,5,0.2,7.6l-7.8,22.9c-1.7,5.1-7.4,8.1-12.6,6.6l-10.6-3.2c-7.7-2.1-15.5,0.5-20.9,7.1
	c-4,4.8-8.1,9.9-12.3,14.3c-6,6.2-7.5,14.4-4.1,21.3l4.2,9.7c2.1,5.2,0.1,10.9-4.6,13.2l-21.1,10.4c-4.8,2.4-10.9,0.6-13.3-4.3
	l-5.1-9.2c-3.6-7.4-11.8-11.5-19.6-10c-6,0.8-12.2,1.5-18.2,1l-0.4,0c-3.1,0-6.2,0.7-8.9,2c-4.3,2.1-7.8,5.7-9.6,10.3l-3.9,10.3
	c-1,2.6-2.8,4.6-5.3,5.7c-2.3,1.1-5,1.2-7.6,0.2l-22.9-7.8c-5.1-1.8-8.1-7.4-6.6-12.6l3.2-10.6c2.1-7.7-0.5-15.6-7.1-20.9
	c-4.8-4-9.9-8.1-14.3-12.3c-6.2-6-14.4-7.5-21.3-4.1l0,0l-9.7,4.2c-5.2,2.1-10.9,0.1-13.2-4.6l-10.4-21.1l-0.1-0.3
	c-3-5.1-0.3-10.9,3.7-13.3l9.2-5.1c7.4-3.6,11.5-11.8,9.9-19.6c-0.8-5.9-1.5-12.2-1-18.2l0-0.4c0.1-8-4.9-15.5-12.4-18.5l-10.2-3.9
	c-2.6-1-4.5-2.9-5.7-5.3c-1.1-2.3-1.2-5-0.2-7.6l3.9-11.4l4.2-11.1c1.7-5.2,7.4-8.1,12.6-6.6l10.6,3.2c7.7,2.1,15.5-0.5,20.9-7.1
	c4-4.8,8.1-9.9,12.3-14.3c6-6.2,7.5-14.4,4.1-21.3l-4.2-9.7c-2.2-5.4-0.1-11.4,5-13.9l21.1-10.4c4.8-2.4,10.9-0.6,13.3,4.3l5.1,9.2
	c3.6,7.4,11.8,11.5,19.6,10c5.9-0.8,12.2-1.5,18.2-1l0.4,0c8,0.1,15.5-4.9,18.5-12.4l3.9-10.2c2.1-5.3,7.8-8,12.9-5.9l22.9,7.8
	c5.1,1.7,8.1,7.4,6.6,12.6l-3.2,10.6c-2.1,7.7,0.5,15.6,7.1,20.9c4.8,4,9.7,8,14.2,12.3c6.2,6,14.4,7.5,21.3,4.1l0,0l9.7-4.2
	c5.2-2.1,10.9-0.1,13.2,4.6L658.4,304.2L658.4,304.2z"/>
<path class="st0" d="M519.3,296.5c-34.3,0-62.2,27.9-62.2,62.2s27.9,62.2,62.2,62.2s62.2-27.9,62.2-62.2
	C581.5,324.5,553.6,296.5,519.3,296.5z M519.3,390.7c-17.6,0-32-14.3-32-32c0-17.6,14.3-32,32-32c17.6,0,32,14.3,32,32
	C551.2,376.4,536.9,390.7,519.3,390.7z"/>
<path class="st0" d="M330.8,309.1l-5-5.3c-1.9-1.8-1-4.3-0.6-5.4c1.7-4,3.2-8.2,4.6-12.1c0.5-1.3,1.7-3.6,4.4-3.9l7.2-0.4
	c7.7-0.5,13.8-7.2,13.7-14.9l-0.3-15.6c0.1-3.9-1.4-7.5-4.1-10.3c-2.7-2.7-6.2-4.2-10.1-4.3l-7-0.1c-2-0.1-3.8-1.5-4.5-3.4
	c-1.3-4.5-3.3-8.6-5.4-12.6c-1-1.6-0.7-3.6,0.8-5.2l4.5-5.1c5.4-5.6,5.1-14.7-0.7-20.1l-11.1-10.7c-5.6-5.4-14.6-5.4-20.5,0l-5.3,5
	c-1.8,1.9-4.3,1-5.4,0.6c-3.9-1.8-8.2-3.2-12.1-4.6c-1.3-0.5-3.6-1.7-3.9-4.4l-0.4-7.2c-0.5-7.7-7.2-13.8-14.8-13.6l-7.9-0.1
	l-7.7,0.2c-7.8-0.2-14.4,6.1-14.6,14.3l-0.1,7c-0.1,2-1.5,3.8-3.4,4.5c-4.5,1.3-8.6,3.3-12.6,5.4c-1.6,1-3.7,0.7-5.2-0.8l-5.4-4.8
	c-6-5-14.9-4.3-19.9,1.5l-10.6,11c-5.2,5.4-5.3,14.2-0.1,20l5,5.3c1.9,1.8,1,4.3,0.6,5.4c-1.8,3.9-3.2,8-4.6,12.1
	c-0.5,1.3-1.7,3.6-4.4,3.9l-7.2,0.4c-7.7,0.5-13.8,7.2-13.7,14.9l0.3,15.6c-0.2,7.8,6.1,14.4,14.3,14.6l7,0.1c2,0.1,3.8,1.5,4.5,3.4
	c1.3,4.5,3.3,8.6,5.4,12.6c1,1.6,0.7,3.7-0.8,5.2l-4.5,5.1c-2.6,2.7-3.9,6.3-3.9,10.1c0.2,3.8,1.7,7.4,4.5,10l11.1,10.7
	c0.7,0.7,1.4,1.3,2.2,1.8c5.4,3.4,12.7,2.9,17.8-1.7l5.3-5c1.8-1.9,4.3-1,5.4-0.6c3.9,1.8,8.1,3.3,12.1,4.6c1.3,0.5,3.6,1.7,3.9,4.4
	l0.4,7.2c0.5,7.7,7.2,13.8,14.9,13.7l15.6-0.3c3.9,0.1,7.5-1.4,10.3-4.1c2.7-2.7,4.2-6.2,4.3-10.1l0.1-7c0.1-2,1.5-3.8,3.4-4.5
	c4.5-1.3,8.6-3.3,12.6-5.4c1.6-1,3.6-0.7,5.2,0.8l5.1,4.5c5.6,5.4,14.7,5.1,20.1-0.7l11-11.4C336,323.6,336,314.8,330.8,309.1z
	 M308.4,309.9l-8.7,9c-1.4,1.4-3.6,1.5-5.1,0.2l-4-3.5c-3.6-3.5-9.2-4.1-13.3-1.6c-2.7,1.4-5.5,2.9-8.4,3.7l-0.3,0.1
	c-4.6,1.7-7.9,6-8,10.9l-0.1,5.7c-0.1,1-0.4,2-1.1,2.6c-0.4,0.5-1.2,1-2.6,0.9l-12.6,0.2c-1.9,0.1-3.7-1.6-3.9-3.4l-0.3-5.8
	c-0.3-4.8-3.4-8.7-8.3-10.4c-3.2-1.1-6.2-2.2-9.1-3.4c-4.7-2.1-9.8-1.3-12.9,2.1l-4.1,3.8c-1.5,1.4-3.7,1.4-5.1,0l-8.9-8.5
	c-0.7-0.7-1.1-1.6-1.1-2.5s0.3-1.7,1-2.5l3.5-4c3.5-3.6,4.1-9.2,1.6-13.3c-1.4-2.7-2.9-5.5-3.7-8.4l-0.1-0.3
	c-0.9-2.6-2.7-4.7-4.9-6.1c-1.8-1.1-3.8-1.8-6-1.9l-5.7-0.1c-2.1,0-3.7-1.6-3.7-3.8l-0.2-12.6c-0.1-1.9,1.6-3.7,3.4-3.9l5.8-0.3
	c4.8-0.3,8.7-3.4,10.4-8.3c1.1-3.2,2.2-6.2,3.4-9.1c2.1-4.7,1.3-9.8-2.1-12.9l-3.8-4.1c-1.4-1.5-1.4-3.7-0.1-5l8.5-8.9l0.2-0.3
	c1.3-1.5,3.6-1.4,4.8-0.3l4,3.5c3.6,3.5,9.2,4.1,13.3,1.6c2.7-1.4,5.5-2.9,8.4-3.7l0.3-0.1c4.6-1.7,7.8-5.9,8-10.9l0.1-5.7
	c0-2.1,1.6-3.7,3.8-3.7l6.2-0.1l6.2,0.1c1.9-0.1,3.7,1.6,3.9,3.4l0.3,5.8c0.3,4.8,3.4,8.7,8.3,10.4c3.1,1.1,6.2,2.2,9.1,3.4
	c4.7,2.1,9.8,1.3,12.9-2.1l4.1-3.8c1.6-1.4,4-1.5,5.5-0.1l8.9,8.5c1.4,1.4,1.5,3.6,0.2,5.1l-3.5,4c-3.5,3.6-4.1,9.2-1.6,13.3
	c1.4,2.7,2.9,5.5,3.7,8.4l0.1,0.3c1.7,4.6,6,7.9,10.9,8l5.7,0.1c1,0.1,2,0.4,2.6,1.1c0.5,0.4,1,1.2,0.9,2.6l0.2,12.6
	c0.1,1.9-1.6,3.7-3.4,3.9l-5.8,0.3c-4.8,0.3-8.7,3.4-10.4,8.3c-1.1,3.1-2.2,6.2-3.4,9.1c-2.1,4.7-1.3,9.8,2.1,13l3.8,4.1
	C309.8,306.3,309.8,308.5,308.4,309.9z"/>
<path class="st0" d="M284.8,237.8c-6.3-9.5-16-16-27.3-18.2c-23.2-4.6-45.8,10.4-50.5,33.6l0,0c-2.3,11.3,0,22.7,6.3,32.2
	s16,16,27.3,18.2c2.9,0.6,5.7,0.9,8.6,0.9c8.4,0,16.5-2.4,23.6-7.2c9.5-6.3,16-16,18.2-27.3C293.4,258.8,291.1,247.3,284.8,237.8z
	 M265.5,264.9c-0.9,4.4-3.4,8.2-7.1,10.7c-3.7,2.5-8.2,3.3-12.6,2.5c-4.4-0.9-8.2-3.4-10.7-7.1s-3.3-8.2-2.5-12.6l0,0
	c0.9-4.4,3.4-8.2,7.1-10.7c3.7-2.5,8.2-3.3,12.6-2.5c4.4,0.9,8.2,3.4,10.7,7.1C265.5,256,266.4,260.5,265.5,264.9z"/>
</svg>
