<?xml version="1.0" encoding="utf-8"?>
<!-- Generator: Adobe Illustrator 22.0.0, SVG Export Plug-In . SVG Version: 6.00 Build 0)  -->
<svg version="1.1" id="图层_1" xmlns="http://www.w3.org/2000/svg" xmlns:xlink="http://www.w3.org/1999/xlink" x="0px" y="0px"
	 viewBox="0 0 800 800" style="enable-background:new 0 0 800 800;" xml:space="preserve">
<style type="text/css">
	.st0{fill:#A1ACEE;}
</style>
<path class="st0" d="M590.6,556.1v32.3c0,11.4-9.3,20.8-20.8,20.8H259.7c-11.4,0-20.8-9.4-20.8-20.8v-31.3H203v61.1
	c0,14.3,11.7,26,26,26h367.7c14.3,0,26-11.7,26-26v-62.1H590.6z"/>
<path class="st0" d="M446.9,209.8l2.3,12.4c1.1,4.7-1,9.3-5.7,12.4c-6.3,4.2-12.3,8.8-18.2,13.4c-4.5,3.5-9.8,4.2-14.1,1.7
	l-11.1-6.3c-10.2-5.6-23.5-2.1-29.6,7.9L355.8,275c-6.6,9.7-3.9,23.2,6.3,30.1l10.5,7c4.1,2.9,6.1,8.1,5,13.2
	c-2.4,7.5-3.2,15.4-3.9,23c-0.2,4.9-3.6,9.1-8.7,10.2l-11.6,3.4c-11.4,2.8-18.4,14.5-15.6,26.1l6.3,26.4
	c2.7,11.5,14.3,18.8,26.2,16.8L383,429c4.7-1.1,9.3,1,12.4,5.7c4.1,6.2,8.8,12.3,13.4,18.2c3.5,4.5,4.2,9.7,1.7,14.1l-6.3,11.1
	c-5.6,10.2-2.1,23.4,7.8,29.5l11.4,7.5l11.8,7.2c4.8,3.2,10.6,4.4,16.4,3.2c5.6-1.2,10.6-4.6,13.8-9.4l7-10.5
	c2.9-4.1,8.1-6.1,13.2-5c7.5,2.4,15.5,3.2,23.1,3.8c4.9,0.2,9.1,3.6,10.2,8.7l3.5,12.1c3.7,11.4,15.6,17.8,26.7,14.4l26.4-6.3
	c11.2-2.7,18.4-13.9,16.4-25.5l-2.3-12.4c-1.1-4.7,1-9.3,5.7-12.4c6.2-4,12.3-8.8,18.2-13.4c4.5-3.5,9.8-4.2,14.1-1.7l11.1,6.3
	c10.2,5.6,23.5,2.1,29.6-7.9l14.6-23.7c3.2-4.8,4.4-10.6,3.2-16.4c-1.2-5.6-4.5-10.5-9.5-13.7l-10.5-7c-4.1-2.9-6.1-8.1-5-13.2
	c2.4-7.5,3.2-15.4,3.9-23c0.2-4.9,3.6-9.1,8.7-10.2l11.6-3.4c11.4-2.8,18.4-14.5,15.6-26.1l-6.3-26.4c-2.7-11.2-13.8-18.3-25.5-16.3
	l-12.5,2.4c-4.7,1.1-9.3-1-12.4-5.7c-4.1-6.2-8.9-12.3-13.4-18.2c-3.5-4.5-4.2-9.7-1.7-14.1l6.3-11.1c5.6-10.2,2.1-23.4-7.9-29.6
	L603.7,196c-4.8-3.2-10.6-4.4-16.4-3.2c-5.6,1.2-10.6,4.6-13.8,9.4l-7,10.5c-2.9,4.1-8.1,6.1-13.2,5c-7.5-2.4-15.4-3.2-23.1-3.8
	c-4.9-0.2-9.1-3.6-10.2-8.7l-3.4-11.6c-2.8-11.4-14.5-18.4-26.2-15.6l-27.1,6.5C452.2,187,445,198.2,446.9,209.8z M496.5,211.3
	c5.2-1.3,10.8,1.8,12,7.1l2.9,10.1c1.9,8,9,13.8,16.9,14c6,0.5,12.2,1.2,18,3l0.4,0.1c7.8,1.9,16.2-1.4,20.8-8l6.1-9.1
	c1.5-2.2,3.8-3.7,6.4-4.4c2.5-0.6,5.1-0.1,7.5,1.5l20.6,12.7c4.6,2.8,6.3,9,3.7,13.7l-5.5,9.6c-3.8,7-2.9,15.2,2.3,22
	c3.8,5,7.9,10.1,11.2,15.2c4.7,7.2,12.4,10.5,19.9,8.7l10.4-2c5.5-0.9,10.7,2.3,11.9,7.4l5.5,22.9c1.3,5.2-1.8,10.8-7.1,12
	l-10.1,2.9c-8,1.9-13.8,9-14.1,16.9c-0.5,6-1.2,12.2-3,18l-0.1,0.4c-0.7,3-0.7,6.2,0,9.1c1.1,4.7,3.8,8.9,7.9,11.6l9.2,6.1
	c2.3,1.5,3.9,3.7,4.4,6.4c0.6,2.5,0.1,5.1-1.5,7.5l-12.7,20.6c-2.9,4.6-9,6.3-13.7,3.7l-9.6-5.5c-7-3.8-15.3-3-22,2.3
	c-5,3.8-10.1,7.9-15.2,11.2c-7.2,4.7-10.5,12.4-8.7,19.9l0,0l2,10.4c0.9,5.5-2.3,10.7-7.4,11.9l-22.9,5.5l-0.3,0
	c-5.6,1.8-10.7-2.1-12.2-6.5l-2.9-10.1c-1.9-8-9-13.8-16.9-14c-5.9-0.5-12.2-1.2-18-3L492,473c-7.8-1.9-16.2,1.4-20.8,8l-6.1,9.1
	c-1.5,2.3-3.8,3.7-6.4,4.4c-2.5,0.6-5.1,0.1-7.5-1.5l-10.3-6.3l-9.9-6.5c-4.7-2.8-6.3-9-3.7-13.7l5.5-9.6c3.8-7,2.9-15.2-2.3-22
	c-3.8-5-7.9-10.1-11.2-15.2c-4.7-7.2-12.4-10.5-19.9-8.7l-10.4,2c-5.8,1-11.1-2.4-12.5-7.9l-5.5-22.9c-1.3-5.2,1.8-10.8,7.1-12
	l10.1-2.9c8-1.9,13.8-9,14.1-16.9c0.5-5.9,1.2-12.2,3-18l0.1-0.4c1.9-7.8-1.4-16.2-8-20.8l-9.1-6.1c-4.7-3.2-6.1-9.4-2.9-13.9
	l12.7-20.6c2.8-4.6,9-6.3,13.7-3.7l9.6,5.5c7,3.7,15.3,3,22-2.3c5-3.8,9.9-7.7,15.1-11.1c7.2-4.7,10.5-12.4,8.7-19.9l0,0l-2-10.4
	c-0.9-5.5,2.3-10.7,7.4-11.9L496.5,211.3L496.5,211.3z"/>
<path class="st0" d="M519.3,296.5c-34.3,0-62.2,27.9-62.2,62.2s27.9,62.2,62.2,62.2s62.2-27.9,62.2-62.2
	C581.5,324.5,553.6,296.5,519.3,296.5z M519.3,390.7c-17.6,0-32-14.3-32-32c0-17.6,14.3-32,32-32c17.6,0,32,14.3,32,32
	C551.2,376.4,536.9,390.7,519.3,390.7z"/>
<path class="st0" d="M170.5,314.2l7-2.2c2.4-0.9,4.3,1,5.1,1.8c2.9,3.3,6,6.5,8.9,9.4c1,1,2.5,3.1,1.6,5.7l-2.8,6.7
	c-2.9,7.1,0.4,15.6,7.4,18.8l14.2,6.5c3.5,1.8,7.4,2,11.1,0.8c3.6-1.2,6.5-3.7,8.3-7.2l3.1-6.3c1-1.8,3-2.8,5-2.6
	c4.6,0.8,9.2,0.8,13.7,0.6c1.9-0.2,3.5,0.9,4.3,3l2.6,6.3c2.7,7.3,11,11,18.4,8.2l14.5-5.3c7.3-2.7,11.2-10.8,9-18.4l-2.2-7
	c-0.9-2.4,1-4.3,1.8-5.1c3.3-2.7,6.5-6,9.4-8.9c1-1,3.1-2.5,5.7-1.6l6.7,2.8c7.1,2.9,15.6-0.4,18.7-7.4l3.5-7.1l3.2-7
	c3.6-6.9,0.8-15.6-6.5-19.4l-6.3-3.1c-1.8-1-2.8-3-2.6-5c0.8-4.6,0.8-9.2,0.6-13.7c-0.2-1.9,1-3.6,3-4.3l6.7-2.8
	c7.1-3.2,10.4-11.5,7.3-18.6l-5.3-14.3c-2.6-7-10.5-11-17.9-8.8l-7,2.2c-2.4,0.9-4.3-1-5.1-1.8c-2.7-3.3-5.8-6.4-8.9-9.4
	c-1-1-2.5-3.1-1.6-5.7l2.8-6.7c2.9-7.1-0.4-15.6-7.4-18.8l-14.2-6.5c-6.9-3.6-15.6-0.8-19.4,6.5l-3.1,6.3c-1,1.8-3,2.8-5,2.6
	c-4.6-0.8-9.2-0.8-13.7-0.6c-1.9,0.2-3.6-1-4.3-3l-2.6-6.3c-1.3-3.5-4-6.3-7.4-7.9c-3.5-1.5-7.4-1.7-11-0.3l-14.5,5.3
	c-0.9,0.3-1.8,0.7-2.6,1.2c-5.4,3.4-8.2,10.2-6.2,16.8l2.2,7c0.9,2.4-1,4.3-1.8,5.1c-3.3,2.7-6.5,5.8-9.4,8.9c-1,1-3.1,2.5-5.7,1.6
	l-6.7-2.8c-7.1-2.9-15.6,0.4-18.8,7.4l-6.5,14.2c-1.8,3.5-2,7.4-0.8,11.1c1.2,3.6,3.7,6.5,7.2,8.3l6.3,3.1c1.8,1,2.8,3,2.6,5
	c-0.8,4.6-0.8,9.2-0.6,13.7c0.2,1.9-0.9,3.5-3,4.3l-6.3,2.6c-7.3,2.7-11,11-8.2,18.4l5.4,14.9C155.2,312.5,163.1,316.4,170.5,314.2z
	 M179.5,293.7l-4.3-11.8c-0.6-1.9,0.2-3.9,2-4.7l4.9-2.1c4.7-1.7,7.7-6.5,7.2-11.3c-0.1-3-0.2-6.2,0.3-9.2l0-0.3
	c0.5-4.9-1.9-9.7-6.3-12l-5.1-2.6c-0.9-0.5-1.6-1.2-1.9-2.1c-0.3-0.6-0.4-1.5,0.3-2.7l5.3-11.4c0.7-1.8,3.1-2.6,4.8-2l5.3,2.3
	c4.4,1.8,9.3,0.7,13-2.9c2.4-2.4,4.7-4.6,7-6.7c3.9-3.3,5.5-8.2,3.7-12.5l-1.6-5.3c-0.6-2,0.4-3.9,2.2-4.6l11.5-4.3
	c0.9-0.3,1.9-0.3,2.7,0.1c0.8,0.4,1.4,1,1.8,2l2.1,4.9c1.7,4.7,6.5,7.7,11.3,7.2c3-0.1,6.2-0.2,9.2,0.3l0.3,0
	c2.7,0.3,5.4-0.4,7.6-1.7c1.8-1.1,3.3-2.6,4.3-4.6l2.6-5.1c0.9-1.9,3.1-2.6,5-1.7l11.4,5.3c1.8,0.7,2.6,3.1,2,4.8l-2.3,5.3
	c-1.8,4.4-0.7,9.3,2.9,13c2.4,2.4,4.6,4.7,6.7,7c3.3,3.9,8.2,5.5,12.5,3.7l5.3-1.6c2-0.6,3.9,0.4,4.5,2.1l4.3,11.5l0.2,0.3
	c0.8,1.8-0.3,3.8-1.8,4.4l-4.9,2.1c-4.7,1.7-7.7,6.5-7.2,11.3c0.1,3,0.2,6.2-0.3,9.2l0,0.3c-0.5,4.9,1.9,9.6,6.3,12l5.1,2.6
	c1.9,0.9,2.6,3.1,1.7,5l-2.6,5.6l-2.8,5.5c-0.7,1.8-3.1,2.6-4.8,2l-5.3-2.3c-4.4-1.8-9.3-0.7-13,2.9c-2.3,2.3-4.7,4.6-7,6.7
	c-3.9,3.3-5.5,8.2-3.7,12.5l1.6,5.3c0.6,2.1-0.4,4.3-2.3,5l-11.5,4.3c-1.9,0.6-3.9-0.2-4.7-2l-2.1-4.9c-1.7-4.7-6.5-7.7-11.3-7.2
	c-3,0.1-6.2,0.2-9.2-0.3l-0.3,0c-4.9-0.5-9.7,1.9-12,6.3l-2.6,5.1c-0.5,0.9-1.2,1.6-2.1,1.9c-0.6,0.3-1.5,0.4-2.7-0.3l-11.4-5.3
	c-1.8-0.7-2.6-3.1-2-4.8l2.3-5.3c1.8-4.4,0.7-9.3-2.9-13c-2.3-2.3-4.6-4.7-6.7-7c-3.3-3.9-8.2-5.5-12.6-3.8l-5.3,1.6
	C182.2,296.5,180.2,295.5,179.5,293.7z"/>
<path class="st0" d="M284.8,237.8c-6.3-9.5-16-16-27.3-18.2c-23.2-4.6-45.8,10.4-50.5,33.6l0,0c-2.3,11.3,0,22.7,6.3,32.2
	s16,16,27.3,18.2c2.9,0.6,5.7,0.9,8.6,0.9c8.4,0,16.5-2.4,23.6-7.2c9.5-6.3,16-16,18.2-27.3C293.4,258.8,291.1,247.3,284.8,237.8z
	 M265.5,264.9c-0.9,4.4-3.4,8.2-7.1,10.7c-3.7,2.5-8.2,3.3-12.6,2.5c-4.4-0.9-8.2-3.4-10.7-7.1s-3.3-8.2-2.5-12.6l0,0
	c0.9-4.4,3.4-8.2,7.1-10.7c3.7-2.5,8.2-3.3,12.6-2.5c4.4,0.9,8.2,3.4,10.7,7.1C265.5,256,266.4,260.5,265.5,264.9z"/>
</svg>
