<?xml version="1.0" encoding="utf-8"?>
<!-- Generator: Adobe Illustrator 22.0.0, SVG Export Plug-In . SVG Version: 6.00 Build 0)  -->
<svg version="1.1" id="图层_1" xmlns="http://www.w3.org/2000/svg" xmlns:xlink="http://www.w3.org/1999/xlink" x="0px" y="0px"
	 viewBox="0 0 200 200" style="enable-background:new 0 0 200 200;" xml:space="preserve">
<style type="text/css">
	.st0{fill:#C7CDF8;}
</style>
<path class="st0" d="M163,103c0,2.3,0,4.9-0.3,7.2H81.4c0,14,12.3,24.3,25.8,24.3c9.2,0,18-4.6,22.6-12.6h29.8
	c-8,22.6-29.2,37.8-53.3,37.8c-8.6,0-17.2-2-24.9-6c-8,4-18.9,8.3-27.8,8.3c-12,0-16.6-7.2-16.6-18.6c0-6.6,1.4-12.9,3.4-19.2
	c0.9-4,5.7-12.3,7.7-16.3C56.8,92.4,67.9,77,81.7,65.2c-10.6,4.6-22.6,16.3-30.1,24.9c5.7-25.5,28.6-43.8,54.7-43.8h3.4
	c8.6-4,20.9-8.3,30.6-8.3c11.2,0,21.2,4.3,21.2,17.2c0,6.6-2.6,14-5.4,20.3C160.7,83.8,163,93.6,163,103L163,103z M158.1,58
	c0-8-5.7-12.6-13.2-12.6c-6,0-12.6,2.3-18,4.9c11.7,4.6,21.2,12.6,27.5,22.9C156.4,68.6,158.1,62.9,158.1,58z M45.9,144.8
	c0,8.3,4.9,12.6,12.9,12.6c6.3,0,13.2-2.6,18.6-6c-11.7-6.9-20.3-17.5-24.6-30.1C49.6,128.2,45.9,137.4,45.9,144.8L45.9,144.8z
	 M81.4,94.7h51c-0.3-13.5-12.6-23.2-25.5-23.2C93.7,71.5,81.7,81.2,81.4,94.7z"/>
</svg>
