<?xml version="1.0" encoding="utf-8"?>
<!-- Generator: Adobe Illustrator 22.0.0, SVG Export Plug-In . SVG Version: 6.00 Build 0)  -->
<svg version="1.1" id="图层_1" xmlns="http://www.w3.org/2000/svg" xmlns:xlink="http://www.w3.org/1999/xlink" x="0px" y="0px"
	 viewBox="0 0 800 800" style="enable-background:new 0 0 800 800;" xml:space="preserve">
<style type="text/css">
	.st0{fill:#FFFFFF;}
</style>
<g>
	<path class="st0" d="M629.5,175.6H319.4v30.3c0.2,0,0.5,0,0.7,0h284.8c10.5,0,19.1,8.6,19.1,19.1v281.5h29.4v-307
		C653.4,186.4,642.7,175.6,629.5,175.6z"/>
	<path class="st0" d="M568.6,239H231c-13.1,0-23.9,10.7-23.9,23.9v3.7v70.2c11.4-16.7,30.5-27.7,52.3-27.7
		c34.8,0,63.1,28.3,63.1,63.1c0,8.2-1.5,16.1-4.5,23.5l22.8,33.1l50.6-50.6c0-0.9-0.1-1.8-0.1-2.7c0-28.7,23.4-52.1,52.1-52.1
		s52.1,23.4,52.1,52.1s-23.4,52.1-52.1,52.1c-0.9,0-1.8,0-2.7-0.1l-52.9,52.9c0,0.9,0.1,1.8,0.1,2.7c0,28.7-23.4,52.1-52.1,52.1
		s-52.1-23.4-52.1-52.1c0-4.1,0.5-8.1,1.4-12l-24.7-35.8c-0.4,0-0.8,0-1.2,0c-5.3,0-10.6-0.7-15.7-2L207,470.6v126.3v3.6
		c0,13.1,10.7,23.9,23.9,23.9h337.7c13.1,0,23.9-10.7,23.9-23.9V262.9C592.5,249.8,581.7,239,568.6,239z"/>
	<path class="st0" d="M238.3,406.9c6.2,3.8,13.5,6,21.3,6c4.1,0,8-0.6,11.8-1.7l39.3,56.9c-2.6,4.4-4.1,9.6-4.1,15.1
		c0,16.3,13.2,29.6,29.6,29.6c16.3,0,29.6-13.2,29.6-29.6c0-3.6-0.6-7-1.8-10.2l69.6-69.6c3.2,1.2,6.6,1.8,10.2,1.8
		c16.3,0,29.6-13.2,29.6-29.6c-0.4-16.5-13.7-29.7-30-29.7s-29.6,13.2-29.6,29.6c0,3.6,0.6,7,1.8,10.2L346,455.3
		c-3.2-1.2-6.6-1.8-10.2-1.8c-1.7,0-3.4,0.2-5,0.4L291.5,397c5.3-6.9,8.5-15.5,8.5-24.8c0-22.5-18.2-40.6-40.6-40.6
		c-22.5,0-40.6,18.2-40.6,40.6c0,5.6,1.1,10.9,3.2,15.8l-64.4,65.8c-1.3-0.2-2.7-0.3-4.1-0.3c-16.3,0-29.6,13.2-29.6,29.6
		c0,16.3,13.2,29.6,29.6,29.6c16.3,0,29.6-13.2,29.6-29.6c0-5.7-1.6-10.9-4.3-15.4L238.3,406.9z"/>
</g>
</svg>
