<?xml version="1.0" encoding="utf-8"?>
<!-- Generator: Adobe Illustrator 22.0.0, SVG Export Plug-In . SVG Version: 6.00 Build 0)  -->
<svg version="1.1" id="图层_1" xmlns="http://www.w3.org/2000/svg" xmlns:xlink="http://www.w3.org/1999/xlink" x="0px" y="0px"
	 viewBox="0 0 800 800" style="enable-background:new 0 0 800 800;" xml:space="preserve">
<style type="text/css">
	.st0{fill:#A2ADF8;}
</style>
<path class="st0" d="M657,208.9v307.3h32.1V181.1c0-14.3-11.7-26-26-26H324.5v33.1c0.3,0,0.5,0,0.8,0h310.9
	C647.6,188.1,657,197.5,657,208.9z"/>
<path class="st0" d="M596.5,224.3H227.9c-14.3,0-26,11.7-26,26v55h36v-27.2c0-11.5,9.4-20.8,20.8-20.8h310.9
	c11.5,0,20.8,9.4,20.8,20.8V589c0,11.5-9.4,20.8-20.8,20.8H258.7c-11.5,0-20.8-9.4-20.8-20.8v-31.3h-36v61.2c0,14.3,11.7,26,26,26
	h368.6c14.3,0,26-11.7,26-26V250.3C622.5,236,610.8,224.3,596.5,224.3z"/>
<path class="st0" d="M459.8,340.9c-17.8,0-32.3,14.5-32.3,32.3c0,3.9,0.7,7.7,2,11.2l-75.9,75.9c-3.5-1.3-7.2-2-11.2-2
	c-1.9,0-3.7,0.2-5.5,0.5L294,396.7c5.8-7.5,9.2-16.9,9.2-27.1c0-24.5-19.9-44.4-44.4-44.4s-44.4,19.9-44.4,44.4
	c0,6.1,1.2,11.9,3.5,17.2l-70.4,71.9c-1.5-0.2-2.9-0.3-4.5-0.3c-17.8,0-32.3,14.5-32.3,32.3S125.2,523,143,523s32.3-14.5,32.3-32.3
	c0-6.2-1.7-11.9-4.7-16.9l65-66.4c6.8,4.2,14.7,6.6,23.2,6.6c4.5,0,8.8-0.7,12.9-1.9l42.9,62.1c-2.9,4.8-4.5,10.4-4.5,16.4
	c0,17.8,14.5,32.3,32.3,32.3s32.3-14.5,32.3-32.3c0-3.9-0.7-7.7-2-11.2l75.9-75.9c3.5,1.3,7.2,2,11.2,2c17.8,0,32.3-14.5,32.3-32.3
	S477.6,340.9,459.8,340.9z"/>
</svg>
