<?xml version="1.0" encoding="utf-8"?>
<!-- Generator: Adobe Illustrator 22.0.0, SVG Export Plug-In . SVG Version: 6.00 Build 0)  -->
<svg version="1.1" id="图层_1" xmlns="http://www.w3.org/2000/svg" xmlns:xlink="http://www.w3.org/1999/xlink" x="0px" y="0px"
	 viewBox="0 0 800 800" style="enable-background:new 0 0 800 800;" xml:space="preserve">
<style type="text/css">
	.st0{fill:#FFFFFF;}
</style>
<path class="st0" d="M435.3,400.6l207.8-207.8c9.8-9.8,9.8-25.7,0-35.5c-4.7-4.7-11-7.3-17.7-7.3s-13,2.6-17.7,7.3L399.8,365.1
	L192,157.3c-4.7-4.7-11-7.3-17.7-7.3s-13,2.6-17.7,7.3c-9.8,9.8-9.8,25.7,0,35.5l207.8,207.8L156.5,608.5c-9.8,9.8-9.8,25.7,0,35.5
	c4.7,4.7,11,7.3,17.7,7.3s13-2.6,17.7-7.3l207.8-207.8L607.5,644c4.7,4.7,11,7.3,17.7,7.3s13-2.6,17.7-7.3c9.8-9.8,9.8-25.7,0-35.5
	L435.3,400.6z"/>
</svg>
