<?xml version="1.0" encoding="utf-8"?>
<!-- Generator: Adobe Illustrator 22.0.0, SVG Export Plug-In . SVG Version: 6.00 Build 0)  -->
<svg version="1.1" id="图层_1" xmlns="http://www.w3.org/2000/svg" xmlns:xlink="http://www.w3.org/1999/xlink" x="0px" y="0px"
	 viewBox="0 0 200 200" style="enable-background:new 0 0 200 200;" xml:space="preserve">
<style type="text/css">
	.st0{fill:#6E97EB;}
</style>
<path class="st0" d="M176.9,199.8H23.3c-12.7,0-23-10.3-23-23.1V23c0-12.7,10.3-23,23-23h153.7c12.7,0,23,10.3,23.1,23v153.7
	C200,189.4,189.7,199.7,176.9,199.8z M23.3,15.4c-4.2,0-7.7,3.4-7.7,7.7v153.7c0,4.2,3.4,7.7,7.7,7.7H177c4.2,0,7.7-3.4,7.7-7.7V23
	c0-4.2-3.4-7.7-7.7-7.7L23.3,15.4L23.3,15.4z"/>
</svg>
