<?xml version="1.0" encoding="utf-8"?>
<!-- Generator: Adobe Illustrator 22.0.0, SVG Export Plug-In . SVG Version: 6.00 Build 0)  -->
<svg version="1.1" id="图层_1" xmlns="http://www.w3.org/2000/svg" xmlns:xlink="http://www.w3.org/1999/xlink" x="0px" y="0px"
	 viewBox="0 0 200 200" style="enable-background:new 0 0 200 200;" xml:space="preserve">
<style type="text/css">
	.st0{fill:#FFFFFF;}
</style>
<g>
	<path class="st0" d="M170,1.7H30c-13.8,0-25,11.2-25,25v139.9c0,13.8,11.2,25,25,25H170c13.8,0,25-11.2,25-25V26.6
		C195,12.9,183.7,1.7,170,1.7z M180,166.6c0,5.5-4.5,10-10,10H30c-5.5,0-10-4.5-10-10V26.7c0-5.5,4.5-10,10-10H170
		c5.5,0,10,4.5,10,10V166.6z"/>
	<polygon class="st0" points="85,115.4 54.2,84.4 41.8,96.8 78.9,134.1 85,140.2 159.3,65.9 146.9,53.4 	"/>
</g>
</svg>
