<?xml version="1.0" encoding="utf-8"?>
<!-- Generator: Adobe Illustrator 22.0.0, SVG Export Plug-In . SVG Version: 6.00 Build 0)  -->
<svg version="1.1" id="图层_1" xmlns="http://www.w3.org/2000/svg" xmlns:xlink="http://www.w3.org/1999/xlink" x="0px" y="0px"
	 viewBox="0 0 800 800" style="enable-background:new 0 0 800 800;" xml:space="preserve">
<style type="text/css">
	.st0{fill:#FFFFFF;}
</style>
<g>
	<path class="st0" d="M586,293.4c-19-32.2-46.2-59-78.6-77.6c-2.2-1.3-4.7-1.9-7.3-1.9c-5.2,0-10.1,2.8-12.7,7.4c-4,7-1.6,16,5.4,20
		c57.9,33.2,93.9,95.3,93.9,162C586.7,506.2,503,590,400,590s-186.7-83.7-186.7-186.7c0-65.5,33.4-125.1,89.4-159.4
		c6.9-4.2,9.1-13.2,4.8-20.1c-2.7-4.4-7.4-7-12.5-7c-2.7,0-5.3,0.7-7.6,2.2c-31,19-56.9,45.6-74.9,77.1
		c-18.6,32.5-28.5,69.6-28.5,107.2c0,29.1,5.7,57.4,17,84.1c10.9,25.7,26.4,48.8,46.3,68.6c19.8,19.8,42.9,35.4,68.6,46.3
		c26.6,11.3,54.9,17,84.1,17s57.4-5.7,84.1-17c25.7-10.9,48.8-26.4,68.6-46.3c19.8-19.8,35.4-42.9,46.3-68.6
		c11.3-26.6,17-54.9,17-84.1C616,364.5,605.7,326.5,586,293.4z"/>
	<path class="st0" d="M400.1,411.8c8.1,0,14.6-6.6,14.6-14.6V195.3c0-8.1-6.6-14.6-14.6-14.6c-8.1,0-14.6,6.6-14.6,14.6v201.9
		C385.5,405.3,392,411.8,400.1,411.8z"/>
</g>
</svg>
