<?xml version="1.0" encoding="utf-8"?>
<!-- Generator: Adobe Illustrator 22.0.0, SVG Export Plug-In . SVG Version: 6.00 Build 0)  -->
<svg version="1.1" id="图层_1" xmlns="http://www.w3.org/2000/svg" xmlns:xlink="http://www.w3.org/1999/xlink" x="0px" y="0px"
	 viewBox="0 0 800 800" style="enable-background:new 0 0 800 800;" xml:space="preserve">
<style type="text/css">
	.st0{fill:#040000;}
</style>
<g>
	<path class="st0" d="M620.5,149.1H274.1v37l0,3.6l3.6-0.1c0.2,0,0.4,0,0.6,0h314.8c9.7,0,17.6,7.9,17.6,17.6v314.7h39.5V178.9
		C650.3,162.4,637,149.1,620.5,149.1z"/>
	<path class="st0" d="M553.1,219.2H179.8c-16.5,0-29.8,13.4-29.8,29.8v373.3c0,16.5,13.4,29.8,29.8,29.8h373.3
		c16.5,0,29.8-13.4,29.8-29.8V249C582.9,232.6,569.5,219.2,553.1,219.2z M193.3,592.1V277.2c0-9.7,7.9-17.6,17.6-17.6h314.8
		c9.7,0,17.6,7.9,17.6,17.6v314.8c0,9.7-7.9,17.6-17.6,17.6H210.9C201.2,609.7,193.3,601.8,193.3,592.1z"/>
</g>
</svg>
