<?xml version="1.0" encoding="utf-8"?>
<!-- Generator: Adobe Illustrator 22.0.0, SVG Export Plug-In . SVG Version: 6.00 Build 0)  -->
<svg version="1.1" id="图层_1" xmlns="http://www.w3.org/2000/svg" xmlns:xlink="http://www.w3.org/1999/xlink" x="0px" y="0px"
	 viewBox="0 0 800 800" style="enable-background:new 0 0 800 800;" xml:space="preserve">
<style type="text/css">
	.st0{fill:#040000;}
</style>
<path class="st0" d="M619.3,161.4H180.1c-16.5,0-30,13.5-30,30v418.8c0,16.5,13.5,30,30,30h439.2c16.5,0,30-13.5,30-30V191.4
	C649.3,174.9,635.8,161.4,619.3,161.4z M606.4,569c0,16.5-13.5,30-30,30H223c-16.5,0-30-13.5-30-30V232.5c0-16.5,13.5-30,30-30
	h353.4c16.5,0,30,13.5,30,30V569z"/>
</svg>
