<?xml version="1.0" encoding="utf-8"?>
<!-- Generator: Adobe Illustrator 22.0.0, SVG Export Plug-In . SVG Version: 6.00 Build 0)  -->
<svg version="1.1" id="图层_1" xmlns="http://www.w3.org/2000/svg" xmlns:xlink="http://www.w3.org/1999/xlink" x="0px" y="0px"
	 viewBox="0 0 200 200" style="enable-background:new 0 0 200 200;" xml:space="preserve">
<style type="text/css">
	.st0{fill:#5C67B8;}
</style>
<path class="st0" d="M97.1,194.8c-51.8,0-94-42.2-94-94s42.2-94,94-94s94,42.2,94,94S149,194.8,97.1,194.8z M97.1,13
	C48.8,13,9.4,52.4,9.4,100.8s39.4,87.8,87.8,87.8s87.8-39.4,87.8-87.8S145.5,13,97.1,13z"/>
<path class="st0" d="M61.6,100c0,21.2,17.2,38.4,38.4,38.4s38.4-17.2,38.4-38.4S121.2,61.6,100,61.6S61.6,78.8,61.6,100z"/>
</svg>
