<?xml version="1.0" encoding="utf-8"?>
<!-- Generator: Adobe Illustrator 22.0.0, SVG Export Plug-In . SVG Version: 6.00 Build 0)  -->
<svg version="1.1" id="图层_1" xmlns="http://www.w3.org/2000/svg" xmlns:xlink="http://www.w3.org/1999/xlink" x="0px" y="0px"
	 viewBox="0 0 800 800" style="enable-background:new 0 0 800 800;" xml:space="preserve">
<style type="text/css">
	.st0{fill:#A2ADF8;}
</style>
<path class="st0" d="M629.3,191.8v281.1h29.4V166.3c0-13.1-10.7-23.8-23.8-23.8H325.2v30.3c0.2,0,0.5,0,0.7,0h284.4
	C620.8,172.7,629.3,181.3,629.3,191.8z"/>
<path class="st0" d="M574,205.8H236.8c-13.1,0-23.8,10.7-23.8,23.8V280h32.9v-24.9c0-10.5,8.6-19.1,19.1-19.1h284.4
	c10.5,0,19.1,8.6,19.1,19.1v284.4c0,10.5-8.6,19.1-19.1,19.1H265c-10.5,0-19.1-8.6-19.1-19.1v-28.7H213v56
	c0,13.1,10.7,23.8,23.8,23.8H574c13.1,0,23.8-10.7,23.8-23.8V229.6C597.8,216.5,587.1,205.8,574,205.8z"/>
<rect x="244" y="298.6" class="st0" width="96.7" height="41.6"/>
<rect x="190.6" y="376.7" class="st0" width="150.1" height="41.6"/>
<rect x="128.7" y="454.8" class="st0" width="212" height="41.6"/>
</svg>
