<?xml version="1.0" encoding="utf-8"?>
<!-- Generator: Adobe Illustrator 22.0.0, SVG Export Plug-In . SVG Version: 6.00 Build 0)  -->
<svg version="1.1" id="图层_1" xmlns="http://www.w3.org/2000/svg" xmlns:xlink="http://www.w3.org/1999/xlink" x="0px" y="0px"
	 viewBox="0 0 800 800" style="enable-background:new 0 0 800 800;" xml:space="preserve">
<style type="text/css">
	.st0{fill:#FFFFFF;}
</style>
<path class="st0" d="M591.9,258.4v228.1h23.9V237.7c0-10.6-8.7-19.3-19.3-19.3H345.1V243c0.2,0,0.4,0,0.6,0h230.7
	C585,242.9,591.9,249.9,591.9,258.4z"/>
<rect x="278.9" y="345" class="st0" width="78.4" height="33.8"/>
<rect x="235.5" y="408.4" class="st0" width="121.8" height="33.8"/>
<path class="st0" d="M547,269.7H273.4c-10,0-18.3,7.7-19.2,17.4h-0.1v1.9v37.8h120.2v63.4v6.8v56.5v6.8v63.4H254.1v33.5v5.4
	c0,10.6,8.7,19.3,19.3,19.3H547c10.6,0,19.3-8.7,19.3-19.3V289.1C566.4,278.4,557.7,269.7,547,269.7z"/>
<rect x="185.3" y="471.8" class="st0" width="172" height="33.8"/>
</svg>
