<?xml version="1.0" encoding="utf-8"?>
<!-- Generator: Adobe Illustrator 22.0.0, SVG Export Plug-In . SVG Version: 6.00 Build 0)  -->
<svg version="1.1" id="图层_1" xmlns="http://www.w3.org/2000/svg" xmlns:xlink="http://www.w3.org/1999/xlink" x="0px" y="0px"
	 viewBox="0 0 200 200" style="enable-background:new 0 0 200 200;" xml:space="preserve">
<style type="text/css">
	.st0{fill:#354F8A;}
</style>
<path class="st0" d="M109.9,116.9c31.9-6.8,52.3-38.2,45.4-70.2c-6.8-31.9-38.2-52.3-70.2-45.4S32.9,39.6,39.8,71.5
	c4.9,22.7,22.5,40.4,45.2,45.4v83h25v-0.2h25v-25h-25v-12.3h37.5v-24.9h-37.5V116.9z M97.5,62.7c-10.3,0-18.7-8.4-18.8-18.7
	c0-10.3,8.4-18.7,18.7-18.8c10.3,0,18.7,8.4,18.8,18.7c0,0,0,0,0,0C116.2,54.3,107.8,62.7,97.5,62.7L97.5,62.7z"/>
</svg>
