<?xml version="1.0" encoding="utf-8"?>
<!-- Generator: Adobe Illustrator 22.0.0, SVG Export Plug-In . SVG Version: 6.00 Build 0)  -->
<svg version="1.1" id="图层_1" xmlns="http://www.w3.org/2000/svg" xmlns:xlink="http://www.w3.org/1999/xlink" x="0px" y="0px"
	 viewBox="0 0 800 800" style="enable-background:new 0 0 800 800;" xml:space="preserve">
<style type="text/css">
	.st0{fill:#FFFFFF;}
</style>
<g>
	<path class="st0" d="M641.5,163.6H330.8V194c0.2,0,0.5,0,0.7,0h285.3c10.5-0.1,19.1,8.5,19.1,19v282h29.5V187.5
		C665.4,174.4,654.6,163.6,641.5,163.6z"/>
	<path class="st0" d="M580.4,227.1H242.1c-13.1,0-23.9,10.8-23.9,23.9v2.6v48v8.8c7.2-1.3,12.9-1.6,16.2-1.6c1.9,0,3.2,0.1,3.7,0.1
		l20.4,1.5l1.4,62.7c3.7-10.3,9.9-22.2,19.1-32.8c17.9-20.7,42.5-31.6,71.1-31.6c25.7,0,46.5,6.1,61.7,18
		c13.6,10.6,19.4,23.2,22.5,29.9c0.4,0.6,0.6,1.3,0.9,1.8c2.9,6,5.4,12.2,7.4,18.5H483V459h-41.1c-4.7,14.6-11.8,28-21,39.5
		c-9.9,12.6-22.6,21.7-37.7,27.1c-12.4,4.5-23.7,5.4-31,5.4c-5.1,0-8.6-0.5-9.5-0.6l-19.3-2.8v-78.2c-4.5,21.9-40.3,56.5-40.4,56.6
		c-13.8,7.6-29.2,15.8-48.2,15.8c-5.5,0-11.1-0.5-16.6-1.4v12.7v54.3v1.9c0,13.1,10.8,23.9,23.9,23.9h338.3
		c13.1,0,23.9-10.8,23.9-23.9V251C604.3,237.9,593.5,227.1,580.4,227.1z"/>
	<path class="st0" d="M268.5,488.7c21.9-18.5,32.8-49.3,37.9-73.5s17.7-49.4,46.3-49.4s43.8,27.2,43.8,51.1s-13.5,55-50.5,55v36.2
		c0,0,34.5,5.1,57.3-23.6c10.4-13,17.9-29.8,21.2-48h36.1v-37.1h-35.7c-1.7-10.8-5-21.3-9.8-31.2c-4.8-9.8-13.5-37.1-64.8-37.1
		c-51.4,0-69.1,43.8-71.6,59s-8.4,33.7-14.3,46.3c-5.9,12.6-11.8,24.4-35.4,24.4s-34.5-23.3-34.5-44.1c0-20.8,12.6-47.7,43-47.7
		l-0.8-37.9c0,0-33.7-2.5-57.3,26.9c-8.6,10.7-13.4,25.5-15.3,41.3h-29.3v37.1h30.3c2.5,15,7.4,28.6,14.3,37.9
		C198.6,500.5,246.6,507.3,268.5,488.7z"/>
</g>
</svg>
