<?xml version="1.0" encoding="utf-8"?>
<!-- Generator: Adobe Illustrator 22.0.0, SVG Export Plug-In . SVG Version: 6.00 Build 0)  -->
<svg version="1.1" id="图层_1" xmlns="http://www.w3.org/2000/svg" xmlns:xlink="http://www.w3.org/1999/xlink" x="0px" y="0px"
	 viewBox="0 0 800 800" style="enable-background:new 0 0 800 800;" xml:space="preserve">
<style type="text/css">
	.st0{fill:#A2ADF8;}
</style>
<g>
	<path class="st0" d="M257.1,500.3c21.9-18.5,32.8-49.3,37.9-73.5c5.1-24.2,17.7-49.4,46.3-49.4c28.6,0,43.8,27.2,43.8,51
		c0,23.9-13.5,55-50.5,55v36.2c0,0,34.5,5,57.2-23.6c10.4-13,17.9-29.7,21.1-48H449v-37h-35.6c-1.7-10.8-5-21.3-9.8-31.1
		s-13.5-37.1-64.8-37.1c-51.3,0-69,43.8-71.5,59c-2.5,15.1-8.4,33.7-14.3,46.3c-5.9,12.6-11.8,24.4-35.3,24.4
		c-23.6,0-34.5-23.3-34.5-44.1c0-20.7,12.6-47.7,42.9-47.7l-0.8-37.9c0,0-33.7-2.5-57.2,26.9c-8.5,10.7-13.4,25.5-15.3,41.2h-29.3
		v37h30.3c2.5,15,7.4,28.6,14.3,37.9C187.3,512.1,235.3,518.8,257.1,500.3z"/>
	<path class="st0" d="M629.8,175.4H319.3v30.3c0.2,0,0.5,0,0.7,0h285.1c10.5,0,19.1,8.6,19.1,19.1v281.8h29.5V199.3
		C653.7,186.2,643,175.4,629.8,175.4z"/>
	<path class="st0" d="M568.8,238.9h-338c-13.1,0-23.9,10.7-23.9,23.9v50.5h33v-24.9c0-10.5,8.6-19.1,19.1-19.1h285.1
		c10.5,0,19.1,8.6,19.1,19.1v285.1c0,10.5-8.6,19.1-19.1,19.1H259c-10.5,0-19.1-8.6-19.1-19.1v-28.7h-33v56.1
		c0,13.1,10.7,23.9,23.9,23.9h338c13.1,0,23.9-10.7,23.9-23.9v-338C592.7,249.6,581.9,238.9,568.8,238.9z"/>
</g>
</svg>
