<?xml version="1.0" encoding="utf-8"?>
<!-- Generator: Adobe Illustrator 22.0.0, SVG Export Plug-In . SVG Version: 6.00 Build 0)  -->
<svg version="1.1" id="图层_1" xmlns="http://www.w3.org/2000/svg" xmlns:xlink="http://www.w3.org/1999/xlink" x="0px" y="0px"
	 viewBox="0 0 800 800" style="enable-background:new 0 0 800 800;" xml:space="preserve">
<style type="text/css">
	.st0{fill:#FFFFFF;}
</style>
<path class="st0" d="M358.4,447.4l15.2,23.5c4.8,7.4,14.9,10.1,23.3,5.6l11.1-6.4c6.5-4.2,14-3,19.9,1.4c6,4.5,12.5,8.7,18.9,12.9
	c6.5,4.2,10.2,11,9,18.7l-2.2,12.8c-1.6,9.4,4.9,18.1,13.7,20l14.1,3l14.1,3c9.2,2.4,18.4-3.5,20.8-12.7l3.3-12.6
	c2.1-7.4,8.7-12.5,15.8-13.3c7.4-0.3,14.7-1.9,22.5-4.1c6.9-2.2,14.6,0.4,18.8,6.9l7.5,10.4c4.8,7.4,15.5,9.7,23.5,4.5l23.5-15.2
	c7.4-4.8,10.1-14.9,5.6-23.3l-6.4-11.1c-4.2-6.5-3-14,1.4-19.9c4.5-6,8.7-12.5,12.9-18.9c4.2-6.5,11-10.2,18.7-9l12.8,2.2
	c9.4,1.6,18.1-4.9,20-13.7l6.1-28.4c2.4-9.2-3.5-18.4-12.7-20.8l-12.6-3.3c-7.4-2.1-12.5-8.7-13.3-15.8c-0.3-7.4-1.9-14.7-4.1-22.5
	c-2.2-6.9,0.4-14.6,6.9-18.8l10.4-7.5c7.4-4.8,9.7-15.5,4.5-23.5l-15.7-24.2c-4.8-7.4-14.9-10.1-23.3-5.6l-11.1,6.4
	c-6.5,4.2-14,3-19.9-1.4c-6-4.5-12.5-8.7-18.9-12.9c-6.5-4.2-10.2-11-9-18.7l2.2-12.8c1.6-9.4-4.9-18.1-13.7-20l-14.1-3l-14.1-3
	c-9.2-2.4-18.4,3.5-20.8,12.7l-3.3,12.6c-2.1,7.4-8.7,12.5-15.8,13.3c-7.4,0.3-14.7,1.9-22.5,4.1c-6.9,2.2-14.6-0.4-18.8-6.9
	l-7.5-10.4c-4.8-7.4-15.5-9.7-23.5-4.5L408,212.6c-8.1,5.2-10.4,15.9-5.7,24.3l6.4,11.1c4.2,6.5,3,14-1.4,19.9
	c-4.5,6-8.7,12.5-12.9,19c-4.2,6.5-11,10.2-18.7,9l-12.8-2.2c-9.4-1.6-18.1,4.9-20,13.7l-3.4,13.6l-3,14.1
	c-2.4,9.2,3.5,18.4,12.7,20.8l12.6,3.3c7.4,2.1,12.5,8.7,13.3,15.8c0.3,7.4,1.9,14.7,4.1,22.5c2.2,6.9-0.4,14.6-6.9,18.8l-10.4,7.5
	C355,428.9,352.7,439.6,358.4,447.4z M461.9,396.8c-20.9-32.2-11.7-74.4,20.3-95.2c32.2-20.9,74.4-11.7,95.2,20.3
	c20.9,32.2,11.7,74.4-20.3,95.2C525.2,438.1,482.8,429.1,461.9,396.8z"/>
<path class="st0" d="M256.3,155l-16.3,0.2c-5.1,0.1-9.6,4.1-9.9,9.7l-0.3,7.4c0,4.4-2.9,7.8-6.9,9.3c-4.1,1.6-8,3.4-12.1,5.3
	c-4,1.8-8.3,1.6-11.8-1.3l-5.7-5c-4.2-3.7-10.3-3.1-14,0.5l-5.8,5.9l-5.8,5.9c-3.9,3.7-3.9,9.9-0.2,14.2l5.2,5.6
	c3,3.4,3.5,8,1.6,11.9c-2.3,3.8-3.7,7.9-5,12.3c-1.1,4-4.7,7-9.2,7.1l-7.3,0.5c-5.1,0.1-9.5,4.4-9.4,9.9l0.2,16.3
	c0.1,5.1,4.1,9.6,9.7,9.9l7.4,0.3c4.4,0,7.8,2.9,9.3,6.9c1.4,4.1,3.5,8,5.3,12.1c1.8,4,1.6,8.3-1.3,11.8l-5,5.7
	c-3.7,4.2-3.1,10.3,0.5,14l12,11.6c3.7,3.9,9.9,3.9,14.2,0.2l5.6-5.2c3.4-3,8-3.5,11.9-1.6c3.8,2.3,7.9,3.7,12.3,5
	c4,1.1,7,4.7,7.1,9.2l0.5,7.3c0.1,5.1,4.4,9.5,9.9,9.4l16.7-0.2c5.1-0.1,9.6-4.1,9.9-9.7l0.3-7.4c0-4.4,2.9-7.8,6.9-9.3
	c4.1-1.6,8-3.5,12.1-5.3c4-1.8,8.3-1.6,11.8,1.3l5.7,5c4.2,3.7,10.3,3.1,14-0.5l5.8-5.9l5.8-5.9c3.9-3.7,3.9-9.9,0.2-14.2l-5.2-5.6
	c-3-3.4-3.4-8-1.6-11.9c2.3-3.8,3.7-7.9,5-12.3c1.1-4,4.7-7,9.2-7.1l7.3-0.5c5.1-0.1,9.5-4.4,9.4-9.9l-0.2-16.3
	c-0.1-5.5-4.6-9.8-10.1-10.2l-7.4-0.3c-4.4,0-7.8-2.9-9.3-6.9c-1.6-4.1-3.5-8-5.3-12.1c-1.8-4-1.6-8.3,1.3-11.8l5-5.7
	c3.7-4.2,3.1-10.3-0.5-14l-5.6-5.9l-5.9-5.8c-3.7-3.9-9.9-3.9-14.2-0.2l-5.6,5.2c-3.4,3-8,3.5-11.9,1.6c-3.8-2.3-7.9-3.7-12.3-5
	c-4-1.1-7-4.7-7.1-9.2l-0.5-7.3C266.3,158.8,261.7,154.5,256.3,155z M249,221.2c22.1-0.3,40.1,17.3,40.3,39.5
	c0.3,22.1-17.3,40.1-39.5,40.3c-22.1,0.3-40.1-17.3-40.3-39.5C209.4,239.5,226.7,221.5,249,221.2z"/>
<path class="st0" d="M590.6,556.1v32.3c0,11.4-9.3,20.8-20.8,20.8H259.7c-11.4,0-20.8-9.4-20.8-20.8v-31.3H203v61.1
	c0,14.3,11.7,26,26,26h367.7c14.3,0,26-11.7,26-26v-62.1H590.6z"/>
</svg>
